<?xml version="1.0" encoding="utf-8"?><svg width="114" height="114" fill="none" xmlns="http://www.w3.org/2000/svg" viewBox="0 0 114 114"><circle cx="57" cy="57" r="56.5" fill="#1C4188" stroke="#1C4188"/><path d="M86.407 71.828c-22.492 8.754-43.95 2.77-51.776 0a4.154 4.154 0 01-2.66-4.455l1.793-17.568 26.49 9.826 26.936-9.97 1.818 17.772a4.166 4.166 0 01-2.6 4.395z" fill="#fff" stroke="#1C4188" stroke-width=".4" stroke-miterlimit="10"/><path d="M60.245 28.5l42.071 15.581-15.136 5.611-26.935 9.97-26.49-9.825-2.48-.916a37.18 37.18 0 00-3.48 6.515 27.08 27.08 0 00-1.205 8.753 5.851 5.851 0 012.962 5.118 5.792 5.792 0 01-2.673 4.9l2.011 13.245a1.747 1.747 0 01-1.734 1.903h-6.935a1.759 1.759 0 01-1.746-1.903l2.01-13.245a5.804 5.804 0 01-2.672-4.9 5.864 5.864 0 013.612-5.395 35.306 35.306 0 011.529-9.981 45.872 45.872 0 013.444-6.84l-8.14-3.01L60.329 28.5" fill="#fff"/><path d="M60.245 28.5l42.071 15.581-15.136 5.611-26.935 9.97-26.49-9.825-2.48-.916a37.18 37.18 0 00-3.48 6.515 27.08 27.08 0 00-1.205 8.753 5.851 5.851 0 012.962 5.118 5.792 5.792 0 01-2.673 4.9l2.011 13.245a1.747 1.747 0 01-1.734 1.903h-6.935a1.759 1.759 0 01-1.746-1.903l2.01-13.245a5.804 5.804 0 01-2.672-4.9 5.864 5.864 0 013.612-5.395 35.306 35.306 0 011.529-9.981 45.872 45.872 0 013.444-6.84l-8.14-3.01L60.329 28.5" stroke="#1C4188" stroke-width=".4" stroke-miterlimit="10"/></svg>