<?xml version="1.0" encoding="utf-8"?><svg width="114" height="114" fill="none" xmlns="http://www.w3.org/2000/svg" viewBox="0 0 114 114"><circle cx="57" cy="57" r="57" fill="#FFF8F8"/><path d="M51.804 19.688c2.31-4 8.083-4 10.392 0l29.716 51.468c2.31 4-.578 9-5.197 9h-59.43c-4.62 0-7.506-5-5.197-9l29.716-51.469z" fill="#EC2A41"/><path d="M54.015 59.13l-1.547-22.793h9.277L60.2 59.13h-6.184zm3.092 12.519c-1.397 0-2.544-.449-3.441-1.347-.898-.898-1.347-1.962-1.347-3.192 0-1.263.449-2.31 1.346-3.142.898-.864 2.045-1.297 3.442-1.297 1.43 0 2.577.433 3.441 1.297.898.831 1.347 1.879 1.347 3.142 0 1.23-.449 2.294-1.347 3.192-.864.898-2.011 1.347-3.441 1.347z" fill="#fff"/></svg>