<?xml version="1.0" encoding="utf-8"?><svg width="114" height="114" fill="none" xmlns="http://www.w3.org/2000/svg" viewBox="0 0 114 114"><circle cx="57" cy="57" r="56.5" fill="#C64D4D" stroke="#C64D4D"/><path d="M48.824 50.564c-4.216 0-7.11.068-9.265.163-2.156.095-6.059.65-6.059 2.97 0 1.125.996 2.196 4.257 3.484a54.563 54.563 0 0012.063 3.254c6.987 1.166 8.515 1.695 10.63 2.997a7.124 7.124 0 012.377 2.507 7.072 7.072 0 01.912 3.324c0 2.508-1.365 3.756-3.289 5.329-1.2.976-2.32 1.437-6.918 4.393a18.232 18.232 0 00-5.117 4.299 7.67 7.67 0 00-1.815 3.742c-.382 2.902 2.17 5.804 5.09 8.556" stroke="#fff" stroke-miterlimit="10" stroke-linecap="round"/><path d="M65.165 50.564c4.216 0 7.11.068 9.279.163 2.17.095 6.045.65 6.045 2.97 0 1.125-.996 2.196-4.258 3.484a54.563 54.563 0 01-12.063 3.254c-6.986 1.166-8.514 1.695-10.616 2.997a7.097 7.097 0 00-2.388 2.503 7.043 7.043 0 00-.914 3.328c0 2.508 1.364 3.756 3.288 5.329 1.201.976 2.32 1.437 6.919 4.393a18.23 18.23 0 015.117 4.299 7.669 7.669 0 011.815 3.742c.382 2.902-2.17 5.804-5.09 8.556" stroke="#fff" stroke-miterlimit="10" stroke-linecap="round"/><path d="M62.417 26.802a5.4 5.4 0 01-.918 2.987 5.45 5.45 0 01-2.425 1.99v61.696H54.98V31.832a5.455 5.455 0 01-2.323-1.766 5.393 5.393 0 01-.584-5.572 5.433 5.433 0 011.907-2.204 5.482 5.482 0 017.738 1.757c.503.85.764 1.822.754 2.809l-.055-.054z" fill="#fff" stroke="#C64D4D" stroke-width=".4" stroke-miterlimit="10"/><path d="M52.733 33.547c.732.038 1.465.038 2.197 0v12.285a4.926 4.926 0 01-2.334-.474 14.605 14.605 0 01-1.76-1.14 8.388 8.388 0 01-3.82 1.221 6.307 6.307 0 01-2.907-1.356 7.453 7.453 0 01-3.275 1.166 6.458 6.458 0 01-3.275-1.491 9.862 9.862 0 01-4.462 1.003 8.89 8.89 0 01-3.671-1.858 12.249 12.249 0 01-4.312 0c-2.183-.57-3.739-3.39-3.739-3.39a27.767 27.767 0 005.049-.27 16.01 16.01 0 005.54-2.13 29.255 29.255 0 007.041-4.962c.833-.8 1.788-1.641 3.684-3.35 1.515-1.356 1.87-1.844 3.044-1.817 1.173.027 2.224 1.356 2.538 1.858.313.502.368.773.887 1.6.358.727.86 1.377 1.473 1.91.614.533 1.328.94 2.102 1.195zM92.624 39.585s-1.556 2.82-3.753 3.39a12.166 12.166 0 01-4.298 0 8.879 8.879 0 01-3.684 1.858 9.782 9.782 0 01-4.449-1.004 6.46 6.46 0 01-3.275 1.492 7.37 7.37 0 01-3.275-1.166 6.309 6.309 0 01-2.906 1.355 8.32 8.32 0 01-3.821-1.22c-.564.42-1.157.8-1.774 1.14a4.897 4.897 0 01-2.32.474V33.618c.728.038 1.456.038 2.184 0a6.138 6.138 0 002.1-1.162 6.094 6.094 0 001.488-1.875c.505-.827.56-1.085.874-1.6.314-.515 1.364-1.83 2.538-1.858 1.173-.027 1.528.475 3.043 1.817 1.91 1.709 2.865 2.55 3.684 3.35a29.254 29.254 0 007.041 4.962 15.97 15.97 0 005.554 2.13c1.673.22 3.363.289 5.049.203z" fill="#fff" stroke="#C64D4D" stroke-width=".4" stroke-miterlimit="10"/></svg>