<?xml version="1.0" encoding="utf-8"?><svg width="32" height="32" fill="none" xmlns="http://www.w3.org/2000/svg" viewBox="0 0 32 32"><circle cx="16" cy="16" r="15.5" fill="#2E60E1" stroke="#2E60E1"/><path d="M16 26c5.523 0 10-4.477 10-10S21.523 6 16 6 6 10.477 6 16s4.477 10 10 10z" fill="#fff" stroke="#2E60E1" stroke-width=".4" stroke-miterlimit="10"/><path d="M16.016 16.213a28.756 28.756 0 002.674-3.927 33.77 33.77 0 002.234-4.89" fill="#fff"/><path d="M16.016 16.213a28.756 28.756 0 002.674-3.927 33.77 33.77 0 002.234-4.89" stroke="#2E60E1" stroke-width=".4" stroke-miterlimit="10"/><path d="M16.181 16.09a29.313 29.313 0 00-4.713-.63 34.172 34.172 0 00-5.368.183" fill="#fff"/><path d="M16.181 16.09a29.313 29.313 0 00-4.713-.63 34.172 34.172 0 00-5.368.183" stroke="#2E60E1" stroke-width=".4" stroke-miterlimit="10"/><path d="M16.053 16.04a29.386 29.386 0 002.429 4.083 34.994 34.994 0 003.48 4.091" fill="#fff"/><path d="M16.053 16.04a29.386 29.386 0 002.429 4.083 34.994 34.994 0 003.48 4.091" stroke="#2E60E1" stroke-width=".4" stroke-miterlimit="10"/><path d="M18.574 20.25a31.907 31.907 0 002.926-4.556 39.728 39.728 0 002.398-5.701" fill="#fff"/><path d="M18.574 20.25a31.907 31.907 0 002.926-4.556 39.728 39.728 0 002.398-5.701" stroke="#2E60E1" stroke-width=".4" stroke-miterlimit="10"/><path d="M18.975 11.797a34.495 34.495 0 00-5.55-.705 40.113 40.113 0 00-6.331.27" fill="#fff"/><path d="M18.975 11.797a34.495 34.495 0 00-5.55-.705 40.113 40.113 0 00-6.331.27" stroke="#2E60E1" stroke-width=".4" stroke-miterlimit="10"/><path d="M10.844 15.346a37.599 37.599 0 002.888 5.192 42.331 42.331 0 004.141 5.198" fill="#fff"/><path d="M10.844 15.346a37.599 37.599 0 002.888 5.192 42.331 42.331 0 004.141 5.198" stroke="#2E60E1" stroke-width=".4" stroke-miterlimit="10"/></svg>