<?xml version="1.0" encoding="utf-8"?><svg width="32" height="32" fill="none" xmlns="http://www.w3.org/2000/svg" viewBox="0 0 32 32"><circle cx="16" cy="16" r="15.5" fill="#6A29F2" stroke="#6A29F2"/><path d="M12.813 25.733c4.41 0 8.822-10.674 8.822-17.207a80.647 80.647 0 01-8.869 1.294A78.236 78.236 0 014 8.526c0 6.03 4.439 17.207 8.813 17.207z" fill="#fff" stroke="#6A29F2" stroke-width=".4" stroke-miterlimit="10"/><path d="M9.364 14.918l-1.88-1.238 1.88-1.238 1.88 1.238-1.88 1.238z" fill="#6A29F2" stroke="#6A29F2" stroke-width=".4" stroke-miterlimit="10"/><path d="M16.265 14.974l-1.88-1.238 1.88-1.238 1.889 1.238-1.89 1.238z" fill="#fff" stroke="#6A29F2" stroke-width=".4" stroke-miterlimit="10"/><path d="M11.71 21.9a1.861 1.861 0 002.242 0 9.026 9.026 0 001.6-1.908 8.673 8.673 0 01-5.462 0 9.586 9.586 0 001.62 1.908z" fill="#6A29F2" stroke="#6A29F2" stroke-width=".4" stroke-miterlimit="10"/><path d="M14.539 26.235C18.652 27.836 26.637 19.49 29 13.403a79.48 79.48 0 01-8.729-2.01A76.906 76.906 0 0112.575 7c-2.196 5.62-2.14 17.635 1.964 19.235z" fill="#fff" stroke="#6A29F2" stroke-width=".4" stroke-miterlimit="10"/><path d="M15.244 14.912l-1.303-1.833 2.206-.475 1.303 1.833-2.206.475zM21.668 17.471l-1.313-1.833 2.206-.475 1.303 1.843-2.196.465zM14.887 22.27a1.86 1.86 0 002.094.829c.777-.3 1.51-.704 2.178-1.2a8.692 8.692 0 01-5.09-1.983c.17.817.445 1.608.818 2.355z" fill="#6A29F2" stroke="#6A29F2" stroke-width=".4" stroke-miterlimit="10"/></svg>