<?xml version="1.0" encoding="utf-8"?><svg width="32" height="32" fill="none" xmlns="http://www.w3.org/2000/svg" viewBox="0 0 32 32"><circle cx="16" cy="16" r="15.5" fill="#C52873" stroke="#C52873"/><path d="M8.38 10.21l-1.832 4.964c.477.224.976.396 1.49.514.855.195 1.738.24 2.609.132l.97-3.015-.027 1.559c-.006.416.071.829.227 1.214l1.27 3.127.575-.636-.828-2.77a2.712 2.712 0 01-.072-1.225l.372-2.18c.008-.11.002-.221-.015-.33-.144-.883-1.082-1.358-1.304-1.462l-.07-.035a.946.946 0 01-.092.199.967.967 0 01-.536.405.797.797 0 01-.652-.034.758.758 0 01-.33-.47.933.933 0 01.02-.528c.043-.141.114-.272.21-.384a4.647 4.647 0 00-.952-.679 4.224 4.224 0 00-1.56-.514c-.25-.022-.712-.292-.631-.412l1.512-2.235L8.112 5 6.04 7.702c-.188.247.331.706.57.916l1.77 1.592z" fill="#fff" stroke="#C52873" stroke-width=".2" stroke-miterlimit="10"/><path d="M11.834 9.584a1.276 1.276 0 100-2.552 1.276 1.276 0 000 2.552zM6.486 15.37a4.437 4.437 0 00-.144.85c-.066 1.03.192 1.882.563 3.074.093.301.177.546.235.707l-.703 6.19H8.16v-.542l-.894-.32 1.53-4.754.256-2.482 1.244 2.234v5.997h1.723v-.637l-.892-.32 1.019-5.168-1.47-4.198a6.28 6.28 0 01-.319.048c-1.514.19-2.647-.136-3.743-.616l-.129-.063zM24.584 11.541a1.31 1.31 0 10-2.387-1.083 1.31 1.31 0 002.387 1.083z" fill="#fff" stroke="#C52873" stroke-width=".2" stroke-miterlimit="10"/><path d="M26.03 10.5l.582-3.31h.816s-.111 3.12-.642 4.183c-.516 1.035-3.11 3.226-3.11 3.226a2.126 2.126 0 00-.2.215 2.587 2.587 0 00-.46.95c-.186.846.634 1.911.634 1.911-2.665 1.24-4.234.035-4.234.035 2.465-1.855.235-2.638 1.024-4.493.285-.662.24-2.567.343-3.475a3.503 3.503 0 01.865-1.933l1.787-2.09.632.532c-1.606 1.793-1.517 1.82-1.999 2.648 0 0-1.297 3.102.345 3.913 1.416.7 2.617-.585 3.377-1.703.123-.184.205-.391.24-.61z" fill="#fff" stroke="#C52873" stroke-width=".2" stroke-miterlimit="10"/><path d="M19.27 17.86c.093.071 1.71 1.245 4.454-.018 0 0 .527.389.144 4.37l2.032 3.82-1.257.968-.367-.619.599-.852-2.537-3.098-.97-2.788-3.662 2.027-1.798 3.897v.872h-1.41v-.413l.948-.517 1.016-4.24 2.808-3.409z" fill="#fff" stroke="#C52873" stroke-width=".2" stroke-miterlimit="10"/></svg>