<?xml version="1.0" encoding="utf-8"?><svg width="765" height="1034" fill="none" xmlns="http://www.w3.org/2000/svg" viewBox="0 0 765 1034"><path d="M957-37.616H-68V985.773H957V-37.617z" fill="#2C3347"/><path d="M-68 87.749S66.531 118.45 99.844 133.8h12.812l112.75-11.513 43.563-16.63 46.125 55.007s-43.563 90.826-42.282 153.509c1.282 62.682-2.562 207.236-2.562 207.236s-110.188 15.351-138.375 14.071c-28.187-1.279-99.938-48.611-105.063-55.007-5.125-6.396-106.343-62.682-106.343-62.682L-68 87.749z" fill="#133874" fill-opacity=".35"/><path d="M653.651 771.232l35.388 60.367 54.069 23.065-50.135 161.946-162.206-66.247 122.884-179.131zM-70.268 855.598L104.2 881.349l19.654-35.013s-81.666-156.348-83.55-156.962c-1.883-.614-28.867-14.072-28.867-14.072l-105.062 169.87 23.357 10.426z" fill="#4C658C"/><path d="M590.947 499.036l82.128-4.912 101.091-35.039 106.715-72.89M750.309 618.888l-77.926-121.259" stroke="#3D4B67" stroke-width="15" stroke-miterlimit="10"/><path d="M737.663 602.769l-33.697 23.832-16.849-5.603-30.186 15.415M754.908 470.867l38.194 65.267 31.583-8.072M749.771 313.93l20.564-27.132M801.918 352.065l-64.639-39.606-43.332 11.744-14.683 78.468M684.401 357.194l-49.213 8.072" stroke="#3D4B67" stroke-width="12" stroke-linecap="round" stroke-linejoin="round"/><path d="M700.775 808.355l82.59-61.506L903.2 527.166" stroke="#3D4B67" stroke-width="16" stroke-linecap="round" stroke-linejoin="round"/><path d="M930.952 799.567L810.451 781.99l-84.627-122.346M909.966 842.831l-100.194-23.653-56.196-47.997" stroke="#3D4B67" stroke-width="12" stroke-linecap="round" stroke-linejoin="round"/><path d="M673.011 756.303l81.244-52.717" stroke="#3D4B67" stroke-width="8" stroke-linecap="round" stroke-linejoin="round"/><path d="M390.508 514.323l-20.269 56.504-22.358 76.728 23.062 27.197 6.291 121.374-16.079 68.349-61.475 140.205" stroke="#3D4B67" stroke-width="19" stroke-linecap="round" stroke-linejoin="round"/><path d="M174.63 778.69l148.151-27.21 104.089 9.07s160.682-101.136 163.475-102.531M564.451 611.98L372.34 692.891l-138.324-6.971-329.05-139.501" stroke="#3D4B67" stroke-width="12" stroke-linecap="round" stroke-linejoin="round"/><path d="M-85.246 613.374L39.1 686.61l89.418 171.597M185.111 532.462l-22.358 125.557-52.39 107.418M205.368 719.397L-85.95 575.01M12.552 671.963l-116.67 188.329M62.2 732.318L-85.245 926.557" stroke="#3D4B67" stroke-width="8" stroke-linecap="round" stroke-linejoin="round"/><path d="M-81.056 852.617l209.574 28.604 107.587 107.417" stroke="#3D4B67" stroke-width="16" stroke-linecap="round" stroke-linejoin="round"/><path d="M466.025 507.146l-2.485 95.112 82.012 89.329M427.92 516.242l-4.971 155.491" stroke="#3D4B67" stroke-width="8" stroke-linecap="round" stroke-linejoin="round"/><path d="M531.458 571.658L356.67 646.916l-101.885-14.878M278.809 560.081l94.748 5.782M268.866 597.294l94.749 5.795M130.53 877.677l226.973-3.313 108.522 61.199 46.381 9.926M807.094 862.544L761.827 1015.2M743.89 847.193l-51.25 179.097M642.235 431.006l36.734 63.118M813.923 360.226c-1.704 0-91.392 115.131-91.392 115.131M175.015 1008.38l82-244.772M230.531 1033.96l112.75-343.691M584.925 90.371l2.037 135.305-30.57 152.587-113.096 120.044" stroke="#3D4B67" stroke-width="8" stroke-linecap="round" stroke-linejoin="round"/><path d="M391.328 507.466l22.422-247.199L367.894 44.6 333.262-69.34M771.372-108L669.487 174.814" stroke="#3D4B67" stroke-width="19" stroke-linecap="round" stroke-linejoin="round"/><path d="M288.431 246.016l118.183-13.215 158.951-161.76 40.757-120.03M639.942 143.28l-27.508 155.632-11.211 138.362" stroke="#3D4B67" stroke-width="8" stroke-linecap="round" stroke-linejoin="round"/><path d="M666.438 311.129l-260.837-8.136-124.307 19.329M276.195 364.025l126.344 4.068M278.232 453.546l118.196-4.068 159.964-71.215 49.93 56.977M706.17 216.517L413.75 227.71M719.431 205.285L774.563 3.46M615.291 112.528L658.174.402M714.318 51.367l99.028 124.355M-80.966 82.964l189.881 47.908 119.451-9.172L501.977 14.666M120.151 50.344L236.54 76.85M294.722-9.793l62.281 159.009M243.677 75.826l85.767 95.815M227.341 238.916l47.983 11.219M219.179 365.317l52.07-1.023M217.142 451.96l59.207 6.115M56.281-45.292l-8.968 157.346M20.406 480.474l-20.5 110.015M89.594 534.202L81.022 760.55l81.731 23.014" stroke="#3D4B67" stroke-width="8" stroke-linecap="round" stroke-linejoin="round"/><path d="M468.844-65.76l53.812 94.664 233.188 225.145 110.187 97.222 169.129 162.463" stroke="#3D4B67" stroke-width="34" stroke-linecap="round" stroke-linejoin="round"/><path d="M90.875 1024.15s12.813-126.645 32.031-161.184C142.125 828.427 239.5 676.197 260 619.911s14.094-173.976 14.094-241.776c0-67.799-5.125-147.112 49.968-202.119 55.094-55.007 194.75-154.787 194.75-154.787M1026.19 925.649L693.062 823.31 568.781 619.911 536.75 571.3l1.281-108.735 128.125-44.773 354.904-152.229" stroke="#3D4B67" stroke-width="34" stroke-linecap="round" stroke-linejoin="round"/><path d="M654.625 760.627L531.663 935.524l-64.101 91.186M698.482 1025.99L521.67 951.796" stroke="#3D4B67" stroke-width="34" stroke-linecap="round" stroke-linejoin="round"/><path d="M-109 403.72s105.063 52.449 133.25 67.8c28.188 15.351 55.094 78.033 156.312 61.403 101.219-16.63 399.75-34.539 399.75-34.539s37.157-135.599 98.657-207.237c61.5-71.637 188.343-153.508 188.343-153.508l175.528-23.026M580.313 498.384s25.625 112.572 15.375 135.599c-10.25 23.026-38.438 44.773-65.344 85.708-26.906 40.936-3.844 84.43-90.969 112.573-87.125 28.143-29.469 184.206-29.469 184.206" stroke="#3D4B67" stroke-width="23" stroke-linejoin="round"/><path d="M580.313 498.384s25.625 112.572 15.375 135.599c-10.25 23.026-38.438 44.773-65.344 85.708-26.906 40.936-3.844 84.43-90.969 112.573-87.125 28.143-29.469 184.206-29.469 184.206M-109 403.72s105.063 52.449 133.25 67.8c28.188 15.351 55.094 78.033 156.312 61.403 101.219-16.63 399.75-34.539 399.75-34.539s37.157-135.599 98.657-207.237c61.5-71.637 188.343-153.508 188.343-153.508l175.528-23.026" stroke="#293F64" stroke-opacity=".96" stroke-width="10" stroke-linejoin="round"/><path d="M363.781 1006.24L465 930.765l115.312-147.112 70.469-79.312 197.313-140.716 116.594-80.592" stroke="#3D4B67" stroke-width="23" stroke-linejoin="round"/><path d="M363.781 1006.24L465 930.765l115.312-147.112 70.469-79.312 197.313-140.716 116.594-80.592" stroke="#606A98" stroke-width="14" stroke-linejoin="round"/><path d="M468.844-65.76l53.812 94.664 233.188 225.145 110.187 97.222 169.129 162.463" stroke="#2C3347" stroke-width="21" stroke-linecap="round" stroke-linejoin="round"/><path d="M90.875 1024.15s12.813-126.645 32.031-161.184C142.125 828.427 239.5 676.197 260 619.911s14.094-173.976 14.094-241.776c0-67.799-5.125-147.112 49.968-202.119 55.094-55.007 194.75-154.787 194.75-154.787M1026.19 925.649L693.062 823.31 568.781 619.911 536.75 571.3l1.281-108.735 128.125-44.773 354.904-152.229" stroke="#2C3347" stroke-width="21" stroke-linecap="round" stroke-linejoin="round"/><path d="M654.625 760.627L531.663 935.524l-64.101 91.186M696.535 1025.15L523.63 952.653" stroke="#2C3347" stroke-width="21" stroke-linecap="round" stroke-linejoin="round"/><path d="M696.535 1025.15L523.63 952.653" stroke="#48496F" stroke-width="19" stroke-linecap="round" stroke-linejoin="round"/><path d="M112.656-54.246s6.406 168.859-8.969 217.47C88.312 211.835 24.25 326.966 53.719 407.558c29.468 80.592 143.5 117.69 157.593 56.286 14.094-61.403-2.562-165.021 5.125-205.957 7.688-40.935 20.5-213.632 37.157-236.659 16.656-23.026 49.968-55.007 114.031-67.8M652.062-60.643c3.844 0 166.563-8.954 224.219 56.287 57.657 65.24 47.407 95.942 58.938 124.086 11.531 28.143 35.875 51.169 64.062 65.241" stroke="#3D4B67" stroke-width="23" stroke-linejoin="round"/><path d="M112.656-54.246s6.406 168.859-8.969 217.47C88.312 211.835 24.25 326.966 53.719 407.558c29.468 80.592 143.5 117.69 157.593 56.286 14.094-61.403-2.562-165.021 5.125-205.957 7.688-40.935 20.5-213.632 37.157-236.659 16.656-23.026 49.968-55.007 114.031-67.8M652.062-60.643c3.844 0 166.563-8.954 224.219 56.287 57.657 65.24 47.407 95.942 58.938 124.086 11.531 28.143 35.875 51.169 64.062 65.241" stroke="#606A98" stroke-width="14" stroke-linejoin="round"/><path d="M468.844-65.76l53.812 94.664 233.188 225.145 110.187 97.222 169.129 162.463" stroke="#48496F" stroke-width="19" stroke-linecap="round" stroke-linejoin="round"/><path d="M90.875 1024.15s12.813-126.645 32.031-161.184C142.125 828.427 239.5 676.197 260 619.911s14.094-173.976 14.094-241.776c0-67.799-5.125-147.112 49.968-202.119 55.094-55.007 194.75-154.787 194.75-154.787M1026.19 925.649L693.062 823.31 568.781 619.911 536.75 571.3l1.281-108.735 128.125-44.773 354.904-152.229" stroke="#48496F" stroke-width="19" stroke-linecap="round" stroke-linejoin="round"/><path d="M654.625 760.627L531.663 935.524l-64.101 91.186" stroke="#48496F" stroke-width="19" stroke-linecap="round" stroke-linejoin="round"/><path d="M957-37.616H-68V1034.38H957V-37.616z" fill="url(#agpaint0_radial_1177_29877)"/><path opacity=".2" d="M887.812-37.616H-68v947.914h955.812V-37.616z" fill="#151618"/><path style="mix-blend-mode:multiply" opacity=".28" d="M367.42 508.835c0 3.275-11.134 5.923-24.882 5.923-13.748 0-24.882-2.648-24.882-5.923s11.147-5.923 24.895-5.923 24.869 2.661 24.869 5.923z" fill="url(#agpaint1_radial_1177_29877)"/><path d="M431.816 948.291a11.475 11.475 0 01-.154-.908c.026.307.09.601.154.908zM432.803 951.157l-.077-.167.077.167zM432.123 949.468z" fill="#B5B5B5"/><defs><radialGradient id="agpaint0_radial_1177_29877" cx="0" cy="0" r="1" gradientUnits="userSpaceOnUse" gradientTransform="rotate(-1.178 23865.186 -21598.837) scale(508.123 515.459)"><stop stop-color="#151618" stop-opacity="0"/><stop offset="1" stop-color="#151618"/></radialGradient><radialGradient id="agpaint1_radial_1177_29877" cx="0" cy="0" r="1" gradientUnits="userSpaceOnUse" gradientTransform="matrix(24.906 0 0 5.89624 342.826 507.754)"><stop/><stop offset=".15" stop-opacity=".5"/><stop offset="1" stop-opacity="0"/></radialGradient></defs></svg>