<?xml version="1.0" encoding="utf-8"?><svg width="35" height="41" fill="none" xmlns="http://www.w3.org/2000/svg" viewBox="0 0 35 41"><path d="M22.992 3.422c.042-.072.084-.147.13-.214L24.785.712c.223-.33.18-.515-.155-.712h-.21c-.105.096-.227.184-.303.297-.6.88-1.193 1.763-1.78 2.647-.085.126-.152.163-.299.109-1.684-.637-3.436-.871-5.229-.787-1.327.058-2.62.314-3.864.787-.16.063-.231.017-.311-.109a291.251 291.251 0 00-1.772-2.65c-.076-.11-.19-.198-.286-.294h-.21c-.336.172-.39.39-.18.704l1.247 1.846c.197.29.386.583.588.884-.996.478-1.89 1.043-2.692 1.755C7.917 6.44 6.93 7.953 6.535 9.812c-.105.503-.138 1.026-.205 1.55h22.34c-.218-3.853-2.406-6.274-5.678-7.94zM12.71 8.2a1.172 1.172 0 01-1.168-1.19c0-.665.53-1.197 1.184-1.193.651.004 1.185.54 1.193 1.202.013.637-.55 1.181-1.21 1.181zm9.56 0c-.648-.004-1.19-.536-1.194-1.177-.008-.64.555-1.21 1.193-1.206a1.185 1.185 0 011.189 1.194c0 .67-.525 1.193-1.189 1.189zM28.65 12.979v17.325c0 1.365-.84 2.387-2.193 2.597-.458.07-.933.02-1.403.025h-.697c.012.41.034.804.034 1.202 0 1.553.012 3.107-.013 4.665-.017 1.047-.87 1.977-1.899 2.165-1.352.247-2.608-.628-2.83-1.977-.017-.117-.017-.238-.017-.355 0-1.734.004-3.472.008-5.206 0-.16.038-.314.063-.482H15.36c.017 1.96.03 3.916-.004 5.868-.017 1.026-.882 1.976-1.89 2.152-1.361.239-2.554-.574-2.827-1.926a1.859 1.859 0 01-.03-.373c0-1.75 0-3.501.01-5.248 0-.15.037-.301.062-.481H8.774c-1.176-.004-2.293-1.03-2.394-2.203a6.7 6.7 0 01-.02-.503V12.983h22.29v-.005zM4.763 25.43c0 1.205-.697 2.118-1.827 2.403-1.298.33-2.642-.528-2.89-1.843a3.111 3.111 0 01-.042-.557C0 23.767 0 22.1 0 20.433h.004c0-1.73-.004-3.46 0-5.189.004-1.06.832-2.035 1.873-2.232 1.366-.26 2.58.557 2.848 1.918.03.155.038.318.038.477 0 3.342.004 6.68 0 10.022zM35 25.509c.008 1.281-1.059 2.475-2.524 2.391a2.352 2.352 0 01-2.23-2.173 9.024 9.024 0 01-.017-.587v-4.728-4.98c0-.724.226-1.356.772-1.842.71-.628 1.538-.8 2.428-.482.886.319 1.386.984 1.554 1.902.021.117.013.234.013.356 0 3.384-.009 6.763.004 10.143z" fill="#fff"/></svg>