<?xml version="1.0" encoding="utf-8"?><svg width="34" height="41" fill="none" xmlns="http://www.w3.org/2000/svg" viewBox="0 0 34 41"><g clip-path="url(#ajclip0_1189_36752)" fill="#fff"><path d="M32.777 13.77C25.993 19.179 27.768 26.842 34 30.148c-1.262 3.657-3.195 6.847-6.074 9.492-1.538 1.4-3.51 1.711-5.325.895-3.353-1.556-6.547-1.44-9.821.077-1.736.778-3.432.39-4.97-.816C2.17 35.438-1.38 24.779.513 17.971c1.814-6.574 7.652-9.57 14.002-7.04 2.288.933 4.142.466 6.232-.312 4.891-1.828 9.348-.584 12.03 3.15zM17.04 9.18C16.605 4.59 20.431.272 25.085 0c1.262 3.345-3.077 9.88-8.046 9.18z"/></g><defs><clipPath id="ajclip0_1189_36752"><path fill="#fff" d="M0 0h34v41H0z"/></clipPath></defs></svg>