<?xml version="1.0" encoding="utf-8"?><svg width="1026" height="1074" fill="none" xmlns="http://www.w3.org/2000/svg" viewBox="0 0 1026 1074"><g clip-path="url(#akclip0_1189_36808)"><path d="M1026 0H0v1025.3h1026V0z" fill="#2C3347"/><path d="M0 125.599s134.663 30.759 168.008 46.139h12.825l112.86-11.535 43.605-16.661 46.17 55.11s-43.605 90.995-42.323 153.794c1.283 62.8-2.565 207.623-2.565 207.623s-110.295 15.38-138.51 14.098c-28.215-1.282-100.035-48.702-105.165-55.11-5.13-6.408-106.448-62.799-106.448-62.799L0 125.599z" fill="#133874" fill-opacity=".35"/><path d="M722.355 810.357l35.423 60.48 54.121 23.108-50.184 162.255-162.364-66.377 123.004-179.466zM-2.27 894.88l174.638 25.8 19.673-35.078s-81.746-156.64-83.631-157.256c-1.886-.615-28.895-14.097-28.895-14.097L-25.65 884.435l23.38 10.445z" fill="#4C658C"/><path d="M659.59 537.654l82.208-4.921 101.189-35.104 106.82-73.027M819.107 657.729l-78.002-121.485" stroke="#3D4B67" stroke-width="15" stroke-miterlimit="10"/><path d="M806.449 641.581l-33.73 23.876-16.865-5.613-30.216 15.443M890.619 471.228l57.341 74.205M823.711 509.433l38.232 65.388 31.613-8.087M883.271 524.12l-39.707 16.174M881.796 403.635L1000.17 538.09M818.568 352.203l20.584-27.183M870.766 390.408l-64.702-39.679-43.374 11.765-14.698 78.615M753.135 395.547l-49.26 8.087" stroke="#3D4B67" stroke-width="12" stroke-linecap="round" stroke-linejoin="round"/><path d="M769.526 847.55l82.67-61.62 119.952-220.093" stroke="#3D4B67" stroke-width="16" stroke-linecap="round" stroke-linejoin="round"/><path d="M999.927 838.745l-120.619-17.609-84.709-122.574M978.919 882.09l-100.291-23.697-56.251-48.087" stroke="#3D4B67" stroke-width="12" stroke-linecap="round" stroke-linejoin="round"/><path d="M741.734 795.401l81.323-52.816M1003.99 803.539L896.25 785.93M1016.2 779.15l-107.754-17.609M1028.4 754.774l-107.757-17.61M1040.59 730.397l-107.751-17.609" stroke="#3D4B67" stroke-width="8" stroke-linecap="round" stroke-linejoin="round"/><path d="M842.705 659.959l63.035 29.798 154.5-18.276M959.951 600.376l100.679 50.689" stroke="#3D4B67" stroke-width="12" stroke-linecap="round" stroke-linejoin="round"/><path d="M458.955 552.969l-20.289 56.61-22.379 76.871 23.085 27.248 6.297 121.6-16.096 68.477-61.534 140.465" stroke="#3D4B67" stroke-width="19" stroke-linecap="round" stroke-linejoin="round"/><path d="M242.867 817.83l148.295-27.261 104.191 9.087s160.838-101.325 163.634-102.722M633.068 650.808L440.77 731.871l-138.459-6.985-329.372-139.761" stroke="#3D4B67" stroke-width="12" stroke-linecap="round" stroke-linejoin="round"/><path d="M-17.262 652.206l124.466 73.372 89.506 171.917M253.358 571.143l-22.38 125.791-52.441 107.618M273.634 758.426L-17.968 613.77M42.169 689.937l-65.729 92.251M80.63 710.904l-116.784 188.68M130.328 771.371l-147.59 194.601" stroke="#3D4B67" stroke-width="8" stroke-linecap="round" stroke-linejoin="round"/><path d="M-13.069 891.895l209.779 28.657 107.691 107.618" stroke="#3D4B67" stroke-width="16" stroke-linecap="round" stroke-linejoin="round"/><path d="M534.546 545.779l-2.488 95.289 82.093 89.496M496.404 554.892l-4.976 155.781" stroke="#3D4B67" stroke-width="8" stroke-linecap="round" stroke-linejoin="round"/><path d="M600.043 610.412l-174.958 75.397L323.1 670.904M347.147 598.813l94.841 5.793M337.195 636.095l94.841 5.806M198.723 917.002l227.195-3.32 108.628 61.313 46.427 9.945M903.303 906.108l23.944-76.039M875.947 901.84l-45.31 152.94M957.168 970.189l-6.836 1.704-88.915-14.52M939.213 1021.45l-88.056-26.487M812.682 886.46l-51.3 179.43M710.928 469.497l36.769 63.235M882.783 398.585c-1.705 0-91.481 115.346-91.481 115.346M243.252 1047.94l82.08-245.221M298.823 1073.58l112.86-344.336M653.562 128.227l2.039 135.557-30.6 152.872-113.207 120.267" stroke="#3D4B67" stroke-width="8" stroke-linecap="round" stroke-linejoin="round"/><path d="M459.776 546.1l22.444-247.661L436.319 82.37 401.653-31.784M840.191-70.515L738.207 212.827" stroke="#3D4B67" stroke-width="19" stroke-linecap="round" stroke-linejoin="round"/><path d="M356.779 284.161l118.297-13.239 159.107-162.061L674.98-11.394M708.633 181.234l-27.536 155.923-11.222 138.62" stroke="#3D4B67" stroke-width="8" stroke-linecap="round" stroke-linejoin="round"/><path d="M735.154 349.396l-261.091-8.151-124.428 19.365M344.531 402.392l126.467 4.075M346.57 492.079l118.31-4.075 160.121-71.348 49.979 57.083M774.925 254.607L482.22 265.822M942.509 183.093l-38.834 161.356M992.578 171.866l-21.456 183.823M788.199 243.355l55.186-202.202M683.957 150.424L726.883 38.09M783.082 89.15l99.124 124.586M898.558 191.269l6.13-82.716 48.03-120.51M942.509 172.891l64.381-203.227M-12.979 120.806l190.066 47.997 119.568-9.189L570.533 52.38M188.335 88.124l116.503 26.556M363.076 27.875l62.342 159.306M311.981 113.655l85.851 95.993M295.629 277.049l48.03 11.24M287.459 403.686l52.121-1.025M285.42 490.49l59.265 6.126M62.843-19.224l-8.978 155.076M124.403-7.69l-8.978 157.64M88.492 519.058l-20.52 110.219M157.747 572.886l-8.58 226.77 81.811 23.057" stroke="#3D4B67" stroke-width="8" stroke-linecap="round" stroke-linejoin="round"/><path d="M537.367-28.195l53.865 94.84L824.647 292.21l110.295 97.404L1104.23 552.38" stroke="#3D4B67" stroke-width="34" stroke-linecap="round" stroke-linejoin="round"/><path d="M159.03 1063.75s12.825-126.883 32.063-161.487C210.33 867.659 307.8 715.146 328.32 658.755c20.52-56.392 14.108-174.301 14.108-242.227 0-67.926-5.13-147.387 50.017-202.497 55.148-55.109 194.94-155.076 194.94-155.076M1070.89 643.375L924.682 1062.47M1095.25 965.063l-333.445-102.53-124.403-203.778-32.062-48.702 1.282-108.938 128.25-44.857 355.248-152.513" stroke="#3D4B67" stroke-width="34" stroke-linecap="round" stroke-linejoin="round"/><path d="M723.33 799.733L600.248 974.956l-64.163 91.354M767.23 1065.59l-176.985-74.331" stroke="#3D4B67" stroke-width="34" stroke-linecap="round" stroke-linejoin="round"/><path d="M-41.04 442.16s105.165 52.546 133.38 67.926c28.215 15.379 55.147 78.179 156.465 61.518C350.122 554.943 648.945 537 648.945 537s37.192-135.852 98.752-207.623c61.56-71.771 188.528-153.795 188.528-153.795l175.705-23.069M648.945 537s25.65 112.783 15.39 135.852c-10.26 23.069-38.475 44.857-65.407 85.869-26.933 41.012-3.848 84.587-91.058 112.783-87.21 28.195-29.497 184.556-29.497 184.556" stroke="#3D4B67" stroke-width="23" stroke-linejoin="round"/><path d="M648.945 537s25.65 112.783 15.39 135.852c-10.26 23.069-38.475 44.857-65.407 85.869-26.933 41.012-3.848 84.587-91.058 112.783-87.21 28.195-29.497 184.556-29.497 184.556M-41.04 442.16s105.165 52.546 133.38 67.926c28.215 15.379 55.147 78.179 156.465 61.518C350.122 554.943 648.945 537 648.945 537s37.192-135.852 98.752-207.623c61.56-71.771 188.528-153.795 188.528-153.795l175.705-23.069" stroke="#293F64" stroke-opacity=".96" stroke-width="10" stroke-linejoin="round"/><path d="M432.202 1045.8l101.318-75.611 115.425-147.387 70.537-79.461 197.505-140.978 116.703-80.742" stroke="#3D4B67" stroke-width="23" stroke-linejoin="round"/><path d="M432.202 1045.8l101.318-75.611 115.425-147.387 70.537-79.461 197.505-140.978 116.703-80.742" stroke="#606A98" stroke-width="14" stroke-linejoin="round"/><path d="M537.367-28.195l53.865 94.84L824.647 292.21l110.295 97.404L1104.23 552.38" stroke="#2C3347" stroke-width="21" stroke-linecap="round" stroke-linejoin="round"/><path d="M159.03 1063.75s12.825-126.883 32.063-161.487C210.33 867.659 307.8 715.146 328.32 658.755c20.52-56.392 14.108-174.301 14.108-242.227 0-67.926-5.13-147.387 50.017-202.497 55.148-55.109 194.94-155.076 194.94-155.076M1070.89 643.375L924.682 1062.47M1095.25 965.063l-333.445-102.53-124.403-203.778-32.062-48.702 1.282-108.938 128.25-44.857 355.248-152.513" stroke="#2C3347" stroke-width="21" stroke-linecap="round" stroke-linejoin="round"/><path d="M723.33 799.733L600.248 974.956l-64.163 91.354M765.28 1064.75l-173.073-72.633" stroke="#2C3347" stroke-width="21" stroke-linecap="round" stroke-linejoin="round"/><path d="M765.28 1064.75l-173.073-72.633" stroke="#48496F" stroke-width="19" stroke-linecap="round" stroke-linejoin="round"/><path d="M180.832-16.66s6.413 169.174-8.977 217.875c-15.39 48.702-79.515 164.048-50.018 244.79 29.498 80.742 143.64 117.91 157.748 56.392 14.107-61.518-2.565-165.33 5.13-206.342s20.52-214.03 37.192-237.1C338.58 35.885 371.925 3.845 436.05-8.97M720.765-23.07c3.847 0 166.725-8.97 224.437 56.392 57.708 65.363 47.453 96.122 58.998 124.318 11.54 28.195 35.91 51.265 64.12 65.362" stroke="#3D4B67" stroke-width="23" stroke-linejoin="round"/><path d="M180.832-16.66s6.413 169.174-8.977 217.875c-15.39 48.702-79.515 164.048-50.018 244.79 29.498 80.742 143.64 117.91 157.748 56.392 14.107-61.518-2.565-165.33 5.13-206.342s20.52-214.03 37.192-237.1C338.58 35.885 371.925 3.845 436.05-8.97M720.765-23.07c3.847 0 166.725-8.97 224.437 56.392 57.708 65.363 47.453 96.122 58.998 124.318 11.54 28.195 35.91 51.265 64.12 65.362" stroke="#606A98" stroke-width="14" stroke-linejoin="round"/><path d="M537.367-28.195l53.865 94.84L824.647 292.21l110.295 97.404L1104.23 552.38" stroke="#48496F" stroke-width="19" stroke-linecap="round" stroke-linejoin="round"/><path d="M159.03 1063.75s12.825-126.883 32.063-161.487C210.33 867.659 307.8 715.146 328.32 658.755c20.52-56.392 14.108-174.301 14.108-242.227 0-67.926-5.13-147.387 50.017-202.497 55.148-55.109 194.94-155.076 194.94-155.076M1070.89 643.375L924.682 1062.47M1095.25 965.063l-333.445-102.53-124.403-203.778-32.062-48.702 1.282-108.938 128.25-44.857 355.248-152.513" stroke="#48496F" stroke-width="19" stroke-linecap="round" stroke-linejoin="round"/><path d="M723.33 799.733L600.248 974.956l-64.163 91.354" stroke="#48496F" stroke-width="19" stroke-linecap="round" stroke-linejoin="round"/><path d="M1026 0H0v1074h1026V0z" fill="url(#akpaint0_radial_1189_36808)"/><path opacity=".2" d="M956.745 0H0v949.683h956.745V0z" fill="#151618"/><path style="mix-blend-mode:multiply" opacity=".28" d="M435.845 547.471c0 3.281-11.145 5.934-24.906 5.934-13.762 0-24.907-2.653-24.907-5.934s11.158-5.934 24.919-5.934c13.762 0 24.894 2.666 24.894 5.934z" fill="url(#akpaint1_radial_1189_36808)"/><path d="M500.303 987.747a11.524 11.524 0 01-.154-.91c.026.308.09.602.154.91zM501.291 990.618l-.077-.167.077.167zM500.611 988.926z" fill="#B5B5B5"/><g filter="url(#akfilter0_d_1189_36808)"><path d="M559 639.694c0 13.085-20.909 40.925-23 40.925-2.091 0-23-27.84-23-40.925C513 626.608 523.297 616 536 616s23 10.608 23 23.694z" fill="#614"/><ellipse cx="536.46" cy="639.055" rx="17.206" ry="17.312" fill="#EFDCE8"/><rect x="523.992" y="623.041" width="24.088" height="30.73" rx="4" fill="#EFDCE8"/><mask id="aka" style="mask-type:alpha" maskUnits="userSpaceOnUse" x="515" y="618" width="42" height="42"><circle cx="535.988" cy="638.998" r="20.809" fill="#fff"/></mask><g mask="url(#aka)" fill="#EFDCE8"><path d="M510.071 610.729h49.472v49.472h-49.472z"/><path d="M494.438 618.42h87.158v62.14h-87.158z"/></g></g><path fill-rule="evenodd" clip-rule="evenodd" d="M543.609 633.847c0 3.8-3.113 6.848-7 6.848-3.885 0-7-3.048-7-6.848 0-3.801 3.115-6.847 7-6.847 3.887 0 7 3.046 7 6.847zm-7.109 18.355c-5.693 0-10.5-.905-10.5-4.398 0-3.494 4.837-4.367 10.5-4.367 5.694 0 10.5.905 10.5 4.398 0 3.494-4.837 4.367-10.5 4.367z" fill="url(#akpaint2_linear_1189_36808)"/><g filter="url(#akfilter1_d_1189_36808)"><path d="M877 695.694c0 13.085-20.909 40.925-23 40.925-2.091 0-23-27.84-23-40.925C831 682.608 841.297 672 854 672s23 10.608 23 23.694z" fill="#614"/><ellipse cx="854.46" cy="695.055" rx="17.206" ry="17.312" fill="#EFDCE8"/><rect x="841.992" y="679.041" width="24.088" height="30.73" rx="4" fill="#EFDCE8"/><mask id="akb" style="mask-type:alpha" maskUnits="userSpaceOnUse" x="833" y="674" width="42" height="42"><circle cx="853.988" cy="694.998" r="20.809" fill="#fff"/></mask><g mask="url(#akb)" fill="#EFDCE8"><path d="M828.071 666.729h49.472v49.472h-49.472z"/><path d="M812.438 674.42h87.158v62.14h-87.158z"/></g></g><path fill-rule="evenodd" clip-rule="evenodd" d="M861.609 689.847c0 3.8-3.113 6.848-7 6.848-3.885 0-7-3.048-7-6.848 0-3.801 3.115-6.847 7-6.847 3.887 0 7 3.046 7 6.847zm-7.109 18.355c-5.693 0-10.5-.905-10.5-4.398 0-3.494 4.837-4.367 10.5-4.367 5.694 0 10.5.905 10.5 4.398 0 3.494-4.837 4.367-10.5 4.367z" fill="url(#akpaint3_linear_1189_36808)"/><g filter="url(#akfilter2_d_1189_36808)"><path d="M469 469.176c0 22.189-35.455 69.395-39 69.395-3.545 0-39-47.206-39-69.395C391 446.987 408.461 429 430 429s39 17.987 39 40.176z" fill="#614"/><ellipse cx="430.78" cy="468.094" rx="29.175" ry="29.356" fill="#EFDCE8"/><rect x="409.639" y="440.938" width="40.845" height="52.107" rx="4" fill="#EFDCE8"/><mask id="akc" style="mask-type:alpha" maskUnits="userSpaceOnUse" x="394" y="432" width="72" height="72"><circle cx="429.979" cy="467.998" r="35.286" fill="#fff"/></mask><g mask="url(#akc)" fill="#EFDCE8"><path d="M386.034 420.062h83.887v83.887h-83.887z"/><path d="M359.526 433.104h147.789v105.368H359.526z"/></g></g><path fill-rule="evenodd" clip-rule="evenodd" d="M442.903 459.262c0 6.444-5.28 11.612-11.87 11.612-6.587 0-11.869-5.168-11.869-11.612 0-6.445 5.282-11.61 11.869-11.61 6.59 0 11.87 5.165 11.87 11.61zm-12.055 31.124c-9.654 0-17.805-1.535-17.805-7.457 0-5.925 8.202-7.405 17.805-7.405 9.656 0 17.804 1.535 17.804 7.457 0 5.924-8.202 7.405-17.804 7.405z" fill="url(#akpaint4_linear_1189_36808)"/><g filter="url(#akfilter3_d_1189_36808)"><path d="M500 94.694c0 13.085-20.909 40.925-23 40.925-2.091 0-23-27.84-23-40.925C454 81.608 464.297 71 477 71s23 10.608 23 23.694z" fill="#614"/><ellipse cx="477.46" cy="94.055" rx="17.206" ry="17.312" fill="#EFDCE8"/><rect x="464.992" y="78.041" width="24.088" height="30.73" rx="4" fill="#EFDCE8"/><mask id="akd" style="mask-type:alpha" maskUnits="userSpaceOnUse" x="456" y="73" width="42" height="42"><circle cx="476.988" cy="93.999" r="20.809" fill="#fff"/></mask><g mask="url(#akd)" fill="#EFDCE8"><path d="M451.071 65.729h49.472v49.472h-49.472z"/><path d="M435.438 73.42h87.158v62.14h-87.158z"/></g></g><path fill-rule="evenodd" clip-rule="evenodd" d="M484.609 88.847c0 3.8-3.113 6.848-7 6.848-3.885 0-7-3.048-7-6.848s3.115-6.847 7-6.847c3.887 0 7 3.046 7 6.847zm-7.109 18.355c-5.693 0-10.5-.905-10.5-4.398 0-3.494 4.837-4.367 10.5-4.367 5.694 0 10.5.905 10.5 4.398 0 3.494-4.837 4.367-10.5 4.367z" fill="url(#akpaint5_linear_1189_36808)"/><g filter="url(#akfilter4_d_1189_36808)"><path d="M786 512.267C786 536.162 747.818 587 744 587c-3.818 0-42-50.838-42-74.733C702 488.371 720.804 469 744 469s42 19.371 42 43.267z" fill="#1F4AA0"/><ellipse cx="744.84" cy="511.101" rx="31.419" ry="31.614" fill="#fff"/><rect x="722.073" y="481.857" width="43.987" height="56.115" rx="4" fill="#fff"/><mask id="ake" style="mask-type:alpha" maskUnits="userSpaceOnUse" x="705" y="472" width="77" height="77"><circle cx="743.978" cy="510.998" r="38" fill="#fff"/></mask><g mask="url(#ake)"><path fill="#fff" d="M696.652 459.375h90.34v90.34h-90.34z"/><path fill="#CBD8F2" d="M665.158 464.577h250.526v191.579H665.158z"/></g></g><path fill-rule="evenodd" clip-rule="evenodd" d="M756.982 500.49c0 6.94-5.686 12.505-12.782 12.505-7.095 0-12.783-5.565-12.783-12.505s5.688-12.503 12.783-12.503c7.096 0 12.782 5.563 12.782 12.503zM744 534.009c-10.396 0-19.174-1.653-19.174-8.031 0-6.38 8.833-7.975 19.174-7.975 10.398 0 19.174 1.653 19.174 8.031 0 6.38-8.833 7.975-19.174 7.975z" fill="url(#akpaint6_linear_1189_36808)"/><g filter="url(#akfilter5_d_1189_36808)"><path d="M378 694.694c0 13.085-20.909 40.925-23 40.925-2.091 0-23-27.84-23-40.925C332 681.608 342.297 671 355 671s23 10.608 23 23.694z" fill="#1F4AA0"/><ellipse cx="355.46" cy="694.055" rx="17.206" ry="17.312" fill="#fff"/><rect x="342.992" y="678.041" width="24.088" height="30.73" rx="4" fill="#fff"/><mask id="akf" style="mask-type:alpha" maskUnits="userSpaceOnUse" x="334" y="673" width="42" height="42"><circle cx="354.988" cy="693.998" r="20.809" fill="#fff"/></mask><g mask="url(#akf)"><path fill="#fff" d="M329.071 665.729h49.472v49.472h-49.472z"/><path fill="#CBD8F2" d="M311.824 668.578h137.193V773.49H311.824z"/></g></g><path fill-rule="evenodd" clip-rule="evenodd" d="M362.109 688.245c0 3.8-3.113 6.848-7 6.848-3.885 0-7-3.048-7-6.848 0-3.801 3.115-6.847 7-6.847 3.887 0 7 3.046 7 6.847zM355 706.6c-5.693 0-10.5-.905-10.5-4.398 0-3.494 4.837-4.367 10.5-4.367 5.694 0 10.5.905 10.5 4.398 0 3.494-4.837 4.367-10.5 4.367z" fill="url(#akpaint7_linear_1189_36808)"/><circle cx="620.5" cy="286.5" r="34" fill="#69653F" stroke="#69653F"/><path d="M640.865 280.428l-1.443 1.723a1.632 1.632 0 01-2.221.398l-.977-.707-5.907-4.772-8.882-6.627a1.067 1.067 0 00-1.201-.247 1.067 1.067 0 00-.354.247l-8.882 6.627-6.44 4.86-.666.442a1.697 1.697 0 01-2.221-.221l-1.554-1.988a1.67 1.67 0 01.222-2.209l19.319-14.58a1.067 1.067 0 011.201-.247c.133.057.254.142.354.247l19.208 14.69a1.623 1.623 0 01.754 1.083 1.613 1.613 0 01-.31 1.281z" fill="#fff" stroke="#69653F" stroke-width=".3" stroke-miterlimit="10"/><path d="M636.295 281.915v20.323a2.2 2.2 0 01-.651 1.562 2.226 2.226 0 01-1.57.647H606.76a2.228 2.228 0 01-1.57-.647 2.204 2.204 0 01-.65-1.562v-20.323l6.44-4.86 8.882-6.627a1.065 1.065 0 011.555 0l8.882 6.627 5.996 4.86z" fill="#fff" stroke="#69653F" stroke-width=".3" stroke-miterlimit="10"/><path d="M627.438 297.25c0 3.932-2.975.508-6.906.508-3.93 0-6.928 3.424-6.928-.508a6.597 6.597 0 011.929-4.986 6.69 6.69 0 014.999-1.95 6.661 6.661 0 016.471 4.247c.331.856.479 1.772.435 2.689zM620.539 287.457c1.361 0 2.465-1.543 2.465-3.446 0-1.904-1.104-3.447-2.465-3.447-1.361 0-2.465 1.543-2.465 3.447 0 1.903 1.104 3.446 2.465 3.446zM630.691 287.774c.675-1.781.189-3.612-1.085-4.09-1.274-.477-2.853.579-3.528 2.36-.675 1.781-.189 3.612 1.085 4.09 1.274.477 2.853-.579 3.528-2.36zM613.889 289.759c1.274-.477 1.759-2.308 1.085-4.089-.675-1.781-2.255-2.837-3.529-2.36-1.273.478-1.759 2.309-1.084 4.089.674 1.781 2.254 2.838 3.528 2.36z" fill="#69653F" stroke="#69653F" stroke-width=".3" stroke-miterlimit="10"/><circle cx="419" cy="256" r="20.5" fill="#D9753D" stroke="#D9753D"/><path d="M429.495 265.791h-11.099a4.555 4.555 0 010-3.934h11.099a4.31 4.31 0 010 3.934zM419.175 261.842c.291-.911.594-1.88.544-2.838 0-.951-.578-3.625-.62-3.846a5.698 5.698 0 01-2.487-.687 5.909 5.909 0 01-1.962-1.722 6.818 6.818 0 01-.748-4.419 5.109 5.109 0 011.219-3.203 4.806 4.806 0 012.93-1.637c3.849-.641 4.619 2.342 4.619 2.342a25.05 25.05 0 013.87-1.348 10.568 10.568 0 014.277.332c4.983 1.436 5.069 6.364 2.396 8.574a22.254 22.254 0 01-4.277 2.056 23.66 23.66 0 00-.278 2.519c-.105 1.34-.263 2.566.025 3.877h-9.508z" fill="#fff" stroke="#D9753D" stroke-width=".3" stroke-miterlimit="10"/><g clip-path="url(#akclip1_1189_36808)" fill="#fff" stroke="#D9753D" stroke-width=".3" stroke-linejoin="round"><path d="M413.14 248.426a11.051 11.051 0 011.451 2.308 23.69 23.69 0 011.346 4.646 2.304 2.304 0 01-1.608 2.429l.613 3.024.314 1.542 1.604 7.932-1.302.289-1.749-8.689-.315-1.542-.454-2.266a2.296 2.296 0 01-1.499-.385 2.276 2.276 0 01-.923-1.229 20.386 20.386 0 01-.508-4.812c.07-.899.192-1.793.366-2.678l1.037 5.129.677-.136c-.842-2.211-.497-5.93-.497-5.93a12.827 12.827 0 011.839 5.656l.67-.131-1.062-5.157z"/><path d="M413.463 260.343l.314 1.542-1.563-.527-1.117 1.459a20.128 20.128 0 01-3.367-.991c-1.528-.658-5.062-2.91-5.733-5.322l11.466 3.839zM423.293 263.644l-.431 1.29-7.606-2.559-.314-1.542 8.351 2.811z"/></g><circle cx="663.5" cy="697.5" r="34" fill="#D9753D" stroke="#D9753D"/><path d="M680.742 713.585h-18.234a7.473 7.473 0 010-6.463h18.234c.511.995.778 2.105.778 3.231a7.083 7.083 0 01-.778 3.232zM663.788 707.098c.478-1.497.976-3.089.893-4.664 0-1.561-.949-5.954-1.019-6.317a9.382 9.382 0 01-4.085-1.129 9.709 9.709 0 01-3.223-2.828 11.202 11.202 0 01-1.229-7.262 8.393 8.393 0 012.003-5.261 7.905 7.905 0 014.812-2.69c6.324-1.053 7.589 3.849 7.589 3.849a41.138 41.138 0 016.359-2.215 17.36 17.36 0 017.026.544c8.186 2.36 8.327 10.457 3.935 14.088a36.637 36.637 0 01-7.026 3.376 39.088 39.088 0 00-.457 4.139c-.171 2.202-.432 4.216.042 6.37h-15.62z" fill="#fff" stroke="#D9753D" stroke-width=".3" stroke-miterlimit="10"/><g clip-path="url(#akclip2_1189_36808)" fill="#fff" stroke="#D9753D" stroke-width=".3" stroke-linejoin="round"><path d="M653.872 685.057a18.14 18.14 0 012.385 3.792 38.968 38.968 0 012.211 7.632 3.794 3.794 0 01-.611 2.464 3.882 3.882 0 01-2.031 1.526l1.007 4.968.516 2.534 2.636 13.031-2.14.476-2.874-14.275-.516-2.534-.747-3.723a3.776 3.776 0 01-2.462-.632 3.742 3.742 0 01-1.516-2.019 33.42 33.42 0 01-.835-7.905c.115-1.477.316-2.946.601-4.4l1.704 8.426 1.113-.224c-1.384-3.632-.818-9.742-.818-9.742a21.061 21.061 0 013.021 9.292l1.101-.214-1.745-8.473z"/><path d="M654.403 704.636l.516 2.533-2.567-.867-1.835 2.398a33.213 33.213 0 01-5.533-1.628c-2.51-1.081-8.316-4.782-9.418-8.744l18.837 6.308zM670.553 710.058l-.708 2.12-12.496-4.205-.516-2.533 13.72 4.618z"/></g><circle cx="762" cy="356" r="20.5" fill="#CB426B" stroke="#CB426B"/><path d="M769.542 349.267a2.353 2.353 0 10-.002-4.706 2.353 2.353 0 00.002 4.706zM773.154 352.466h-.404c.778 4.93-.156 7.063-.214 7.269l.493 1.523-.058.133a2.31 2.31 0 01-.894.962 2.328 2.328 0 01-1.016.286s-2.135.056-2.842 0a2.359 2.359 0 01-.741-.216 3.374 3.374 0 01-.51-.273 4.09 4.09 0 01-.856-.762 1.086 1.086 0 01-.102-.12l.449-1.533s-.833-1.803-.215-7.219h-.377s0-.775.027-1.663c.028-.632.626-.965.843-1.098a6.986 6.986 0 011.108-.445s1.557 2.255 3.335 0c.241.069 1.893.572 1.961 1.556.013.449.013 1.6.013 1.6z" fill="#fff" stroke="#CB426B" stroke-width=".3" stroke-miterlimit="10"/><path d="M767.739 351.555a29.03 29.03 0 01-.54 5.266 24.538 24.538 0 01-.772 3.05M771.262 351.555a28.59 28.59 0 00.537 5.266c.195 1.031.454 2.05.775 3.05" stroke="#CB426B" stroke-width=".3" stroke-miterlimit="10"/><path d="M772.137 362.331c.03 3.419-2.532 7.77-2.532 7.77s-2.669-4.464-2.675-7.983c.16.112.331.21.51.292.247.12.514.199.788.233.707.057 2.784 0 2.784 0 .275-.003.547-.057.802-.159.058-.037.241-.117.323-.153z" fill="#fff" stroke="#CB426B" stroke-width=".3" stroke-miterlimit="10"/><path d="M769.577 370.015v-7.391" stroke="#CB426B" stroke-width=".3" stroke-miterlimit="10"/><path d="M763.069 353.732a1.816 1.816 0 100-3.632 1.816 1.816 0 000 3.632zM765.868 356.203h-.312c.601 3.806-.121 5.452-.165 5.611l.38 1.176-.045.103a1.775 1.775 0 01-.69.742c-.05.029-.107.057-.165.083a1.803 1.803 0 01-.619.138s-1.648.044-2.194 0a1.785 1.785 0 01-.572-.167 2.566 2.566 0 01-.394-.21 3.195 3.195 0 01-.661-.588.93.93 0 01-.079-.093l.347-1.184s-.643-1.392-.166-5.573h-.291s0-.598.021-1.284c.021-.488.483-.745.651-.847a5.36 5.36 0 01.855-.344s1.202 1.741 2.575 0c.186.054 1.461.441 1.514 1.202.01.346.01 1.235.01 1.235z" fill="#fff" stroke="#CB426B" stroke-width=".3" stroke-miterlimit="10"/><path d="M761.694 355.505a22.36 22.36 0 01-.417 4.066 18.97 18.97 0 01-.596 2.355M764.416 355.505c.008.919.074 1.835.197 2.746.073.539.154.991.217 1.32.151.796.35 1.582.599 2.355" stroke="#CB426B" stroke-width=".3" stroke-miterlimit="10"/><path d="M765.083 363.817c.023 2.64-1.955 5.999-1.955 5.999s-2.06-3.446-2.065-6.163c.124.086.256.162.393.226.192.092.397.153.609.18.546.043 2.149 0 2.149 0a1.72 1.72 0 00.619-.124c.045-.028.187-.09.25-.118z" fill="#fff" stroke="#CB426B" stroke-width=".3" stroke-miterlimit="10"/><path d="M763.105 369.749v-5.706" stroke="#CB426B" stroke-width=".3" stroke-miterlimit="10"/><path d="M755.212 348.287a2.444 2.444 0 10-.001-4.887 2.444 2.444 0 00.001 4.887zM760.372 351.445v5.4a2.37 2.37 0 01-.582 1.559 2.42 2.42 0 01-1.468.807 18.453 18.453 0 01-2.991 11.074s-3.28-3.666-3.188-11.078a2.415 2.415 0 01-1.45-.812 2.374 2.374 0 01-.571-1.55v-5.4c0-.799.321-1.566.892-2.132a3.057 3.057 0 012.153-.883h4.178a3.053 3.053 0 012.143.888c.567.565.885 1.33.884 2.127z" fill="#fff" stroke="#CB426B" stroke-width=".3" stroke-miterlimit="10"/><path d="M752.139 359.204v-7.745M758.323 359.207v-7.748M755.333 370.281v-10.625" stroke="#CB426B" stroke-width=".3" stroke-miterlimit="10"/><circle cx="275" cy="566" r="20.5" fill="#CB426B" stroke="#CB426B"/><path d="M282.542 559.267a2.353 2.353 0 10-.002-4.706 2.353 2.353 0 00.002 4.706zM286.154 562.466h-.404c.778 4.93-.156 7.063-.214 7.269l.493 1.523-.058.133a2.31 2.31 0 01-.894.962 2.328 2.328 0 01-1.016.286s-2.135.056-2.842 0a2.359 2.359 0 01-.741-.216 3.374 3.374 0 01-.51-.273 4.09 4.09 0 01-.856-.762 1.086 1.086 0 01-.102-.12l.449-1.533s-.833-1.803-.215-7.219h-.377s0-.775.027-1.663c.028-.632.626-.965.843-1.098a6.986 6.986 0 011.108-.445s1.557 2.255 3.335 0c.241.069 1.893.572 1.961 1.556.013.449.013 1.6.013 1.6z" fill="#fff" stroke="#CB426B" stroke-width=".3" stroke-miterlimit="10"/><path d="M280.739 561.555a29.03 29.03 0 01-.54 5.266 24.538 24.538 0 01-.772 3.05M284.262 561.555a28.59 28.59 0 00.537 5.266c.195 1.031.454 2.05.775 3.05" stroke="#CB426B" stroke-width=".3" stroke-miterlimit="10"/><path d="M285.137 572.331c.03 3.419-2.532 7.77-2.532 7.77s-2.669-4.464-2.675-7.983c.16.112.331.21.51.292.247.12.514.199.788.233.707.057 2.784 0 2.784 0 .275-.003.547-.057.802-.159.058-.037.241-.117.323-.153z" fill="#fff" stroke="#CB426B" stroke-width=".3" stroke-miterlimit="10"/><path d="M282.577 580.015v-7.391" stroke="#CB426B" stroke-width=".3" stroke-miterlimit="10"/><path d="M276.069 563.732a1.816 1.816 0 100-3.632 1.816 1.816 0 000 3.632zM278.868 566.203h-.312c.601 3.806-.121 5.452-.165 5.611l.38 1.176-.045.103a1.775 1.775 0 01-.69.742c-.05.029-.107.057-.165.083a1.803 1.803 0 01-.619.138s-1.648.044-2.194 0a1.785 1.785 0 01-.572-.167 2.566 2.566 0 01-.394-.21 3.195 3.195 0 01-.661-.588.93.93 0 01-.079-.093l.347-1.184s-.643-1.392-.166-5.573h-.291s0-.598.021-1.284c.021-.488.483-.745.651-.847a5.36 5.36 0 01.855-.344s1.202 1.741 2.575 0c.186.054 1.461.441 1.514 1.202.01.346.01 1.235.01 1.235z" fill="#fff" stroke="#CB426B" stroke-width=".3" stroke-miterlimit="10"/><path d="M274.694 565.505a22.36 22.36 0 01-.417 4.066 18.97 18.97 0 01-.596 2.355M277.416 565.505c.008.919.074 1.835.197 2.746.073.539.154.991.217 1.32.151.796.35 1.582.599 2.355" stroke="#CB426B" stroke-width=".3" stroke-miterlimit="10"/><path d="M278.083 573.817c.023 2.64-1.955 5.999-1.955 5.999s-2.06-3.446-2.065-6.163c.124.086.256.162.393.226.192.092.397.153.609.18.546.043 2.149 0 2.149 0a1.72 1.72 0 00.619-.124c.045-.028.187-.09.25-.118z" fill="#fff" stroke="#CB426B" stroke-width=".3" stroke-miterlimit="10"/><path d="M276.105 579.749v-5.706" stroke="#CB426B" stroke-width=".3" stroke-miterlimit="10"/><path d="M268.212 558.287a2.444 2.444 0 10-.001-4.887 2.444 2.444 0 00.001 4.887zM273.372 561.445v5.4a2.37 2.37 0 01-.582 1.559 2.42 2.42 0 01-1.468.807 18.453 18.453 0 01-2.991 11.074s-3.28-3.666-3.188-11.078a2.415 2.415 0 01-1.45-.812 2.374 2.374 0 01-.571-1.55v-5.4c0-.799.321-1.566.892-2.132a3.057 3.057 0 012.153-.883h4.178a3.053 3.053 0 012.143.888c.567.565.885 1.33.884 2.127z" fill="#fff" stroke="#CB426B" stroke-width=".3" stroke-miterlimit="10"/><path d="M265.139 569.204v-7.745M271.323 569.207v-7.748M268.333 580.281v-10.625" stroke="#CB426B" stroke-width=".3" stroke-miterlimit="10"/><circle cx="200" cy="234" r="20.5" fill="#222B48" stroke="#222B48"/><path d="M194.584 218.04l-3.824 30.318h19.047l-4.433-30.318h-10.79z" fill="#fff" stroke="#222B48" stroke-width=".3" stroke-miterlimit="10"/><path d="M200.224 230.737c1.95 0 3.532-1.602 3.532-3.577 0-1.976-1.582-3.577-3.532-3.577-1.951 0-3.532 1.601-3.532 3.577 0 1.975 1.581 3.577 3.532 3.577z" fill="#fff" stroke="#222B48" stroke-width=".3" stroke-miterlimit="10"/><path d="M200.239 229.738c1.405 0 2.545-1.154 2.545-2.578 0-1.423-1.14-2.577-2.545-2.577-1.406 0-2.546 1.154-2.546 2.577 0 1.424 1.14 2.578 2.546 2.578z" fill="#222B48" stroke="#fff" stroke-width=".3" stroke-miterlimit="10"/><path d="M202.35 221.627h-4.64l-.962-1.752h6.552l-.95 1.752z" stroke="#222B48" stroke-width=".3" stroke-miterlimit="10"/><path d="M200.227 245.686c.585 0 1.059-.481 1.059-1.073 0-.593-.474-1.073-1.059-1.073s-1.06.48-1.06 1.073c0 .592.475 1.073 1.06 1.073z" fill="#222B48" stroke="#222B48" stroke-width=".3" stroke-miterlimit="10"/><path d="M200.233 242.673c2.845 0 5.152-2.336 5.152-5.217 0-2.882-2.307-5.218-5.152-5.218s-5.151 2.336-5.151 5.218c0 2.881 2.306 5.217 5.151 5.217z" fill="#fff" stroke="#222B48" stroke-width=".3" stroke-miterlimit="10"/><path d="M200.22 241.217c2.051 0 3.715-1.684 3.715-3.762 0-2.077-1.664-3.762-3.715-3.762s-3.714 1.685-3.714 3.762c0 2.078 1.663 3.762 3.714 3.762z" fill="#222B48" stroke="#fff" stroke-width=".3" stroke-miterlimit="10"/><circle cx="954" cy="553" r="20.5" fill="#2C3347" stroke="#2C3347"/><path d="M954 565.599c6.959 0 12.6-5.641 12.6-12.6 0-6.958-5.641-12.6-12.6-12.6s-12.6 5.642-12.6 12.6c0 6.959 5.641 12.6 12.6 12.6z" fill="#fff" stroke="#2C3347" stroke-width=".3" stroke-miterlimit="10"/><path d="M954.02 553.266a36.236 36.236 0 003.37-4.949 42.53 42.53 0 002.815-6.161" fill="#fff"/><path d="M954.02 553.266a36.236 36.236 0 003.37-4.949 42.53 42.53 0 002.815-6.161" stroke="#2C3347" stroke-width=".3" stroke-miterlimit="10"/><path d="M954.228 553.119a36.913 36.913 0 00-5.939-.793 43.047 43.047 0 00-6.764.23" fill="#fff"/><path d="M954.228 553.119a36.913 36.913 0 00-5.939-.793 43.047 43.047 0 00-6.764.23" stroke="#2C3347" stroke-width=".3" stroke-miterlimit="10"/><path d="M954.069 553.054a36.929 36.929 0 003.061 5.146 43.973 43.973 0 004.385 5.154" fill="#fff"/><path d="M954.069 553.054a36.929 36.929 0 003.061 5.146 43.973 43.973 0 004.385 5.154" stroke="#2C3347" stroke-width=".3" stroke-miterlimit="10"/><path d="M957.242 558.357a40.176 40.176 0 003.687-5.741 50.054 50.054 0 003.021-7.184" fill="#fff"/><path d="M957.242 558.357a40.176 40.176 0 003.687-5.741 50.054 50.054 0 003.021-7.184" stroke="#2C3347" stroke-width=".3" stroke-miterlimit="10"/><path d="M957.749 547.709a43.426 43.426 0 00-6.994-.888 50.626 50.626 0 00-7.977.34" fill="#fff"/><path d="M957.749 547.709a43.426 43.426 0 00-6.994-.888 50.626 50.626 0 00-7.977.34" stroke="#2C3347" stroke-width=".3" stroke-miterlimit="10"/><path d="M947.503 552.177a47.45 47.45 0 003.64 6.542 53.39 53.39 0 005.217 6.549" fill="#fff"/><path d="M947.503 552.177a47.45 47.45 0 003.64 6.542 53.39 53.39 0 005.217 6.549" stroke="#2C3347" stroke-width=".3" stroke-miterlimit="10"/><circle cx="592" cy="467" r="20.5" fill="#3F3D9E" stroke="#3F3D9E"/><path d="M604.6 461.136v13.066c0 .724-.273 1.418-.758 1.931-.485.512-1.144.8-1.831.801h-20.018c-.341 0-.678-.07-.992-.208a2.58 2.58 0 01-.842-.592 2.778 2.778 0 01-.562-.886 2.87 2.87 0 01-.197-1.046v-13.066c0-.725.273-1.42.759-1.932a2.528 2.528 0 011.834-.801h20.018c.687.002 1.346.29 1.831.802.485.513.758 1.207.758 1.931z" fill="#fff" stroke="#3F3D9E" stroke-width=".3" stroke-miterlimit="10"/><path d="M596.629 457.12v3.803h-9.28v-3.812c0-.273.103-.535.286-.728a.956.956 0 01.692-.302h7.328a.94.94 0 01.693.305 1.048 1.048 0 01.281.734v0z" stroke="#fff" stroke-width=".4" stroke-miterlimit="10"/><path d="M579.486 462.51l12.456 4.17 12.557-4.17" stroke="#3F3D9E" stroke-width=".3" stroke-miterlimit="10"/><path d="M593.227 465.381h-2.449a.489.489 0 00-.476.502v3.601a.49.49 0 00.476.502h2.449a.49.49 0 00.476-.502v-3.601a.489.489 0 00-.476-.502z" fill="#3F3D9E" stroke="#fff" stroke-width=".3" stroke-miterlimit="10"/><circle cx="167" cy="686" r="33.5" fill="#1C4188" stroke="#1C4188"/><path d="M183.993 693.661c-13.151 5.119-25.698 1.62-30.274 0a2.429 2.429 0 01-1.556-2.605l1.049-10.272 15.489 5.745 15.75-5.829 1.063 10.392a2.435 2.435 0 01-1.521 2.569z" fill="#fff" stroke="#1C4188" stroke-width=".3" stroke-miterlimit="10"/><path d="M168.691 668.322l24.6 9.11-8.85 3.281-15.75 5.83-15.489-5.745-1.451-.535a21.727 21.727 0 00-2.034 3.809 15.818 15.818 0 00-.705 5.118 3.42 3.42 0 011.732 2.992 3.39 3.39 0 01-1.563 2.866l1.176 7.745a1.017 1.017 0 01-.603 1.024 1.002 1.002 0 01-.411.088h-4.055a1.024 1.024 0 01-1.021-1.112l1.176-7.745a3.399 3.399 0 01-.983-4.762 3.432 3.432 0 011.532-1.258 20.65 20.65 0 01.894-5.836 26.837 26.837 0 012.014-4l-4.76-1.76 24.6-9.11" fill="#fff"/><path d="M168.691 668.322l24.6 9.11-8.85 3.281-15.75 5.83-15.489-5.745-1.451-.535a21.727 21.727 0 00-2.034 3.809 15.818 15.818 0 00-.705 5.118 3.42 3.42 0 011.732 2.992 3.39 3.39 0 01-1.563 2.866l1.176 7.745a1.017 1.017 0 01-.603 1.024 1.002 1.002 0 01-.411.088h-4.055a1.024 1.024 0 01-1.021-1.112l1.176-7.745a3.399 3.399 0 01-.983-4.762 3.425 3.425 0 011.532-1.258 20.65 20.65 0 01.894-5.836 26.837 26.837 0 012.014-4l-4.76-1.76 24.6-9.11" stroke="#1C4188" stroke-width=".3" stroke-miterlimit="10"/><g filter="url(#akfilter6_d_1189_36808)"><path d="M143 552.694c0 13.085-20.909 40.925-23 40.925-2.091 0-23-27.84-23-40.925C97 539.608 107.297 529 120 529s23 10.608 23 23.694z" fill="#1F4AA0"/><ellipse cx="120.46" cy="552.055" rx="17.206" ry="17.312" fill="#fff"/><rect x="107.992" y="536.041" width="24.088" height="30.73" rx="4" fill="#fff"/><mask id="akg" style="mask-type:alpha" maskUnits="userSpaceOnUse" x="99" y="531" width="42" height="42"><circle cx="119.988" cy="551.998" r="20.809" fill="#fff"/></mask><g mask="url(#akg)"><path fill="#fff" d="M94.071 523.729h49.472v49.472H94.071z"/><path fill="#CBD8F2" d="M76.825 526.578h137.193V631.49H76.825z"/></g></g><path fill-rule="evenodd" clip-rule="evenodd" d="M127.109 546.245c0 3.8-3.113 6.848-7 6.848-3.885 0-7-3.048-7-6.848 0-3.801 3.115-6.847 7-6.847 3.887 0 7 3.046 7 6.847zM120 564.6c-5.693 0-10.5-.905-10.5-4.398 0-3.494 4.837-4.367 10.5-4.367 5.694 0 10.5.905 10.5 4.398 0 3.494-4.837 4.367-10.5 4.367z" fill="url(#akpaint8_linear_1189_36808)"/><g filter="url(#akfilter7_d_1189_36808)"><path d="M937 367.694c0 13.085-20.909 40.925-23 40.925-2.091 0-23-27.84-23-40.925C891 354.608 901.297 344 914 344s23 10.608 23 23.694z" fill="#1F4AA0"/><ellipse cx="914.46" cy="367.055" rx="17.206" ry="17.312" fill="#fff"/><rect x="901.992" y="351.041" width="24.088" height="30.73" rx="4" fill="#fff"/><mask id="akh" style="mask-type:alpha" maskUnits="userSpaceOnUse" x="893" y="346" width="42" height="42"><circle cx="913.988" cy="366.998" r="20.809" fill="#fff"/></mask><g mask="url(#akh)"><path fill="#fff" d="M888.071 338.729h49.472v49.472h-49.472z"/><path fill="#CBD8F2" d="M870.824 341.578h137.193V446.49H870.824z"/></g></g><path fill-rule="evenodd" clip-rule="evenodd" d="M921.109 361.245c0 3.8-3.113 6.848-7 6.848-3.885 0-7-3.048-7-6.848 0-3.801 3.115-6.847 7-6.847 3.887 0 7 3.046 7 6.847zM914 379.6c-5.693 0-10.5-.905-10.5-4.398 0-3.494 4.837-4.367 10.5-4.367 5.694 0 10.5.905 10.5 4.398 0 3.494-4.837 4.367-10.5 4.367z" fill="url(#akpaint9_linear_1189_36808)"/></g><defs><linearGradient id="akpaint2_linear_1189_36808" x1="532.569" y1="623.844" x2="556.703" y2="634.206" gradientUnits="userSpaceOnUse"><stop stop-color="#A72A75"/><stop offset="1" stop-color="#4A0B31"/></linearGradient><linearGradient id="akpaint3_linear_1189_36808" x1="850.569" y1="679.844" x2="874.703" y2="690.206" gradientUnits="userSpaceOnUse"><stop stop-color="#A72A75"/><stop offset="1" stop-color="#4A0B31"/></linearGradient><linearGradient id="akpaint4_linear_1189_36808" x1="424.182" y1="442.3" x2="465.105" y2="459.871" gradientUnits="userSpaceOnUse"><stop stop-color="#A72A75"/><stop offset="1" stop-color="#4A0B31"/></linearGradient><linearGradient id="akpaint5_linear_1189_36808" x1="473.569" y1="78.844" x2="497.703" y2="89.206" gradientUnits="userSpaceOnUse"><stop stop-color="#A72A75"/><stop offset="1" stop-color="#4A0B31"/></linearGradient><linearGradient id="akpaint6_linear_1189_36808" x1="736.822" y1="482.223" x2="780.893" y2="501.146" gradientUnits="userSpaceOnUse"><stop stop-color="#616872"/><stop offset="1" stop-color="#191C20"/></linearGradient><linearGradient id="akpaint7_linear_1189_36808" x1="351.069" y1="678.242" x2="375.203" y2="688.604" gradientUnits="userSpaceOnUse"><stop stop-color="#616872"/><stop offset="1" stop-color="#191C20"/></linearGradient><linearGradient id="akpaint8_linear_1189_36808" x1="116.069" y1="536.242" x2="140.203" y2="546.604" gradientUnits="userSpaceOnUse"><stop stop-color="#616872"/><stop offset="1" stop-color="#191C20"/></linearGradient><linearGradient id="akpaint9_linear_1189_36808" x1="910.069" y1="351.242" x2="934.203" y2="361.604" gradientUnits="userSpaceOnUse"><stop stop-color="#616872"/><stop offset="1" stop-color="#191C20"/></linearGradient><filter id="akfilter0_d_1189_36808" x="490" y="597" width="92" height="110.619" filterUnits="userSpaceOnUse" color-interpolation-filters="sRGB"><feFlood flood-opacity="0" result="BackgroundImageFix"/><feColorMatrix in="SourceAlpha" values="0 0 0 0 0 0 0 0 0 0 0 0 0 0 0 0 0 0 127 0" result="hardAlpha"/><feOffset dy="4"/><feGaussianBlur stdDeviation="11.5"/><feComposite in2="hardAlpha" operator="out"/><feColorMatrix values="0 0 0 0 0.0916667 0 0 0 0 0.0916667 0 0 0 0 0.0916667 0 0 0 1 0"/><feBlend in2="BackgroundImageFix" result="effect1_dropShadow_1189_36808"/><feBlend in="SourceGraphic" in2="effect1_dropShadow_1189_36808" result="shape"/></filter><filter id="akfilter1_d_1189_36808" x="808" y="653" width="92" height="110.619" filterUnits="userSpaceOnUse" color-interpolation-filters="sRGB"><feFlood flood-opacity="0" result="BackgroundImageFix"/><feColorMatrix in="SourceAlpha" values="0 0 0 0 0 0 0 0 0 0 0 0 0 0 0 0 0 0 127 0" result="hardAlpha"/><feOffset dy="4"/><feGaussianBlur stdDeviation="11.5"/><feComposite in2="hardAlpha" operator="out"/><feColorMatrix values="0 0 0 0 0.0916667 0 0 0 0 0.0916667 0 0 0 0 0.0916667 0 0 0 1 0"/><feBlend in2="BackgroundImageFix" result="effect1_dropShadow_1189_36808"/><feBlend in="SourceGraphic" in2="effect1_dropShadow_1189_36808" result="shape"/></filter><filter id="akfilter2_d_1189_36808" x="368" y="410" width="124" height="155.571" filterUnits="userSpaceOnUse" color-interpolation-filters="sRGB"><feFlood flood-opacity="0" result="BackgroundImageFix"/><feColorMatrix in="SourceAlpha" values="0 0 0 0 0 0 0 0 0 0 0 0 0 0 0 0 0 0 127 0" result="hardAlpha"/><feOffset dy="4"/><feGaussianBlur stdDeviation="11.5"/><feComposite in2="hardAlpha" operator="out"/><feColorMatrix values="0 0 0 0 0.0916667 0 0 0 0 0.0916667 0 0 0 0 0.0916667 0 0 0 1 0"/><feBlend in2="BackgroundImageFix" result="effect1_dropShadow_1189_36808"/><feBlend in="SourceGraphic" in2="effect1_dropShadow_1189_36808" result="shape"/></filter><filter id="akfilter3_d_1189_36808" x="431" y="52" width="92" height="110.619" filterUnits="userSpaceOnUse" color-interpolation-filters="sRGB"><feFlood flood-opacity="0" result="BackgroundImageFix"/><feColorMatrix in="SourceAlpha" values="0 0 0 0 0 0 0 0 0 0 0 0 0 0 0 0 0 0 127 0" result="hardAlpha"/><feOffset dy="4"/><feGaussianBlur stdDeviation="11.5"/><feComposite in2="hardAlpha" operator="out"/><feColorMatrix values="0 0 0 0 0.0916667 0 0 0 0 0.0916667 0 0 0 0 0.0916667 0 0 0 1 0"/><feBlend in2="BackgroundImageFix" result="effect1_dropShadow_1189_36808"/><feBlend in="SourceGraphic" in2="effect1_dropShadow_1189_36808" result="shape"/></filter><filter id="akfilter4_d_1189_36808" x="679" y="450" width="130" height="164" filterUnits="userSpaceOnUse" color-interpolation-filters="sRGB"><feFlood flood-opacity="0" result="BackgroundImageFix"/><feColorMatrix in="SourceAlpha" values="0 0 0 0 0 0 0 0 0 0 0 0 0 0 0 0 0 0 127 0" result="hardAlpha"/><feOffset dy="4"/><feGaussianBlur stdDeviation="11.5"/><feComposite in2="hardAlpha" operator="out"/><feColorMatrix values="0 0 0 0 0.0916667 0 0 0 0 0.0916667 0 0 0 0 0.0916667 0 0 0 1 0"/><feBlend in2="BackgroundImageFix" result="effect1_dropShadow_1189_36808"/><feBlend in="SourceGraphic" in2="effect1_dropShadow_1189_36808" result="shape"/></filter><filter id="akfilter5_d_1189_36808" x="309" y="652" width="92" height="110.619" filterUnits="userSpaceOnUse" color-interpolation-filters="sRGB"><feFlood flood-opacity="0" result="BackgroundImageFix"/><feColorMatrix in="SourceAlpha" values="0 0 0 0 0 0 0 0 0 0 0 0 0 0 0 0 0 0 127 0" result="hardAlpha"/><feOffset dy="4"/><feGaussianBlur stdDeviation="11.5"/><feComposite in2="hardAlpha" operator="out"/><feColorMatrix values="0 0 0 0 0.0916667 0 0 0 0 0.0916667 0 0 0 0 0.0916667 0 0 0 1 0"/><feBlend in2="BackgroundImageFix" result="effect1_dropShadow_1189_36808"/><feBlend in="SourceGraphic" in2="effect1_dropShadow_1189_36808" result="shape"/></filter><filter id="akfilter6_d_1189_36808" x="74" y="510" width="92" height="110.619" filterUnits="userSpaceOnUse" color-interpolation-filters="sRGB"><feFlood flood-opacity="0" result="BackgroundImageFix"/><feColorMatrix in="SourceAlpha" values="0 0 0 0 0 0 0 0 0 0 0 0 0 0 0 0 0 0 127 0" result="hardAlpha"/><feOffset dy="4"/><feGaussianBlur stdDeviation="11.5"/><feComposite in2="hardAlpha" operator="out"/><feColorMatrix values="0 0 0 0 0.0916667 0 0 0 0 0.0916667 0 0 0 0 0.0916667 0 0 0 1 0"/><feBlend in2="BackgroundImageFix" result="effect1_dropShadow_1189_36808"/><feBlend in="SourceGraphic" in2="effect1_dropShadow_1189_36808" result="shape"/></filter><filter id="akfilter7_d_1189_36808" x="868" y="325" width="92" height="110.619" filterUnits="userSpaceOnUse" color-interpolation-filters="sRGB"><feFlood flood-opacity="0" result="BackgroundImageFix"/><feColorMatrix in="SourceAlpha" values="0 0 0 0 0 0 0 0 0 0 0 0 0 0 0 0 0 0 127 0" result="hardAlpha"/><feOffset dy="4"/><feGaussianBlur stdDeviation="11.5"/><feComposite in2="hardAlpha" operator="out"/><feColorMatrix values="0 0 0 0 0.0916667 0 0 0 0 0.0916667 0 0 0 0 0.0916667 0 0 0 1 0"/><feBlend in2="BackgroundImageFix" result="effect1_dropShadow_1189_36808"/><feBlend in="SourceGraphic" in2="effect1_dropShadow_1189_36808" result="shape"/></filter><clipPath id="akclip0_1189_36808"><path fill="#fff" d="M0 0h1026v1074H0z"/></clipPath><clipPath id="akclip1_1189_36808"><path fill="#fff" transform="rotate(-41.433 540.106 -402.247)" d="M0 0h14.521v20.614H0z"/></clipPath><clipPath id="akclip2_1189_36808"><path fill="#fff" transform="rotate(-41.433 1241.001 -489.507)" d="M0 0h23.857v33.866H0z"/></clipPath><radialGradient id="akpaint0_radial_1189_36808" cx="0" cy="0" r="1" gradientUnits="userSpaceOnUse" gradientTransform="rotate(-1.179 25754.197 -24889.691) scale(508.619 516.421)"><stop stop-color="#151618" stop-opacity="0"/><stop offset="1" stop-color="#151618"/></radialGradient><radialGradient id="akpaint1_radial_1189_36808" cx="0" cy="0" r="1" gradientUnits="userSpaceOnUse" gradientTransform="matrix(24.9303 0 0 5.90724 411.227 546.388)"><stop/><stop offset=".15" stop-opacity=".5"/><stop offset="1" stop-opacity="0"/></radialGradient></defs></svg>