<?xml version="1.0" encoding="utf-8"?><svg width="390" height="357" fill="none" xmlns="http://www.w3.org/2000/svg" viewBox="0 0 390 357"><g opacity=".8" filter="url(#alfilter0_f_1487_24159)"><path d="M172.118 127.762c26.273-1.37 114.164-45.394 101.15 44.455-13.013 89.849-61.36 67.757-121.124 65.487-59.764-2.27-90.888 3.543-82.428-54.87 8.46-58.413 15.82-50.556 102.402-55.072z" fill="#4264FB"/></g><g filter="url(#alfilter1_b_1487_24159)"><path d="M20 233.151c0 15.464 12.536 28 28 28h208.015c1.846 0 3.635.639 5.064 1.807l32.655 26.7c1.306 1.068 3.266.139 3.266-1.548V103c0-15.464-12.536-28-28-28H48c-15.464 0-28 12.536-28 28v130.151z" fill="#fff" fill-opacity=".06"/></g><defs><filter id="alfilter0_f_1487_24159" x="-46.654" y=".782" width="436.228" height="355.94" filterUnits="userSpaceOnUse" color-interpolation-filters="sRGB"><feFlood flood-opacity="0" result="BackgroundImageFix"/><feBlend in="SourceGraphic" in2="BackgroundImageFix" result="shape"/><feGaussianBlur stdDeviation="57.5" result="effect1_foregroundBlur_1487_24159"/></filter><filter id="alfilter1_b_1487_24159" x="-35" y="20" width="387" height="325.114" filterUnits="userSpaceOnUse" color-interpolation-filters="sRGB"><feFlood flood-opacity="0" result="BackgroundImageFix"/><feGaussianBlur in="BackgroundImageFix" stdDeviation="27.5"/><feComposite in2="SourceAlpha" operator="in" result="effect1_backgroundBlur_1487_24159"/><feBlend in="SourceGraphic" in2="effect1_backgroundBlur_1487_24159" result="shape"/></filter></defs></svg>