<?xml version="1.0" encoding="utf-8"?><svg width="437" height="357" fill="none" xmlns="http://www.w3.org/2000/svg" viewBox="0 0 437 357"><g opacity=".8" filter="url(#amfilter0_f_1487_24158)"><path d="M217.882 127.762c-26.273-1.37-114.164-45.394-101.15 44.455 13.013 89.849 61.36 67.757 121.124 65.487 59.764-2.27 90.888 3.543 82.428-54.87-8.461-58.413-15.82-50.556-102.402-55.072z" fill="#4264FB"/></g><g filter="url(#amfilter1_b_1487_24158)"><path d="M370 233.151c0 15.464-12.536 28-28 28H133.985a8.003 8.003 0 00-5.064 1.807l-32.655 26.7c-1.306 1.068-3.266.139-3.266-1.548V103c0-15.464 12.536-28 28-28h221c15.464 0 28 12.536 28 28v130.151z" fill="#fff" fill-opacity=".06"/></g><defs><filter id="amfilter0_f_1487_24158" x=".426" y=".782" width="436.228" height="355.94" filterUnits="userSpaceOnUse" color-interpolation-filters="sRGB"><feFlood flood-opacity="0" result="BackgroundImageFix"/><feBlend in="SourceGraphic" in2="BackgroundImageFix" result="shape"/><feGaussianBlur stdDeviation="57.5" result="effect1_foregroundBlur_1487_24158"/></filter><filter id="amfilter1_b_1487_24158" x="38" y="20" width="387" height="325.114" filterUnits="userSpaceOnUse" color-interpolation-filters="sRGB"><feFlood flood-opacity="0" result="BackgroundImageFix"/><feGaussianBlur in="BackgroundImageFix" stdDeviation="27.5"/><feComposite in2="SourceAlpha" operator="in" result="effect1_backgroundBlur_1487_24158"/><feBlend in="SourceGraphic" in2="effect1_backgroundBlur_1487_24158" result="shape"/></filter></defs></svg>