<?xml version="1.0" encoding="utf-8"?><svg width="1931" height="1743" fill="none" xmlns="http://www.w3.org/2000/svg" viewBox="0 0 1931 1743"><g opacity=".5" filter="url(#anfilter0_f_1189_37293)"><ellipse cx="965.5" cy="981.5" rx="570.5" ry="366.5" transform="rotate(180 965.5 981.5)" fill="#4264FB"/></g><g opacity=".2" stroke="#004ECC" stroke-width="2"><path opacity=".034" d="M399.496 748.034l411.653 39.103c27.553 2.617 39.452-34.002 15.622-48.08L470.756 528.73l360.156 203.155c24.106 13.598 49.87-15.016 33.827-37.57l-239.69-336.95 246.39 332.083c16.492 22.227 51.667 6.566 46.184-20.563l-81.918-405.31 90.018 403.588c6.026 27.014 44.529 27.014 50.555.001l90.022-403.587-81.922 405.308c-5.483 27.129 29.692 42.79 46.182 20.563l246.39-332.081-239.69 336.948c-16.04 22.554 9.72 51.168 33.83 37.57l360.16-203.156-356.02 210.328c-23.83 14.078-11.93 50.697 15.62 48.08l411.65-39.103-410.78 47.339c-27.5 3.168-31.52 41.461-5.29 50.277l391.97 131.712-394.53-123.835c-26.4-8.289-45.65 25.056-25.27 43.781l304.5 279.752-310.04-273.598c-20.76-18.313-51.91 4.319-40.9 29.715l164.39 379.423-171.96-376.054c-11.509-25.171-49.172-17.166-49.449 10.51L951 1360.54l-4.14-413.483c-.278-27.677-37.94-35.682-49.45-10.511L725.448 1312.6l164.396-379.423c11.004-25.396-20.146-48.028-40.899-29.715L538.897 1177.06l304.507-279.752c20.382-18.725 1.13-52.07-25.277-43.782L423.601 977.362 815.567 845.65c26.236-8.816 22.212-47.108-5.284-50.277l-410.787-47.339z"/><path opacity=".069" d="M411.233 720.51l401.44 59.467c27.379 4.056 41.177-31.89 18.117-47.196L492.673 508.359l342.544 217.605c23.362 14.841 50.588-12.385 35.747-35.747L653.357 347.67 877.78 685.79c15.306 23.061 51.252 9.262 47.197-18.117l-59.468-401.44 67.495 400.169c4.604 27.292 43.054 29.307 50.485 2.646l108.951-390.92-101.1 393.023c-6.895 26.805 27.41 44.285 45.04 22.951l258.54-312.807-252.22 317.922c-17.2 21.683 7.03 51.606 31.82 39.288l363.41-180.608-359.72 187.85c-24.54 12.812-14.57 50.004 13.08 48.832l405.46-17.18-405.03 25.297c-27.63 1.725-33.65 39.754-7.91 49.931l377.39 149.223-380.31-141.635c-25.93-9.659-46.9 22.633-27.53 42.399l284.07 289.816-289.82-284.069c-19.76-19.374-52.055 1.596-42.4 27.534l141.64 380.305-149.223-377.393c-10.177-25.738-48.207-19.715-49.932 7.909l-25.296 405.034 17.179-405.46c1.172-27.652-36.02-37.618-48.831-13.084L702.896 1292.93l180.609-363.414c12.318-24.785-17.605-49.017-39.288-31.815L526.294 1149.92l312.808-258.535c21.334-17.633 3.854-51.94-22.951-45.044L423.127 947.444l390.92-108.954c26.661-7.431 24.646-45.882-2.646-50.485L411.233 720.51z"/><path opacity=".103" d="M424.317 694.049l390.245 78.874c27.129 5.483 42.79-29.692 20.562-46.184L515.387 489.508l324.424 230.78c22.554 16.044 51.167-9.72 37.569-33.827L681.775 339.687l202.511 342.787c14.078 23.829 50.697 11.931 48.08-15.622l-37.65-396.353 45.58 395.519c3.169 27.496 41.461 31.52 50.277 5.285l126.817-377.398-119.233 379.862c-8.289 26.407 25.053 45.659 43.783 25.277l269.35-293.19-263.43 298.525c-18.31 20.753 4.32 51.903 29.72 40.899l365.32-158.285-362.08 165.57c-25.17 11.51-17.16 49.172 10.51 49.449l398.12 3.987-398.12 3.987c-27.67.277-35.68 37.94-10.51 49.45l362.08 165.574-365.32-158.29c-25.4-11.003-48.03 20.147-29.72 40.899l263.43 298.521-269.35-293.185c-18.73-20.382-52.072-1.13-43.783 25.277L1117.39 1318.1 990.573 940.696c-8.816-26.236-47.108-22.211-50.277 5.285L894.717 1341.5l37.649-396.353c2.617-27.554-34.002-39.452-48.08-15.622L681.775 1272.31l195.606-346.772c13.598-24.107-15.016-49.871-37.57-33.827L515.386 1122.49l319.739-237.23c22.227-16.492 6.566-51.667-20.563-46.184l-390.245 78.873 388.587-86.673c27.014-6.025 27.014-44.528 0-50.554l-388.587-86.673z"/><path opacity=".138" d="M438.67 668.722l378.141 97.274c26.805 6.896 44.285-27.411 22.951-45.044L538.801 472.207l305.882 242.668c21.683 17.202 51.606-7.03 39.288-31.815L710.202 333.406 890.939 679.51c12.811 24.534 50.003 14.568 48.831-13.085l-16.529-390.102 24.339 389.693c1.725 27.624 39.754 33.647 49.931 7.909l143.569-363.098-136.27 365.9c-9.657 25.937 22.63 46.908 42.4 27.534l278.84-273.312-273.31 278.841c-19.37 19.766 1.6 52.058 27.53 42.399l365.9-136.268-363.09 143.568c-25.74 10.177-19.72 48.207 7.9 49.932l389.7 24.338-390.1-16.529c-27.66-1.171-37.62 36.02-13.09 48.832l346.1 180.738-349.65-173.77c-24.78-12.318-49.02 17.605-31.81 39.288l242.66 305.882-248.74-300.961c-17.63-21.334-51.941-3.854-45.046 22.951l97.276 378.14-104.829-376.116c-7.431-26.661-45.882-24.646-50.485 2.646l-64.939 385.01 57.215-386.234c4.056-27.378-31.89-41.177-47.196-18.117L662.122 1250.83l209.366-329.57c14.841-23.362-12.386-50.588-35.748-35.747L506.167 1094.88l325.314-215.925c23.06-15.306 9.262-51.252-18.117-47.197l-386.236 57.215 385.013-64.938c27.292-4.604 29.307-43.054 2.646-50.485L438.67 668.722z"/><path opacity=".172" d="M454.208 644.583l365.2 114.631c26.407 8.288 45.659-25.057 25.277-43.782L562.814 456.477l287.001 253.258c20.753 18.313 51.903-4.318 40.899-29.715L738.537 328.802l159.18 348.1c11.511 25.171 49.173 17.166 49.45-10.51L951 283.643l3.833 382.748c.277 27.677 37.939 35.682 49.447 10.511l159.18-348.097-152.17 351.215c-11.01 25.397 20.14 48.028 40.89 29.715l287.01-253.259-281.88 258.956c-20.38 18.725-1.13 52.07 25.28 43.782l365.2-114.63-362.83 121.921c-26.24 8.815-22.21 47.108 5.28 50.277l380.26 43.82-381.06-36.196c-27.55-2.617-39.45 34.002-15.62 48.08l329.55 194.694-333.38-188.055c-24.11-13.598-49.87 15.015-33.83 37.569l221.87 311.906-228.07-307.4c-16.49-22.228-51.668-6.567-46.184 20.562l75.824 375.178-83.323-373.584c-6.025-27.014-44.529-27.014-50.554 0l-83.327 373.584 75.828-375.178c5.483-27.129-29.691-42.79-46.183-20.562l-228.075 307.4 221.873-311.906c16.043-22.554-9.721-51.167-33.828-37.569L498.625 1067.18l329.553-194.694c23.83-14.078 11.932-50.697-15.622-48.08l-381.051 36.196 380.25-43.82c27.495-3.169 31.52-41.461 5.284-50.277L454.208 644.583z"/><path opacity=".207" d="M470.848 621.688l351.5 130.904c25.937 9.66 46.908-22.632 27.534-42.398L587.328 442.329l267.866 262.553c19.765 19.374 52.057-1.596 42.398-27.534l-130.905-351.5 137.918 348.808c10.177 25.739 48.207 19.716 49.932-7.908l23.38-374.355-15.878 374.748c-1.172 27.653 36.02 37.618 48.831 13.084l173.62-332.478-166.93 335.889c-12.31 24.785 17.61 49.016 39.29 31.815l293.84-233.117-289.11 238.955c-21.33 17.632-3.85 51.939 22.95 45.044l363.25-93.445-361.31 100.701c-26.66 7.431-24.64 45.882 2.65 50.485l369.86 62.383-371.03-54.963c-27.38-4.056-41.18 31.89-18.12 47.196l312.51 207.42-316.6-201.12c-23.37-14.841-50.59 12.385-35.75 35.747l201.12 316.603-207.42-312.511c-15.31-23.06-51.253-9.262-47.197 18.117l54.967 371.034-62.387-369.859c-4.603-27.292-43.054-29.307-50.485-2.646L817.887 1302.79l93.445-363.259c6.896-26.805-27.411-44.285-45.044-22.951L627.334 1205.7 860.45 911.852c17.202-21.683-7.029-51.605-31.815-39.288L492.746 1039.49l332.479-173.619c24.534-12.812 14.568-50.003-13.085-48.832l-374.746 15.879 374.353-23.381c27.624-1.725 33.647-39.754 7.909-49.931L470.848 621.688z"/><path opacity=".241" d="M488.503 600.083l337.116 146.066c25.396 11.004 48.028-20.146 29.715-40.899L612.243 429.772l248.559 270.554c18.725 20.382 52.07 1.131 43.781-25.277L794.555 324.512l117.026 348.264c8.816 26.235 47.109 22.211 50.277-5.285l42.062-364.984-34.744 365.753c-2.617 27.554 34.004 39.452 48.084 15.623l186.87-316.32-180.5 319.999c-13.6 24.106 15.01 49.87 37.57 33.827l299.38-212.964-295.06 218.917c-22.22 16.492-6.56 51.667 20.57 46.184l360.11-72.784-358.58 79.981c-27.02 6.025-27.02 44.529 0 50.554l358.58 79.982-360.11-72.784c-27.13-5.483-42.79 29.691-20.57 46.183l295.06 218.912-299.38-212.959c-22.56-16.043-51.17 9.721-37.57 33.828l180.5 320.001-186.87-316.322c-14.08-23.83-50.701-11.932-48.084 15.622l34.744 365.75-42.062-364.981c-3.168-27.496-41.461-31.52-50.277-5.284L794.556 1287.49l110.027-350.539c8.289-26.407-25.056-45.659-43.781-25.277l-248.56 270.556 243.092-275.48c18.313-20.753-4.319-51.903-29.715-40.899L488.504 1011.92l334.122-152.791c25.17-11.51 17.165-49.173-10.511-49.45L444.735 806l367.38-3.679c27.676-.277 35.681-37.939 10.511-49.449L488.503 600.083z"/><path opacity=".276" d="M507.083 579.815l322.128 160.089c24.785 12.318 49.016-17.605 31.814-39.288L637.461 418.814l229.163 277.268c17.633 21.334 51.94 3.854 45.044-22.951l-89.617-348.374 96.576 346.509c7.431 26.662 45.882 24.646 50.485-2.646l59.828-354.705-52.712 355.832c-4.056 27.379 31.892 41.178 47.192 18.117l198.93-299.704-192.88 303.628c-14.84 23.362 12.38 50.588 35.74 35.747l303.63-192.883-299.7 198.926c-23.06 15.305-9.26 51.252 18.11 47.196l355.83-52.711-354.7 59.827c-27.29 4.603-29.31 43.054-2.64 50.484l346.5 96.576-348.37-89.617c-26.8-6.895-44.28 27.412-22.95 45.044l277.27 229.163-281.8-223.564c-21.69-17.201-51.61 7.03-39.29 31.815l160.09 322.129-166.51-318.858c-12.813-24.534-50.005-14.568-48.833 13.084l15.228 359.394-22.422-359.017c-1.726-27.623-39.755-33.647-49.932-7.908L772.454 1271.13l125.541-337.097c9.659-25.937-22.632-46.908-42.398-27.534L598.706 1158.3l251.796-256.895c19.374-19.766-1.596-52.058-27.533-42.398l-337.097 125.54 334.515-132.266c25.738-10.177 19.715-48.207-7.909-49.932l-359.014-22.422 359.391 15.227c27.653 1.172 37.619-36.019 13.085-48.831L507.083 579.815z"/><path opacity=".31" d="M526.496 560.913l306.616 172.954c24.107 13.598 49.87-15.016 33.827-37.569L662.884 409.443l209.759 282.711c16.492 22.227 51.667 6.566 46.184-20.563l-69.74-345.054 76.636 343.588c6.025 27.014 44.529 27.014 50.554 0l76.633-343.588-69.736 345.054c-5.483 27.129 29.696 42.79 46.186 20.562l209.76-282.711-204.06 286.856c-16.04 22.553 9.72 51.167 33.83 37.569l306.61-172.953-303.09 179.059c-23.83 14.078-11.93 50.697 15.63 48.079l350.45-33.289-349.72 40.301c-27.49 3.169-31.52 41.462-5.28 50.278l333.69 112.13-335.87-105.425c-26.41-8.289-45.66 25.056-25.28 43.781l259.24 238.162-263.96-232.922c-20.75-18.313-51.898 4.319-40.89 29.715l139.95 323.017-146.4-320.15c-11.505-25.17-49.168-17.165-49.445 10.511L951 1296.17l-3.525-352.009c-.277-27.676-37.94-35.681-49.45-10.511L751.629 1253.8l139.955-323.017c11.004-25.396-20.146-48.028-40.899-29.715L586.73 1133.99l259.238-238.162c20.382-18.725 1.13-52.07-25.277-43.781L484.817 957.472l333.695-112.13c26.236-8.816 22.211-47.109-5.285-50.278l-349.714-40.301 350.451 33.29c27.554 2.617 39.452-34.002 15.622-48.08l-303.09-179.06z"/><path opacity=".345" d="M546.653 543.415L837.31 728.058c23.362 14.841 50.588-12.385 35.747-35.747L688.415 401.655l190.426 286.899c15.306 23.061 51.252 9.262 47.197-18.116l-50.459-340.629 57.27 339.55c4.604 27.292 43.054 29.307 50.485 2.645L1075.78 340.3l-85.784 333.489c-6.896 26.805 27.414 44.285 45.044 22.952l219.37-265.423-214.01 269.763c-17.2 21.682 7.03 51.605 31.81 39.288l308.37-153.25-305.23 159.395c-24.54 12.811-14.57 50.003 13.08 48.831l344.04-14.577-343.68 21.464c-27.62 1.725-33.65 39.755-7.91 49.932l320.23 126.616-322.7-120.177c-25.94-9.66-46.91 22.632-27.53 42.398l241.04 245.919L1046 905.877c-19.77-19.373-52.057 1.597-42.4 27.534l120.18 322.689-126.616-320.217c-10.177-25.739-48.207-19.716-49.932 7.908l-21.465 343.679 14.578-344.04c1.171-27.652-36.02-37.618-48.832-13.084L732.119 1235.58l153.249-308.365c12.318-24.786-17.605-49.017-39.288-31.815l-269.763 214.01L841.74 890.04c21.334-17.632 3.854-51.939-22.951-45.044l-333.488 85.788 331.703-92.449c26.661-7.431 24.646-45.882-2.646-50.485l-339.549-57.271 340.628 50.459c27.379 4.056 41.177-31.89 18.117-47.196L546.653 543.415z"/><path opacity=".379" d="M567.459 527.342L841.793 722.49c22.553 16.043 51.167-9.721 37.569-33.828L713.96 395.435l171.241 289.856c14.078 23.83 50.697 11.931 48.08-15.622l-31.836-335.153 38.542 334.448c3.168 27.496 41.461 31.52 50.277 5.284L1097.5 355.121 996.677 676.332c-8.289 26.407 25.053 45.659 43.783 25.277l227.76-247.919-222.75 252.431c-18.31 20.753 4.32 51.903 29.71 40.899l308.91-133.846-306.16 140.006c-25.17 11.51-17.17 49.172 10.51 49.449l336.64 3.372-336.64 3.371c-27.68.277-35.68 37.939-10.51 49.449l306.17 140.006-308.92-133.846c-25.39-11.004-48.02 20.146-29.71 40.899l222.75 252.43-227.76-247.918c-18.73-20.382-52.072-1.13-43.783 25.277L1097.5 1256.88 990.264 937.753c-8.816-26.236-47.109-22.211-50.277 5.284l-38.542 334.453 31.836-335.158c2.617-27.553-34.002-39.451-48.08-15.622l-171.242 289.86 165.403-293.231c13.598-24.107-15.016-49.871-37.569-33.828L567.46 1084.66l270.37-200.603c22.227-16.492 6.566-51.667-20.563-46.184l-329.989 66.695 328.587-73.29c27.014-6.026 27.014-44.529 0-50.554l-328.587-73.291 329.989 66.695c27.129 5.483 42.79-29.692 20.563-46.183L567.459 527.342z"/><path opacity=".414" d="M588.822 512.716l257.724 204.461c21.683 17.202 51.606-7.029 39.288-31.815l-146.409-294.6 152.28 291.609c12.811 24.534 50.003 14.568 48.831-13.084L926.61 340.604l20.506 328.338c1.725 27.624 39.755 33.647 49.932 7.908l120.962-305.931-114.81 308.293c-9.661 25.937 22.63 46.907 42.4 27.533l234.94-230.28-230.28 234.939c-19.38 19.766 1.59 52.058 27.53 42.399l308.29-114.814-305.93 120.965c-25.74 10.177-19.71 48.206 7.91 49.932l328.33 20.506-328.68-13.927c-27.65-1.171-37.61 36.02-13.08 48.832l291.61 152.283-294.6-146.413c-24.79-12.317-49.02 17.606-31.82 39.288l204.47 257.725-209.59-253.578c-17.63-21.334-51.936-3.854-45.04 22.951l81.96 318.597-88.324-316.892c-7.431-26.661-45.882-24.646-50.485 2.646L878.096 1266.3l48.207-325.427c4.056-27.378-31.89-41.177-47.196-18.117L697.179 1196.85l176.402-277.682c14.841-23.362-12.385-50.588-35.747-35.747L560.15 1059.82l274.095-181.925c23.06-15.306 9.262-51.252-18.117-47.196l-325.426 48.207 324.395-54.715c27.292-4.603 29.308-43.054 2.646-50.485l-316.898-88.323 318.604 81.959c26.804 6.895 44.285-27.412 22.951-45.044L588.822 512.716z"/><path opacity=".448" d="M610.647 499.545l240.909 212.586c20.753 18.313 51.903-4.319 40.899-29.715L764.72 387.608l133.613 292.191c11.511 25.17 49.173 17.165 49.45-10.511L951 348.011l3.218 321.277c.277 27.676 37.939 35.681 49.452 10.511l133.61-292.194-127.73 294.811c-11.008 25.396 20.14 48.028 40.89 29.715l240.91-212.584-236.6 217.366c-20.38 18.725-1.13 52.07 25.28 43.781l306.54-96.22-304.55 102.34c-26.24 8.816-22.21 47.109 5.28 50.277l319.18 36.783-319.85-30.383c-27.56-2.617-39.45 34.002-15.62 48.08L1347.63 1035l-279.84-157.856c-24.11-13.598-49.87 15.015-33.83 37.569l186.24 261.807-191.44-258.025c-16.5-22.227-51.671-6.567-46.188 20.562l63.648 314.923-69.943-313.585c-6.025-27.013-44.528-27.014-50.554 0l-69.944 313.585 63.65-314.923c5.483-27.129-29.692-42.789-46.184-20.562L681.801 1176.52 868.04 914.713c16.043-22.554-9.721-51.167-33.828-37.569L554.37 1035l276.625-163.429c23.829-14.078 11.931-50.697-15.622-48.08l-319.854 30.383L814.7 817.091c27.495-3.168 31.52-41.461 5.284-50.277l-304.557-102.34 306.546 96.22c26.407 8.289 45.659-25.056 25.277-43.781L610.647 499.545z"/><path opacity=".483" d="M632.841 487.841l223.965 219.524c19.766 19.374 52.058-1.597 42.398-27.534L789.755 385.943 905.068 677.58c10.177 25.739 48.207 19.715 49.932-7.908l19.548-312.999L961.272 670c-1.171 27.653 36.02 37.618 48.828 13.085l145.17-277.99-139.57 280.841c-12.32 24.786 17.61 49.017 39.29 31.815l245.68-194.909-241.73 199.79c-21.33 17.633-3.85 51.94 22.95 45.044l303.72-78.13-302.09 84.197c-26.66 7.431-24.65 45.882 2.64 50.485l309.24 52.158-310.22-45.954c-27.38-4.056-41.18 31.89-18.12 47.196l261.3 173.432-264.72-168.164c-23.36-14.841-50.59 12.385-35.74 35.747l168.16 264.707-173.43-261.286c-15.31-23.06-51.254-9.262-47.198 18.117l45.958 310.219-52.162-309.237c-4.603-27.292-43.054-29.307-50.485-2.645l-84.197 302.092 78.13-303.718c6.896-26.805-27.411-44.285-45.044-22.951l-199.79 241.729 194.909-245.682c17.202-21.683-7.029-51.606-31.815-39.288l-280.84 139.57 277.989-145.166c24.534-12.812 14.568-50.003-13.085-48.832l-313.327 13.276L814.672 810c27.623-1.725 33.647-39.755 7.908-49.932L530.941 644.755l293.89 109.449c25.937 9.66 46.908-22.632 27.534-42.398L632.841 487.841z"/><path opacity=".517" d="M655.313 477.606l206.97 225.286c18.725 20.382 52.07 1.13 43.781-25.277l-91.617-291.883 97.444 289.989c8.816 26.236 47.109 22.211 50.277-5.284l35.023-303.913-28.929 304.553c-2.617 27.554 33.998 39.452 48.078 15.622l155.61-263.394-150.3 266.458c-13.6 24.107 15.01 49.871 37.57 33.827l249.28-177.33-245.68 182.287c-22.23 16.492-6.57 51.667 20.56 46.184l299.86-60.606-298.59 66.599c-27.01 6.025-27.01 44.529 0 50.554l298.59 66.599-299.86-60.606c-27.13-5.483-42.79 29.692-20.56 46.184l245.68 182.285-249.28-177.328c-22.56-16.044-51.17 9.72-37.57 33.827l150.3 266.461-155.61-263.397c-14.08-23.83-50.695-11.932-48.078 15.622l28.929 304.555-35.023-303.915c-3.168-27.495-41.461-31.52-50.277-5.284l-97.445 289.989 91.618-291.882c8.289-26.408-25.056-45.66-43.781-25.278l-206.97 225.28 202.416-229.379c18.313-20.753-4.318-51.903-29.715-40.9L547.306 985.737l278.216-127.223c25.171-11.51 17.166-49.172-10.51-49.449l-305.909-3.064 305.909-3.063c27.676-.278 35.681-37.94 10.51-49.45L547.306 626.265l280.708 121.626c25.397 11.003 48.028-20.147 29.715-40.899L655.313 477.606z"/><path opacity=".552" d="M677.968 468.833l190.001 229.885c17.632 21.334 51.939 3.854 45.044-22.951l-74.302-288.835 80.071 287.289c7.431 26.662 45.882 24.647 50.485-2.646l49.603-294.085-43.703 295.02c-4.056 27.379 31.893 41.177 47.193 18.117l164.93-248.488-159.92 251.741c-14.84 23.362 12.39 50.588 35.75 35.747l251.74-159.919-248.49 164.929c-23.06 15.306-9.26 51.252 18.12 47.196l295.02-43.703-294.09 49.603c-27.29 4.603-29.3 43.054-2.64 50.485l287.29 80.07-288.84-74.301c-26.8-6.895-44.28 27.412-22.95 45.045l229.89 189.998-233.65-185.356c-21.68-17.202-51.6 7.029-39.29 31.814l132.73 267.072-138.05-264.36c-12.809-24.534-50.001-14.568-48.829 13.084l12.625 297.976-18.59-297.663c-1.725-27.624-39.755-33.647-49.932-7.908L795.521 1211.04l104.087-279.492c9.659-25.937-22.633-46.908-42.398-27.534L644.221 1112.78l208.765-212.989c19.374-19.766-1.597-52.058-27.534-42.399L545.964 961.479l277.347-109.663c25.739-10.177 19.716-48.207-7.908-49.932l-297.66-18.59 297.973 12.625c27.652 1.172 37.618-36.02 13.084-48.831L564.435 609.035l267.077 132.73c24.785 12.318 49.016-17.605 31.815-39.288L677.968 468.833z"/><path opacity=".586" d="M700.718 461.517L873.847 694.86c16.492 22.227 51.667 6.566 46.184-20.563L862.47 389.501l63.253 283.587c6.025 27.013 44.529 27.013 50.554 0L1039.53 389.5l-57.561 284.797c-5.483 27.129 29.691 42.79 46.181 20.563l173.13-233.344-168.42 236.764c-16.04 22.554 9.72 51.167 33.83 37.569l253.07-142.75-250.16 147.79c-23.83 14.078-11.93 50.697 15.62 48.08l289.25-27.476-288.64 33.263c-27.5 3.169-31.52 41.461-5.29 50.277l275.42 92.549-277.21-87.014c-26.41-8.289-45.66 25.056-25.28 43.781l213.97 196.571-217.87-192.246c-20.75-18.313-51.898 4.318-40.89 29.715l115.51 266.601-120.83-264.235c-11.511-25.17-49.173-17.165-49.45 10.511L951 1231.81l-2.909-290.544c-.278-27.676-37.94-35.681-49.45-10.511L777.809 1195l115.516-266.611c11.004-25.397-20.146-48.028-40.899-29.715L634.565 1090.92l213.967-196.571c20.382-18.725 1.13-52.07-25.277-43.781l-277.221 87.015 275.423-92.55c26.236-8.816 22.211-47.108-5.285-50.277l-288.645-33.263 289.254 27.476c27.553 2.617 39.451-34.002 15.622-48.08L582.241 593.098l253.071 142.751c24.107 13.598 49.871-15.016 33.828-37.569L700.718 461.517z"/><path opacity=".621" d="M723.471 455.636l156.431 235.682c15.306 23.06 51.253 9.262 47.197-18.117l-41.451-279.816 47.046 278.93c4.604 27.292 43.055 29.307 50.485 2.645l75.941-272.485-70.468 273.952c-6.896 26.805 27.408 44.285 45.048 22.951l180.2-218.039-175.8 221.604c-17.2 21.683 7.03 51.606 31.81 39.288l253.32-125.89-250.74 130.938c-24.54 12.812-14.57 50.003 13.08 48.832l282.62-11.975-282.32 17.632c-27.63 1.726-33.65 39.755-7.91 49.932l263.05 104.011-265.08-98.722c-25.94-9.659-46.91 22.633-27.54 42.398L1246.4 1101.4l-202.01-198.007c-19.77-19.374-52.06 1.597-42.4 27.534l98.72 265.083L996.7 932.958c-10.177-25.739-48.206-19.716-49.931 7.908l-17.633 282.324 11.975-282.621c1.172-27.652-36.02-37.618-48.832-13.084L761.341 1178.23l125.891-253.317c12.317-24.785-17.606-49.016-39.288-31.815L626.34 1068.9l218.038-180.205c21.334-17.632 3.854-51.939-22.951-45.044l-273.952 70.473 272.486-75.945c26.661-7.431 24.646-45.882-2.646-50.485l-278.932-47.046 279.818 41.45c27.379 4.056 41.177-31.89 18.117-47.196L600.637 578.471l238.767 151.68c23.362 14.841 50.588-12.385 35.747-35.747l-151.68-238.768z"/><path opacity=".655" d="M746.142 451.177l139.974 236.93c14.078 23.83 50.697 11.932 48.08-15.622l-26.023-273.953 31.504 273.377c3.169 27.496 41.461 31.52 50.277 5.284l87.656-260.853-82.414 262.557c-8.289 26.407 25.054 45.659 43.784 25.277l186.17-202.65-182.08 206.337c-18.31 20.753 4.32 51.903 29.72 40.9l252.5-109.406-250.26 114.441c-25.17 11.51-17.17 49.172 10.51 49.449l275.17 2.756-275.17 2.756c-27.68.277-35.68 37.939-10.51 49.449l250.26 114.44-252.5-109.405c-25.4-11.004-48.03 20.146-29.72 40.899l182.08 206.34-186.17-202.652c-18.73-20.382-52.073-1.13-43.784 25.277l82.414 262.555-87.656-260.852c-8.816-26.235-47.108-22.211-50.277 5.285l-31.504 273.377 26.023-273.953c2.617-27.554-34.002-39.452-48.08-15.622L746.142 1160.82l135.201-239.681c13.598-24.107-15.016-49.871-37.569-33.828L619.535 1046.82l220.999-163.967c22.228-16.492 6.567-51.667-20.562-46.184l-269.733 54.516 268.587-59.907c27.014-6.025 27.014-44.529 0-50.554l-268.587-59.908 269.733 54.517c27.129 5.483 42.79-29.692 20.562-46.184l-221-163.972 224.24 159.513c22.553 16.044 51.167-9.72 37.569-33.827L746.142 451.177z"/><path opacity=".69" d="M768.646 448.096l123.825 237.119c12.812 24.534 50.003 14.568 48.832-13.084l-11.324-267.263 16.674 266.982c1.725 27.624 39.755 33.647 49.932 7.909l98.365-248.763-93.36 250.683c-9.663 25.937 22.63 46.907 42.39 27.533l191.04-187.249-187.25 191.038c-19.37 19.766 1.6 52.058 27.54 42.398l250.68-93.359-248.76 98.361c-25.74 10.177-19.72 48.206 7.91 49.932l266.98 16.674-267.27-11.324c-27.65-1.172-37.61 36.02-13.08 48.831l237.12 123.825-239.55-119.051c-24.79-12.318-49.02 17.605-31.82 39.288l166.26 209.564-170.42-206.192c-17.63-21.334-51.94-3.854-45.044 22.951l66.644 259.071-71.819-257.685c-7.431-26.661-45.882-24.646-50.485 2.646l-44.49 263.779 39.198-264.617c4.056-27.379-31.89-41.177-47.196-18.117L732.236 1142.85l143.439-225.792c14.841-23.362-12.386-50.588-35.748-35.747L614.133 1024.75 837.01 876.818c23.06-15.306 9.261-51.252-18.118-47.197L554.277 868.82l263.777-44.49c27.292-4.604 29.307-43.054 2.646-50.485l-257.681-71.819 259.068 66.644c26.805 6.895 44.285-27.412 22.951-45.044L638.845 553.207 848.41 719.462c21.682 17.202 51.605-7.029 39.288-31.815L768.646 448.096z"/><path opacity=".724" d="M790.899 446.393l108.05 236.286c11.51 25.171 49.172 17.166 49.449-10.51L951 412.364l2.602 259.805c.277 27.676 37.939 35.681 49.448 10.51l108.05-236.285-103.29 238.402c-11.009 25.396 20.14 48.028 40.89 29.715l194.82-171.91-191.33 175.777c-20.39 18.725-1.13 52.07 25.27 43.781l247.9-77.81-246.29 82.759c-26.23 8.816-22.21 47.109 5.29 50.277l258.11 29.745-258.66-24.569c-27.55-2.618-39.45 34.001-15.62 48.08l223.69 132.159-226.29-127.653c-24.11-13.598-49.87 15.016-33.83 37.569l150.61 211.714-154.82-208.655c-16.49-22.228-51.666-6.567-46.183 20.562l51.473 254.673-56.563-253.591c-6.025-27.014-44.529-27.014-50.554 0l-56.561 253.591 51.471-254.673c5.483-27.129-29.692-42.79-46.183-20.562L719.634 1124.43 870.24 912.716c16.043-22.553-9.721-51.167-33.828-37.569L610.114 1002.8l223.697-132.16c23.829-14.078 11.931-50.697-15.623-48.079L559.533 847.13l258.112-29.745c27.495-3.168 31.52-41.461 5.284-50.277l-246.286-82.759 247.894 77.81c26.407 8.289 45.659-25.056 25.277-43.781L658.482 542.6l194.814 171.911c20.753 18.313 51.903-4.319 40.899-29.715L790.899 446.393z"/><path opacity=".759" d="M812.821 446.019l92.71 234.471c10.177 25.739 48.207 19.716 49.932-7.908l15.716-251.644-10.673 251.908c-1.172 27.653 36.02 37.618 48.834 13.085l116.71-223.497-112.21 225.789c-12.32 24.785 17.6 49.017 39.28 31.815l197.53-156.703-194.35 160.627c-21.33 17.633-3.85 51.94 22.95 45.044l244.19-62.815-242.88 67.693c-26.66 7.431-24.65 45.882 2.65 50.485l248.62 41.935-249.41-36.947c-27.38-4.056-41.18 31.89-18.12 47.196l210.07 139.427-212.82-135.192c-23.36-14.841-50.59 12.385-35.75 35.747L1161 1129.36l-139.43-210.074c-15.31-23.061-51.255-9.262-47.199 18.117l36.949 249.407-41.937-248.618c-4.603-27.291-43.054-29.307-50.485-2.645l-67.693 242.873 62.815-244.18c6.896-26.805-27.411-44.285-45.044-22.951L708.348 1105.64l156.704-197.529c17.202-21.683-7.029-51.606-31.815-39.288L607.449 981.034l223.496-116.711c24.533-12.811 14.568-50.003-13.085-48.831l-251.909 10.673 251.645-15.716c27.624-1.725 33.647-39.755 7.908-49.932l-234.471-92.71 236.281 87.996c25.937 9.659 46.908-22.633 27.534-42.399L678.356 533.342l180.062 176.492c19.766 19.374 52.058-1.597 42.399-27.534l-87.996-236.281z"/><path opacity=".793" d="M834.337 446.932l77.864 231.719c8.816 26.236 47.108 22.211 50.277-5.285l27.985-242.842-23.116 243.354c-2.617 27.554 34.003 39.452 48.083 15.622l124.34-210.465-120.1 212.913c-13.6 24.107 15.01 49.871 37.57 33.828l199.19-141.697-196.32 145.657c-22.22 16.492-6.56 51.667 20.57 46.184l239.6-48.427-238.59 53.216c-27.01 6.025-27.01 44.529 0 50.554l238.59 53.216-239.6-48.427c-27.13-5.483-42.79 29.692-20.57 46.183l196.32 145.655-199.19-141.694c-22.56-16.043-51.17 9.721-37.57 33.828l120.1 212.916-124.34-210.469c-14.08-23.829-50.7-11.931-48.083 15.623l23.116 243.356-27.985-242.845c-3.169-27.495-41.461-31.52-50.277-5.284l-77.864 231.719 73.207-233.232c8.289-26.407-25.056-45.659-43.781-25.277l-165.38 180.019 161.742-183.295c18.313-20.753-4.319-51.903-29.715-40.899l-224.301 97.185 222.31-101.658c25.17-11.51 17.165-49.172-10.511-49.449l-244.439-2.448 244.439-2.448c27.676-.277 35.681-37.939 10.511-49.449L606.109 652.43l224.301 97.186c25.396 11.004 48.028-20.146 29.715-40.899L698.383 525.426l165.38 180.015c18.725 20.382 52.07 1.13 43.781-25.277l-73.207-233.232z"/><path opacity=".828" d="M855.37 449.091l63.567 228.074c7.431 26.661 45.882 24.646 50.485-2.646l39.378-233.467-34.694 234.209c-4.056 27.379 31.894 41.177 47.194 18.117l130.94-197.267-126.96 199.85c-14.84 23.362 12.38 50.588 35.75 35.747l199.85-126.957-197.27 130.934c-23.06 15.306-9.26 51.252 18.12 47.196l234.21-34.695-233.47 39.379c-27.29 4.603-29.31 43.054-2.65 50.484l228.07 63.567-229.3-58.986c-26.8-6.896-44.28 27.411-22.95 45.044l182.5 150.836-185.48-147.151c-21.68-17.202-51.61 7.03-39.29 31.815l105.37 212.026-109.59-209.873c-12.816-24.534-50.007-14.568-48.835 13.084l10.023 236.549-14.759-236.301c-1.725-27.623-39.755-33.647-49.932-7.908l-87.058 220.179 82.631-221.879c9.66-25.937-22.632-46.907-42.398-27.533L689.735 1067.25l165.734-169.085c19.374-19.766-1.597-52.058-27.534-42.399l-221.878 82.632 220.179-87.059c25.738-10.177 19.715-48.206-7.909-49.931l-236.305-14.759 236.554 10.023c27.652 1.172 37.618-36.02 13.084-48.831L621.787 638.244l212.026 105.371c24.785 12.318 49.016-17.605 31.815-39.288L718.476 518.843l150.837 182.5c17.632 21.334 51.939 3.854 45.044-22.951L855.37 449.091z"/><path opacity=".862" d="M875.853 452.444l49.87 223.588c6.025 27.014 44.529 27.014 50.554 0l49.873-223.586-45.385 224.54c-5.483 27.129 29.695 42.79 46.185 20.563l136.5-183.973-132.79 186.669c-16.04 22.554 9.72 51.167 33.83 37.569l199.53-112.548-197.24 116.522c-23.83 14.078-11.93 50.697 15.62 48.08l228.06-21.663-227.58 26.226c-27.49 3.168-31.52 41.461-5.28 50.277l217.15 72.968-218.57-68.605c-26.41-8.288-45.66 25.057-25.28 43.782l168.7 154.977-171.77-151.568c-20.75-18.313-51.899 4.319-40.89 29.715l91.07 210.203-95.27-208.337c-11.506-25.17-49.169-17.165-49.446 10.511L951 1167.42l-2.294-229.066c-.277-27.676-37.939-35.681-49.449-10.511L803.99 1136.18l91.075-210.203c11.004-25.396-20.146-48.028-40.899-29.715L682.398 1047.84l168.698-154.987c20.382-18.725 1.13-52.07-25.277-43.782l-218.567 68.605 217.149-72.968c26.236-8.816 22.211-47.109-5.284-50.277l-227.576-26.226 228.055 21.663c27.554 2.617 39.452-34.002 15.623-48.08L637.985 625.266l199.528 112.548c24.106 13.598 49.87-15.015 33.827-37.569l-132.788-186.67 136.5 183.974c16.492 22.227 51.666 6.566 46.183-20.563l-45.382-224.542z"/><path opacity=".897" d="M895.717 456.943l36.823 218.314c4.603 27.292 43.054 29.307 50.485 2.646l59.435-213.268-55.152 214.415c-6.896 26.805 27.412 44.286 45.042 22.952l141.05-170.655-137.6 173.445c-17.2 21.683 7.03 51.606 31.81 39.288l198.27-98.532-196.25 102.483c-24.54 12.812-14.57 50.003 13.08 48.832l221.2-9.373-220.97 13.801c-27.62 1.725-33.64 39.754-7.91 49.931l205.89 81.408-207.48-77.268c-25.93-9.659-46.9 22.632-27.53 42.398l154.98 158.11-158.11-154.974c-19.77-19.374-52.062 1.596-42.4 27.534l77.27 207.48-81.412-205.891c-10.177-25.739-48.207-19.716-49.932 7.908l-13.801 220.963 9.373-221.195c1.171-27.653-36.02-37.618-48.832-13.084L790.563 1120.86l98.532-198.262c12.318-24.786-17.605-49.017-39.288-31.815L676.362 1028.38l170.655-141.043c21.334-17.633 3.853-51.94-22.951-45.044L609.65 897.45l213.268-59.44c26.661-7.431 24.646-45.882-2.646-50.485l-218.314-36.823 219.008 32.443c27.378 4.056 41.177-31.89 18.117-47.196L654.62 613.513 841.498 732.23c23.362 14.841 50.588-12.385 35.747-35.747L758.529 509.605l122.435 184.463c15.306 23.06 51.252 9.261 47.196-18.117l-32.443-219.008z"/><path opacity=".931" d="M914.901 462.53l24.467 212.309c3.168 27.496 41.461 31.521 50.277 5.285l68.075-202.582-64.004 203.904c-8.289 26.408 25.054 45.659 43.784 25.277l144.58-157.38-141.4 160.244c-18.32 20.753 4.32 51.903 29.71 40.9l196.1-84.966-194.36 88.876c-25.17 11.51-17.16 49.172 10.51 49.449l213.71 2.14-213.71 2.141c-27.67.277-35.68 37.939-10.51 49.449l194.36 88.876-196.1-84.966c-25.39-11.003-48.02 20.147-29.71 40.899l141.4 160.245-144.58-157.381c-18.73-20.382-52.073-1.13-43.784 25.278l64.004 203.903-68.075-202.581c-8.816-26.236-47.109-22.211-50.277 5.285l-24.466 212.306 20.209-212.754c2.617-27.553-34.002-39.452-48.08-15.622L778.327 1105.07l104.997-186.146c13.598-24.107-15.015-49.871-37.569-33.827L671.608 1008.98l171.631-127.346c22.228-16.492 6.567-51.667-20.562-46.184L613.2 877.788l208.587-46.525c27.014-6.025 27.014-44.528 0-50.554l-208.588-46.524 209.478 42.338c27.129 5.483 42.79-29.692 20.562-46.184L671.608 602.997l174.147 123.879c22.554 16.044 51.167-9.72 37.569-33.827L778.327 506.907l108.704 184.002c14.078 23.829 50.697 11.931 48.08-15.622l-20.21-212.757z"/><path opacity=".966" d="M933.347 469.147l12.843 205.629c1.725 27.624 39.754 33.647 49.931 7.908l75.759-191.595-71.906 193.074c-9.66 25.937 22.636 46.908 42.396 27.534l147.14-144.218-144.22 147.136c-19.37 19.766 1.6 52.057 27.53 42.398l193.08-71.904-191.6 75.756c-25.74 10.177-19.71 48.207 7.91 49.932l205.63 12.843-205.85-8.722c-27.65-1.172-37.61 36.02-13.08 48.831l182.63 95.37-184.5-91.693c-24.79-12.318-49.02 17.605-31.82 39.288l128.05 161.406-131.25-158.809c-17.64-21.334-51.944-3.854-45.049 22.951l51.329 199.528-55.314-198.46c-7.431-26.662-45.882-24.646-50.485 2.646l-34.266 203.154 30.19-203.8c4.056-27.379-31.89-41.177-47.196-18.117L767.293 1088.87l110.475-173.904c14.841-23.362-12.385-50.589-35.747-35.747L668.115 989.694l171.659-113.936c23.06-15.306 9.261-51.252-18.117-47.197l-203.804 30.191 203.158-34.266c27.292-4.603 29.307-43.054 2.646-50.485l-198.465-55.314 199.533 51.328c26.805 6.896 44.285-27.411 22.951-45.044L688.868 593.716l161.405 128.048c21.683 17.202 51.605-7.029 39.288-31.814l-91.692-184.501 95.368 182.627c12.812 24.534 50.004 14.569 48.832-13.084l-8.722-205.845z"/><path d="M951 476.729l1.986 198.336c.278 27.676 37.94 35.681 49.454 10.511l82.48-180.379-78.86 181.994c-10.999 25.396 20.15 48.028 40.9 29.715l148.72-131.236-146.06 134.189c-20.38 18.724-1.13 52.07 25.28 43.781l189.24-59.4-188.01 63.178c-26.24 8.816-22.21 47.108 5.28 50.277l197.04 22.707L1081 821.646c-27.56-2.618-39.46 34.002-15.63 48.08l170.77 100.887-172.75-97.447c-24.11-13.598-49.87 15.016-33.83 37.569l114.97 161.625-118.18-159.29c-16.5-22.228-51.67-6.567-46.187 20.562l39.297 194.418-43.183-193.592c-6.025-27.014-44.529-27.014-50.554 0l-43.179 193.582 39.293-194.408c5.483-27.129-29.691-42.79-46.183-20.562l-118.185 159.29L872.44 910.735c16.043-22.553-9.72-51.167-33.827-37.569l-172.757 97.448 170.77-100.888c23.83-14.078 11.932-50.698-15.622-48.08l-197.455 18.756 197.04-22.707c27.496-3.169 31.52-41.461 5.284-50.277L637.86 704.24l189.241 59.4c26.407 8.289 45.659-25.057 25.277-43.781L706.315 585.67l148.721 131.236c20.753 18.313 51.903-4.318 40.899-29.715L817.08 505.196l82.484 180.38c11.51 25.17 49.173 17.165 49.45-10.511L951 476.729z"/></g><defs><filter id="anfilter0_f_1189_37293" x="0" y="220" width="1931" height="1523" filterUnits="userSpaceOnUse" color-interpolation-filters="sRGB"><feFlood flood-opacity="0" result="BackgroundImageFix"/><feBlend in="SourceGraphic" in2="BackgroundImageFix" result="shape"/><feGaussianBlur stdDeviation="197.5" result="effect1_foregroundBlur_1189_37293"/></filter></defs></svg>