<?xml version="1.0" encoding="utf-8"?><svg width="1512" height="1743" fill="none" xmlns="http://www.w3.org/2000/svg" viewBox="0 0 1512 1743"><g opacity=".5" filter="url(#aofilter0_f_1189_37293)"><ellipse cx="770.5" cy="981.5" rx="570.5" ry="366.5" transform="rotate(180 770.5 981.5)" fill="#4264FB"/></g><g opacity=".2" stroke="#004ECC" stroke-width="2"><path opacity=".034" d="M204.497 748.034l411.652 39.103c27.553 2.617 39.452-34.002 15.622-48.08L275.756 528.73l360.156 203.155c24.107 13.598 49.871-15.016 33.827-37.57l-239.69-336.95 246.39 332.083c16.492 22.227 51.667 6.566 46.184-20.563l-81.918-405.309 90.018 403.587c6.026 27.014 44.529 27.014 50.555.001l90.018-403.587-81.918 405.308c-5.483 27.129 29.692 42.79 46.184 20.563l246.388-332.081-239.688 336.948c-16.043 22.554 9.72 51.168 33.827 37.57l360.161-203.156-356.02 210.328c-23.829 14.078-11.931 50.697 15.622 48.08l411.648-39.103-410.782 47.339c-27.496 3.168-31.52 41.461-5.285 50.277L1283.4 977.362 888.874 853.527c-26.407-8.289-45.659 25.056-25.277 43.781L1168.1 1177.06 858.056 903.462c-20.753-18.313-51.903 4.319-40.899 29.715L981.553 1312.6 809.591 936.546c-11.51-25.171-49.172-17.166-49.45 10.51l-4.14 413.484-4.141-413.483c-.277-27.677-37.94-35.682-49.45-10.511L530.449 1312.6l164.396-379.423c11.003-25.396-20.147-48.028-40.9-29.715L343.896 1177.06l304.508-279.752c20.382-18.725 1.13-52.07-25.277-43.782L228.602 977.362 620.568 845.65c26.235-8.816 22.211-47.108-5.285-50.277l-410.786-47.339z"/><path opacity=".069" d="M216.233 720.51l401.44 59.467c27.379 4.056 41.177-31.89 18.117-47.196L297.673 508.359l342.544 217.605c23.362 14.841 50.588-12.385 35.747-35.747L458.357 347.67 682.78 685.79c15.306 23.061 51.252 9.262 47.197-18.117l-59.468-401.44 67.495 400.169c4.604 27.292 43.055 29.307 50.485 2.646l108.954-390.92L796.34 671.151c-6.895 26.805 27.412 44.285 45.044 22.951l258.536-312.807-252.219 317.922c-17.202 21.683 7.029 51.606 31.815 39.288l363.414-180.608-359.725 187.85c-24.533 12.812-14.568 50.004 13.085 48.832l405.46-17.18-405.035 25.297c-27.623 1.725-33.647 39.754-7.908 49.931L1266.2 1001.85 885.894 860.215c-25.937-9.659-46.908 22.633-27.534 42.398l284.07 289.817-289.817-284.069c-19.766-19.374-52.058 1.596-42.398 27.534L951.847 1316.2l-149.22-377.393c-10.177-25.738-48.207-19.715-49.932 7.909l-25.296 405.034 17.179-405.46c1.172-27.652-36.019-37.618-48.831-13.084l-187.85 359.724 180.608-363.414c12.318-24.785-17.605-49.017-39.288-31.815L331.294 1149.92l312.808-258.535c21.334-17.633 3.854-51.94-22.951-45.044L228.127 947.444l390.92-108.954c26.662-7.431 24.646-45.882-2.646-50.485L216.233 720.51z"/><path opacity=".103" d="M229.317 694.049l390.245 78.874c27.129 5.483 42.79-29.692 20.562-46.184L320.387 489.508l324.424 230.78c22.554 16.044 51.167-9.72 37.57-33.827L486.775 339.688l202.511 342.786c14.078 23.829 50.697 11.931 48.08-15.622L699.717 270.5l45.579 395.518c3.169 27.496 41.461 31.52 50.277 5.285L922.39 293.905 803.157 673.767c-8.289 26.407 25.056 45.659 43.781 25.277l269.352-293.19-263.426 298.525c-18.313 20.753 4.319 51.903 29.715 40.899L1247.9 586.993l-362.078 165.57c-25.171 11.51-17.165 49.172 10.511 49.449l398.117 3.987-398.117 3.987c-27.676.277-35.681 37.94-10.511 49.45L1247.9 1025.01 882.579 866.72c-25.396-11.003-48.028 20.147-29.715 40.9l263.426 298.52-269.352-293.185c-18.725-20.382-52.07-1.13-43.781 25.277L922.39 1318.1 795.573 940.696c-8.816-26.236-47.108-22.211-50.277 5.285L699.717 1341.5l37.649-396.353c2.617-27.553-34.002-39.452-48.08-15.622L486.775 1272.31l195.606-346.772c13.598-24.107-15.016-49.871-37.57-33.827L320.386 1122.49l319.739-237.23c22.227-16.492 6.566-51.667-20.563-46.184l-390.245 78.873 388.587-86.673c27.014-6.025 27.014-44.528 0-50.554l-388.587-86.673z"/><path opacity=".138" d="M243.671 668.722l378.14 97.274c26.805 6.896 44.285-27.411 22.951-45.044L343.801 472.208l305.882 242.667c21.683 17.202 51.606-7.03 39.288-31.815L515.202 333.406 695.939 679.51c12.812 24.534 50.003 14.568 48.831-13.085l-16.529-390.101 24.339 389.692c1.725 27.624 39.755 33.647 49.932 7.909L946.08 310.827l-136.268 365.9c-9.659 25.937 22.633 46.908 42.398 27.534l278.84-273.312L857.74 709.79c-19.374 19.766 1.597 52.058 27.534 42.399l365.896-136.267-363.094 143.567c-25.738 10.177-19.715 48.207 7.909 49.932l389.695 24.338-390.105-16.529c-27.652-1.171-37.618 36.02-13.084 48.832L1228.59 1046.8 878.941 873.03c-24.786-12.318-49.017 17.605-31.815 39.288L1089.79 1218.2 841.049 917.239c-17.633-21.334-51.94-3.854-45.044 22.951l97.275 378.14-104.829-376.116c-7.431-26.661-45.882-24.646-50.485 2.646l-64.939 385.01 57.215-386.234c4.056-27.378-31.89-41.177-47.196-18.117L467.122 1250.83l209.366-329.57c14.841-23.362-12.385-50.588-35.747-35.747L311.167 1094.88l325.314-215.925c23.061-15.306 9.262-51.252-18.117-47.197l-386.236 57.215 385.013-64.938c27.292-4.604 29.307-43.054 2.646-50.485L243.671 668.722z"/><path opacity=".172" d="M259.208 644.583l365.2 114.631c26.407 8.288 45.659-25.057 25.277-43.782L367.814 456.477l287.001 253.258c20.753 18.313 51.903-4.318 40.899-29.715L543.537 328.802l159.18 348.1c11.51 25.171 49.173 17.166 49.45-10.51L756 283.643l3.833 382.748c.277 27.677 37.939 35.682 49.449 10.511l159.179-348.097L816.286 680.02c-11.004 25.397 20.146 48.028 40.899 29.715l287.005-253.259-281.876 258.956c-20.381 18.725-1.13 52.07 25.278 43.782l365.198-114.63-362.83 121.92c-26.235 8.816-22.211 47.109 5.285 50.278l380.255 43.82-381.057-36.196c-27.553-2.617-39.451 34.002-15.622 48.08l329.549 194.694-333.382-188.055c-24.106-13.598-49.87 15.016-33.827 37.569L1063.03 1228.6 834.959 921.2c-16.492-22.228-51.667-6.567-46.184 20.562l75.829 375.178-83.327-373.584c-6.025-27.014-44.529-27.014-50.554 0l-83.327 373.584 75.828-375.178c5.483-27.129-29.692-42.79-46.183-20.562l-228.075 307.4 221.873-311.906c16.043-22.553-9.721-51.167-33.828-37.569L303.625 1067.18l329.553-194.694c23.83-14.078 11.932-50.697-15.622-48.08l-381.051 36.196 380.25-43.82c27.495-3.169 31.52-41.462 5.284-50.277L259.208 644.583z"/><path opacity=".207" d="M275.848 621.688l351.5 130.904c25.937 9.66 46.907-22.632 27.534-42.398L392.329 442.329l267.864 262.553c19.766 19.374 52.058-1.596 42.399-27.534l-130.905-351.5 137.918 348.808c10.177 25.739 48.206 19.716 49.932-7.908l23.38-374.355-15.878 374.748c-1.172 27.653 36.02 37.618 48.831 13.084l173.622-332.478-166.928 335.889c-12.318 24.785 17.605 49.016 39.288 31.815l293.838-233.117-289.111 238.955c-21.334 17.632-3.854 51.939 22.951 45.044l363.25-93.445-361.306 100.701c-26.661 7.431-24.646 45.882 2.646 50.485l369.86 62.383-371.035-54.963c-27.379-4.056-41.177 31.89-18.117 47.196l312.512 207.42-316.603-201.12c-23.362-14.841-50.588 12.385-35.747 35.747l201.12 316.603-207.421-312.511c-15.306-23.06-51.252-9.262-47.196 18.117l54.963 371.034-62.383-369.859c-4.603-27.292-43.054-29.307-50.485-2.646L622.887 1302.79l93.445-363.259c6.896-26.805-27.411-44.285-45.044-22.951L432.334 1205.7 665.45 911.852c17.202-21.683-7.029-51.606-31.815-39.288L297.746 1039.49l332.479-173.619c24.534-12.812 14.568-50.003-13.085-48.832l-374.746 15.879 374.353-23.381c27.624-1.725 33.647-39.754 7.909-49.931L275.848 621.688z"/><path opacity=".241" d="M293.503 600.083l337.116 146.066c25.396 11.004 48.028-20.146 29.715-40.899l-243.09-275.477 248.558 270.554c18.725 20.381 52.07 1.13 43.781-25.278L599.555 324.511l117.026 348.265c8.816 26.235 47.109 22.211 50.277-5.285l42.061-364.983-34.743 365.752c-2.617 27.554 34.002 39.452 48.08 15.623l186.874-316.32-180.501 319.999c-13.598 24.106 15.016 49.87 37.569 33.827l299.382-212.964-295.057 218.917c-22.228 16.492-6.567 51.667 20.562 46.184l360.115-72.784-358.585 79.981c-27.014 6.025-27.014 44.529 0 50.554l358.585 79.982-360.115-72.784c-27.129-5.483-42.79 29.691-20.562 46.183l295.057 218.922-299.382-212.969c-22.553-16.043-51.167 9.721-37.569 33.828l180.501 320.001-186.874-316.322c-14.078-23.83-50.697-11.932-48.08 15.622l34.743 365.75-42.061-364.981c-3.168-27.496-41.461-31.52-50.277-5.284L599.556 1287.49l110.027-350.539c8.289-26.407-25.056-45.659-43.781-25.277L417.243 1182.23l243.091-275.48c18.313-20.753-4.319-51.903-29.715-40.899L293.503 1011.92l334.123-152.791c25.17-11.51 17.165-49.173-10.511-49.45L249.735 806l367.38-3.679c27.676-.277 35.681-37.939 10.511-49.449L293.503 600.083z"/><path opacity=".276" d="M312.083 579.815l322.128 160.089c24.785 12.318 49.016-17.605 31.814-39.288L442.462 418.814l229.162 277.268c17.633 21.334 51.94 3.854 45.044-22.951l-89.617-348.374 96.576 346.509c7.431 26.662 45.882 24.646 50.485-2.646l59.827-354.705-52.711 355.832c-4.056 27.379 31.89 41.178 47.196 18.117L1027.35 388.16 834.466 691.788c-14.841 23.362 12.385 50.588 35.748 35.747l303.626-192.883-299.703 198.926c-23.06 15.305-9.261 51.252 18.117 47.196l355.826-52.711-354.699 59.827c-27.292 4.603-29.307 43.054-2.645 50.484l346.504 96.576-348.369-89.617c-26.805-6.895-44.285 27.412-22.951 45.044l277.27 229.163-281.804-223.564c-21.683-17.201-51.606 7.03-39.288 31.815l160.089 322.129-166.508-318.858c-12.812-24.534-50.003-14.568-48.832 13.084l15.228 359.394-22.422-359.017c-1.726-27.623-39.755-33.647-49.932-7.908L577.455 1271.13l125.54-337.097c9.66-25.937-22.632-46.908-42.398-27.534L403.706 1158.3l251.797-256.895c19.374-19.766-1.597-52.058-27.534-42.398l-337.097 125.54 334.515-132.266c25.738-10.177 19.715-48.207-7.909-49.932l-359.014-22.422 359.392 15.227c27.652 1.172 37.618-36.019 13.084-48.831L312.083 579.815z"/><path opacity=".31" d="M331.496 560.913l306.616 172.954c24.107 13.598 49.87-15.016 33.827-37.569L467.884 409.443l209.759 282.711c16.492 22.227 51.667 6.566 46.184-20.563l-69.74-345.054 76.636 343.588c6.025 27.014 44.529 27.014 50.554 0l76.636-343.588-69.739 345.054c-5.483 27.129 29.691 42.79 46.183 20.563l209.763-282.712-204.059 286.856c-16.043 22.553 9.721 51.167 33.827 37.569L1180.5 560.914 877.414 739.973c-23.83 14.078-11.932 50.697 15.622 48.08l350.454-33.29-349.717 40.301c-27.496 3.169-31.521 41.462-5.285 50.278l333.692 112.13-335.87-105.425c-26.408-8.289-45.659 25.056-25.277 43.781l259.237 238.162-263.955-232.922c-20.753-18.313-51.903 4.319-40.899 29.715L955.371 1253.8 808.975 933.65c-11.51-25.17-49.173-17.165-49.45 10.511L756 1296.17l-3.525-352.009c-.277-27.676-37.939-35.681-49.45-10.511L556.629 1253.8l139.955-323.017c11.004-25.396-20.146-48.028-40.899-29.715L391.73 1133.99l259.238-238.162c20.382-18.725 1.13-52.07-25.277-43.781L289.818 957.472l333.694-112.13c26.236-8.816 22.211-47.109-5.285-50.278l-349.715-40.301 350.452 33.29c27.554 2.617 39.452-34.002 15.622-48.08l-303.09-179.06z"/><path opacity=".345" d="M351.653 543.415L642.31 728.058c23.362 14.841 50.589-12.385 35.747-35.747L493.416 401.656l190.425 286.898c15.306 23.061 51.253 9.262 47.197-18.117l-50.459-340.628 57.27 339.55c4.604 27.292 43.055 29.307 50.485 2.645l92.45-331.703-85.788 333.488c-6.895 26.805 27.412 44.285 45.044 22.952l219.37-265.423L845.4 701.081c-17.202 21.682 7.029 51.605 31.815 39.288l308.365-153.25-305.234 159.395c-24.534 12.811-14.569 50.003 13.084 48.831l344.03-14.577-343.669 21.464c-27.624 1.725-33.647 39.755-7.909 49.932L1206.11 978.78 883.411 858.603c-25.937-9.66-46.908 22.632-27.534 42.398l241.043 245.919-245.919-241.042c-19.766-19.374-52.058 1.596-42.399 27.533L928.779 1256.1 802.164 935.883c-10.177-25.739-48.207-19.716-49.932 7.908l-21.465 343.679 14.578-344.04c1.171-27.652-36.02-37.618-48.832-13.084L537.119 1235.58l153.249-308.365c12.318-24.786-17.605-49.017-39.288-31.815l-269.763 214.01L646.74 890.04c21.334-17.632 3.854-51.939-22.951-45.044l-333.488 85.788 331.703-92.449c26.661-7.431 24.646-45.882-2.646-50.485l-339.549-57.271 340.628 50.459c27.379 4.056 41.177-31.89 18.117-47.196L351.653 543.415z"/><path opacity=".379" d="M372.459 527.342L646.793 722.49c22.553 16.043 51.167-9.721 37.569-33.828L518.96 395.435l171.241 289.856c14.078 23.83 50.697 11.931 48.08-15.622l-31.836-335.153 38.542 334.448c3.168 27.496 41.461 31.52 50.277 5.284l107.235-319.126-100.822 321.21c-8.289 26.407 25.056 45.659 43.781 25.277L1073.22 453.69 850.469 706.121c-18.313 20.753 4.318 51.903 29.715 40.899l308.906-133.846L882.926 753.18c-25.171 11.51-17.165 49.172 10.511 49.449l336.643 3.372-336.643 3.371c-27.676.277-35.682 37.939-10.511 49.449L1189.1 998.827 880.184 864.981c-25.397-11.004-48.028 20.146-29.715 40.899l222.751 252.43-227.762-247.918c-18.725-20.382-52.07-1.13-43.781 25.277l100.822 321.211-107.235-319.127c-8.816-26.236-47.109-22.211-50.277 5.284l-38.542 334.453 31.836-335.158c2.617-27.553-34.002-39.451-48.08-15.622l-171.242 289.86 165.403-293.231c13.598-24.107-15.016-49.871-37.569-33.828L372.46 1084.66l270.369-200.603c22.228-16.492 6.567-51.667-20.562-46.184l-329.989 66.695 328.587-73.29c27.014-6.026 27.014-44.529 0-50.554l-328.587-73.291 329.989 66.695c27.129 5.483 42.79-29.692 20.562-46.183l-270.37-200.603z"/><path opacity=".414" d="M393.822 512.716l257.724 204.461c21.683 17.202 51.606-7.029 39.288-31.815l-146.409-294.6 152.28 291.609c12.811 24.534 50.003 14.568 48.831-13.084L731.61 340.604l20.506 328.338c1.725 27.624 39.755 33.647 49.932 7.908l120.965-305.931-114.814 308.293c-9.66 25.937 22.632 46.907 42.398 27.533l234.943-230.28-230.284 234.939c-19.374 19.766 1.597 52.058 27.534 42.399l308.29-114.814-305.929 120.965c-25.738 10.177-19.715 48.206 7.909 49.932l328.33 20.506-328.675-13.927c-27.653-1.171-37.618 36.02-13.085 48.832l291.61 152.283-294.601-146.413c-24.785-12.317-49.016 17.606-31.815 39.288l204.466 257.725-209.586-253.578c-17.633-21.334-51.94-3.854-45.044 22.951l81.958 318.597-88.322-316.892c-7.431-26.661-45.882-24.646-50.485 2.646L683.096 1266.3l48.207-325.427c4.056-27.378-31.89-41.177-47.196-18.117L502.179 1196.85l176.402-277.682c14.841-23.362-12.385-50.588-35.747-35.747L365.15 1059.82l274.095-181.925c23.06-15.306 9.262-51.252-18.117-47.196l-325.426 48.207 324.395-54.715c27.292-4.603 29.307-43.054 2.646-50.485l-316.898-88.323 318.603 81.959c26.805 6.895 44.286-27.412 22.952-45.044L393.822 512.716z"/><path opacity=".448" d="M415.647 499.545l240.909 212.586c20.753 18.313 51.903-4.319 40.899-29.715L569.72 387.609l133.613 292.19c11.511 25.17 49.173 17.165 49.45-10.511L756 348.011l3.218 321.277c.277 27.676 37.939 35.681 49.449 10.511l133.615-292.193-127.736 294.81c-11.004 25.396 20.146 48.028 40.899 29.715l240.905-212.584-236.599 217.366c-20.382 18.725-1.13 52.07 25.277 43.781l306.542-96.22-304.554 102.34c-26.235 8.816-22.211 47.109 5.285 50.277l319.179 36.782-319.852-30.382c-27.553-2.617-39.452 34.002-15.622 48.08L1152.63 1035 872.789 877.144c-24.107-13.598-49.871 15.015-33.828 37.569L1025.2 1176.52 833.755 918.495c-16.491-22.227-51.666-6.567-46.183 20.562l63.65 314.923-69.944-313.585c-6.026-27.013-44.529-27.014-50.555 0l-69.944 313.585 63.65-314.923c5.483-27.129-29.692-42.789-46.184-20.562L486.801 1176.52 673.04 914.713c16.043-22.554-9.721-51.167-33.828-37.569L359.37 1035l276.625-163.429c23.829-14.078 11.931-50.697-15.622-48.08L300.52 853.874l319.18-36.783c27.496-3.168 31.52-41.461 5.284-50.277l-304.557-102.34 306.546 96.22c26.407 8.289 45.659-25.056 25.277-43.781L415.647 499.545z"/><path opacity=".483" d="M437.841 487.841l223.965 219.524c19.766 19.374 52.058-1.597 42.398-27.534L594.755 385.943 710.068 677.58c10.177 25.739 48.207 19.715 49.932-7.908l19.548-312.998L766.272 670c-1.172 27.653 36.02 37.618 48.832 13.085l145.167-277.989L820.7 685.936c-12.318 24.786 17.605 49.017 39.288 31.815l245.682-194.909-241.729 199.79c-21.334 17.633-3.854 51.94 22.951 45.044l303.718-78.13-302.092 84.197c-26.662 7.431-24.647 45.882 2.645 50.485l309.237 52.158-310.219-45.954c-27.379-4.056-41.177 31.89-18.117 47.196l261.296 173.432-264.717-168.164c-23.362-14.841-50.588 12.385-35.747 35.747l168.164 264.707-173.432-261.286c-15.306-23.06-51.252-9.262-47.196 18.117l45.955 310.219-52.159-309.237c-4.603-27.292-43.054-29.307-50.485-2.645l-84.197 302.092 78.13-303.718c6.896-26.805-27.411-44.285-45.044-22.951l-199.79 241.729 194.909-245.682c17.202-21.683-7.029-51.606-31.815-39.288l-280.84 139.57 277.989-145.166c24.533-12.812 14.568-50.003-13.085-48.832l-313.327 13.276L619.672 810c27.623-1.725 33.646-39.755 7.908-49.932L335.941 644.755l293.89 109.449c25.937 9.66 46.908-22.632 27.534-42.398L437.841 487.841z"/><path opacity=".517" d="M460.312 477.606l206.971 225.286c18.725 20.382 52.07 1.13 43.781-25.277l-91.617-291.883 97.444 289.989c8.816 26.236 47.109 22.211 50.277-5.284l35.023-303.913-28.929 304.553c-2.618 27.554 34.002 39.452 48.08 15.622L976.95 423.305 826.648 689.763c-13.598 24.107 15.016 49.871 37.569 33.827L1113.5 546.26 867.818 728.547c-22.227 16.492-6.566 51.667 20.563 46.184l299.859-60.606-298.586 66.599c-27.013 6.025-27.013 44.529 0 50.554l298.586 66.598-299.859-60.605c-27.129-5.483-42.79 29.692-20.563 46.184L1113.5 1065.74 864.217 888.412c-22.553-16.044-51.167 9.72-37.569 33.827L976.949 1188.7 821.342 925.303c-14.078-23.83-50.698-11.932-48.08 15.622l28.929 304.555-35.023-303.915c-3.168-27.495-41.461-31.52-50.277-5.284l-97.445 289.989 91.618-291.882c8.289-26.408-25.056-45.659-43.781-25.278l-206.97 225.28 202.416-229.379c18.313-20.753-4.319-51.903-29.715-40.9L352.306 985.738l278.216-127.224c25.171-11.51 17.166-49.172-10.511-49.449l-305.908-3.064 305.908-3.063c27.677-.278 35.682-37.94 10.511-49.45L352.306 626.265l280.708 121.626c25.396 11.003 48.028-20.147 29.715-40.899L460.312 477.606z"/><path opacity=".552" d="M482.968 468.833l190.001 229.885c17.632 21.334 51.939 3.854 45.044-22.951l-74.301-288.834 80.07 287.288c7.431 26.662 45.882 24.647 50.485-2.646l49.603-294.086-43.703 295.021c-4.056 27.379 31.89 41.177 47.196 18.117L992.294 442.14 832.373 693.88c-14.841 23.362 12.385 50.588 35.747 35.747l251.74-159.919-248.487 164.929c-23.06 15.306-9.261 51.252 18.117 47.196l295.02-43.703-294.085 49.603c-27.292 4.603-29.307 43.054-2.646 50.485l287.291 80.07-288.837-74.301c-26.805-6.895-44.285 27.412-22.951 45.045l229.888 189.998-233.647-185.356c-21.683-17.202-51.606 7.029-39.288 31.814l132.73 267.072L814.913 928.2c-12.812-24.534-50.004-14.568-48.832 13.084l12.625 297.976-18.59-297.663c-1.725-27.624-39.755-33.647-49.932-7.908L600.521 1211.04l104.087-279.492c9.659-25.937-22.632-46.908-42.398-27.534L449.221 1112.78l208.765-212.989c19.374-19.766-1.597-52.058-27.534-42.399L350.964 961.479l277.348-109.663c25.738-10.177 19.715-48.207-7.909-49.932l-297.659-18.59 297.972 12.625c27.652 1.172 37.618-36.02 13.084-48.831L369.435 609.035l267.077 132.73c24.785 12.318 49.016-17.605 31.815-39.288L482.968 468.833z"/><path opacity=".586" d="M505.718 461.517L678.847 694.86c16.492 22.227 51.667 6.566 46.184-20.563L667.47 389.502l63.253 283.586c6.025 27.013 44.529 27.013 50.554 0L844.53 389.5l-57.561 284.797c-5.483 27.129 29.692 42.79 46.184 20.563l173.127-233.344L837.861 698.28c-16.044 22.554 9.72 51.167 33.827 37.569l253.072-142.75-250.162 147.79c-23.83 14.078-11.932 50.697 15.622 48.08l289.25-27.477-288.642 33.264c-27.496 3.169-31.52 41.461-5.284 50.277l275.416 92.549-277.215-87.014c-26.407-8.289-45.659 25.056-25.277 43.781l213.972 196.571-217.866-192.246c-20.752-18.313-51.902 4.319-40.899 29.715l115.516 266.601-120.832-264.235c-11.51-25.17-49.172-17.165-49.449 10.511L756 1231.81l-2.91-290.544c-.277-27.676-37.939-35.681-49.449-10.511L582.809 1195l115.516-266.611c11.004-25.397-20.147-48.028-40.899-29.715L439.565 1090.92l213.967-196.571c20.382-18.725 1.13-52.07-25.277-43.781l-277.221 87.015 275.423-92.55c26.235-8.816 22.211-47.108-5.285-50.277l-288.645-33.263 289.253 27.476c27.554 2.617 39.452-34.002 15.622-48.08L387.241 593.098l253.071 142.751c24.107 13.598 49.871-15.016 33.827-37.569L505.718 461.517z"/><path opacity=".621" d="M528.471 455.636l156.432 235.682c15.305 23.06 51.252 9.262 47.196-18.117l-41.451-279.816 47.046 278.93c4.604 27.292 43.055 29.307 50.485 2.645l75.945-272.485-70.472 273.952c-6.896 26.805 27.411 44.285 45.044 22.951L1018.9 481.34 843.099 702.943c-17.202 21.683 7.029 51.606 31.814 39.288l253.317-125.89-250.745 130.938c-24.533 12.812-14.568 50.003 13.085 48.832l282.62-11.975-282.324 17.632c-27.623 1.726-33.647 39.755-7.908 49.932l263.052 104.011-265.082-98.722c-25.938-9.659-46.908 22.633-27.534 42.398L1051.4 1101.4 849.388 903.393c-19.766-19.374-52.058 1.597-42.399 27.534l98.723 265.083L801.7 932.958c-10.177-25.739-48.206-19.716-49.931 7.908l-17.633 282.324 11.975-282.621c1.172-27.652-36.02-37.618-48.832-13.084L566.341 1178.23l125.891-253.317c12.317-24.785-17.606-49.016-39.288-31.815L431.34 1068.9l218.038-180.205c21.334-17.632 3.854-51.939-22.951-45.044l-273.952 70.473 272.486-75.945c26.661-7.431 24.646-45.882-2.646-50.485l-278.932-47.046 279.818 41.45c27.379 4.056 41.178-31.89 18.117-47.196L405.637 578.471l238.767 151.68c23.362 14.841 50.588-12.385 35.747-35.747l-151.68-238.768z"/><path opacity=".655" d="M551.142 451.177l139.974 236.93c14.078 23.83 50.697 11.932 48.08-15.622l-26.023-273.952 31.504 273.376c3.169 27.496 41.462 31.52 50.278 5.284l87.653-260.853-82.412 262.556c-8.289 26.408 25.056 45.66 43.781 25.278l186.173-202.65-182.077 206.337c-18.313 20.753 4.319 51.903 29.715 40.9l252.502-109.406-250.26 114.441c-25.171 11.51-17.165 49.172 10.511 49.449l275.169 2.756-275.169 2.756c-27.676.277-35.682 37.939-10.511 49.449l250.26 114.44-252.502-109.405c-25.396-11.004-48.028 20.146-29.715 40.899l182.077 206.34-186.173-202.652c-18.724-20.382-52.07-1.13-43.781 25.277l82.412 262.555-87.654-260.852c-8.816-26.235-47.108-22.211-50.277 5.285l-31.504 273.377 26.023-273.953c2.617-27.554-34.002-39.452-48.08-15.622L551.142 1160.83l135.201-239.691c13.598-24.107-15.016-49.871-37.569-33.828L424.535 1046.82l220.999-163.967c22.228-16.492 6.567-51.667-20.562-46.184l-269.734 54.516 268.588-59.907c27.014-6.025 27.014-44.529 0-50.554l-268.587-59.907 269.733 54.516c27.129 5.483 42.79-29.692 20.562-46.184l-221-163.972 224.24 159.513c22.553 16.044 51.167-9.72 37.569-33.827L551.142 451.177z"/><path opacity=".69" d="M573.646 448.096l123.825 237.119c12.812 24.534 50.003 14.568 48.832-13.084l-11.324-267.262 16.674 266.981c1.725 27.624 39.755 33.647 49.932 7.909l98.36-248.763-93.359 250.683c-9.659 25.937 22.633 46.907 42.399 27.533l191.035-187.249-187.247 191.038c-19.374 19.766 1.597 52.058 27.534 42.398l250.683-93.358-248.763 98.36c-25.739 10.177-19.715 48.206 7.908 49.932l266.985 16.674-267.265-11.324c-27.653-1.172-37.618 36.02-13.085 48.831l237.12 123.824-239.552-119.05c-24.785-12.318-49.016 17.605-31.814 39.288l166.256 209.564-170.42-206.192c-17.633-21.334-51.94-3.854-45.044 22.951l66.643 259.071-71.818-257.685c-7.431-26.661-45.882-24.646-50.485 2.646l-44.49 263.779 39.198-264.617c4.056-27.379-31.89-41.177-47.196-18.117L537.235 1142.85l143.44-225.792c14.841-23.362-12.386-50.588-35.748-35.747L419.134 1024.75 642.01 876.818c23.06-15.306 9.261-51.252-18.118-47.197L359.277 868.82l263.777-44.49c27.292-4.604 29.307-43.054 2.646-50.485l-257.681-71.819 259.068 66.644c26.805 6.895 44.285-27.412 22.951-45.044L443.845 553.207 653.41 719.462c21.682 17.202 51.605-7.029 39.288-31.815L573.646 448.096z"/><path opacity=".724" d="M595.899 446.393l108.05 236.286c11.51 25.171 49.172 17.166 49.449-10.51L756 412.365l2.602 259.804c.277 27.676 37.939 35.681 49.449 10.51l108.05-236.285-103.296 238.402c-11.004 25.396 20.147 48.028 40.899 29.715l194.816-171.91-191.334 175.777c-20.382 18.725-1.13 52.07 25.277 43.781l247.897-77.809-246.289 82.758c-26.236 8.816-22.211 47.109 5.285 50.277l258.114 29.745-258.658-24.569c-27.554-2.618-39.452 34.001-15.622 48.079l223.7 132.16-226.302-127.653c-24.107-13.598-49.871 15.016-33.827 37.569l150.605 211.714-154.815-208.655c-16.492-22.228-51.667-6.567-46.184 20.562l51.472 254.673-56.562-253.591c-6.025-27.014-44.529-27.014-50.554 0L674.162 1191l51.471-254.663c5.483-27.129-29.692-42.79-46.183-20.562L524.634 1124.43 675.24 912.716c16.043-22.553-9.721-51.167-33.828-37.569L415.114 1002.8l223.697-132.16c23.829-14.078 11.931-50.697-15.623-48.079L364.533 847.13l258.112-29.745c27.495-3.168 31.52-41.461 5.284-50.277l-246.286-82.759 247.894 77.81c26.407 8.289 45.659-25.056 25.277-43.781L463.482 542.601l194.814 171.91c20.753 18.313 51.903-4.319 40.899-29.715L595.899 446.393z"/><path opacity=".759" d="M617.821 446.019l92.71 234.471c10.177 25.739 48.207 19.716 49.932-7.908l15.716-251.643-10.673 251.907c-1.172 27.653 36.02 37.618 48.831 13.085l116.711-223.496-112.211 225.788c-12.318 24.785 17.605 49.017 39.288 31.815l197.525-156.703-194.347 160.627c-21.334 17.633-3.854 51.94 22.951 45.044l244.186-62.815-242.879 67.693c-26.662 7.431-24.646 45.882 2.645 50.485l248.624 41.934-249.413-36.946c-27.379-4.056-41.178 31.89-18.117 47.196l210.07 139.427-212.821-135.192c-23.362-14.841-50.588 12.385-35.747 35.747L966 1129.36 826.567 919.286c-15.306-23.061-51.252-9.262-47.196 18.116l36.946 249.408-41.934-248.617c-4.603-27.292-43.054-29.308-50.485-2.646l-67.692 242.873 62.814-244.18c6.896-26.805-27.411-44.285-45.044-22.951L513.348 1105.64l156.704-197.529c17.202-21.683-7.029-51.606-31.815-39.288l-225.788 112.21 223.496-116.71c24.533-12.811 14.568-50.003-13.085-48.831l-251.909 10.673 251.645-15.716c27.624-1.725 33.647-39.755 7.908-49.932l-234.471-92.709 236.281 87.995c25.937 9.659 46.908-22.633 27.534-42.399L483.356 533.342l180.062 176.492c19.766 19.374 52.058-1.597 42.399-27.534l-87.996-236.281z"/><path opacity=".793" d="M639.337 446.932l77.864 231.719c8.816 26.236 47.108 22.211 50.277-5.285l27.985-242.841-23.116 243.353c-2.617 27.554 34.002 39.452 48.08 15.622l124.339-210.465-120.099 212.913c-13.598 24.107 15.015 49.871 37.569 33.828l199.194-141.697-196.316 145.657c-22.228 16.492-6.567 51.667 20.562 46.184l239.604-48.427-238.587 53.216c-27.013 6.025-27.013 44.529.001 50.554l238.586 53.216-239.604-48.427c-27.129-5.483-42.79 29.692-20.563 46.183l196.317 145.655-199.194-141.694c-22.554-16.043-51.167 9.721-37.569 33.828l120.099 212.916-124.339-210.469c-14.078-23.829-50.697-11.931-48.08 15.623l23.116 243.356-27.985-242.845c-3.169-27.495-41.461-31.52-50.277-5.284l-77.864 231.719 73.207-233.232c8.289-26.407-25.056-45.659-43.781-25.277L503.382 1086.55l161.743-183.295c18.313-20.753-4.319-51.903-29.715-40.899l-224.301 97.185 222.31-101.658c25.17-11.51 17.165-49.172-10.511-49.449l-244.439-2.448 244.439-2.448c27.676-.277 35.681-37.939 10.51-49.449L411.109 652.43l224.301 97.186c25.396 11.004 48.028-20.146 29.715-40.899L503.383 525.426l165.38 180.015c18.725 20.382 52.07 1.13 43.781-25.277l-73.207-233.232z"/><path opacity=".828" d="M660.37 449.091l63.567 228.074c7.431 26.661 45.882 24.646 50.485-2.646L813.8 441.053l-34.694 234.208c-4.056 27.379 31.89 41.177 47.196 18.117L957.236 496.11 830.279 695.96c-14.841 23.363 12.385 50.589 35.747 35.748l199.854-126.957-197.271 130.934c-23.06 15.306-9.262 51.252 18.117 47.196l234.214-34.695-233.472 39.379c-27.292 4.603-29.307 43.054-2.646 50.484l228.068 63.567-229.295-58.986c-26.805-6.896-44.286 27.411-22.952 45.044l182.497 150.836-185.481-147.151c-21.683-17.202-51.605 7.029-39.288 31.815L923.743 1135.2 814.146 925.327c-12.812-24.534-50.003-14.568-48.831 13.084l10.023 236.549-14.759-236.301c-1.725-27.623-39.755-33.647-49.932-7.908l-87.058 220.179 82.631-221.879c9.66-25.937-22.632-46.907-42.398-27.533L494.734 1067.25l165.735-169.085c19.374-19.766-1.597-52.058-27.534-42.399l-221.878 82.632 220.179-87.059c25.738-10.177 19.715-48.206-7.909-49.931l-236.306-14.759 236.555 10.023c27.652 1.172 37.618-36.02 13.084-48.831L426.787 638.244l212.026 105.371c24.785 12.318 49.016-17.605 31.815-39.288L523.476 518.843l150.837 182.5c17.632 21.334 51.939 3.854 45.044-22.951L660.37 449.091z"/><path opacity=".862" d="M680.853 452.444l49.87 223.588c6.025 27.014 44.529 27.014 50.554 0l49.87-223.586-45.382 224.54c-5.483 27.129 29.692 42.79 46.184 20.563l136.5-183.974-132.789 186.67c-16.043 22.554 9.721 51.168 33.828 37.569l199.532-112.548-197.238 116.522c-23.83 14.078-11.932 50.697 15.622 48.08l228.056-21.663-227.576 26.226c-27.496 3.168-31.521 41.461-5.285 50.277l217.151 72.968-218.569-68.605c-26.407-8.288-45.659 25.057-25.277 43.782L1024.6 1047.83 852.834 896.262c-20.753-18.313-51.903 4.319-40.899 29.715l91.076 210.203-95.267-208.337c-11.51-25.17-49.173-17.165-49.45 10.511L756 1167.42l-2.294-229.066c-.277-27.676-37.939-35.681-49.449-10.511L608.99 1136.18l91.075-210.203c11.004-25.396-20.146-48.028-40.899-29.715L487.398 1047.84l168.698-154.987c20.382-18.725 1.13-52.07-25.277-43.782l-218.567 68.605 217.149-72.968c26.236-8.816 22.211-47.109-5.284-50.277l-227.576-26.226 228.055 21.663c27.554 2.617 39.452-34.002 15.623-48.08L442.985 625.266l199.528 112.548c24.106 13.598 49.87-15.015 33.827-37.569l-132.788-186.67 136.5 183.974c16.492 22.227 51.666 6.566 46.183-20.563l-45.382-224.542z"/><path opacity=".897" d="M700.718 456.943l36.822 218.314c4.603 27.292 43.054 29.307 50.485 2.646l59.44-213.268-55.157 214.415c-6.896 26.805 27.411 44.286 45.044 22.952l141.046-170.654-137.6 173.444c-17.202 21.683 7.029 51.606 31.815 39.288l198.267-98.532-196.254 102.483c-24.534 12.812-14.569 50.003 13.084 48.832l221.2-9.373-220.968 13.801c-27.623 1.725-33.647 39.754-7.908 49.931l205.886 81.408-207.475-77.268c-25.937-9.659-46.908 22.632-27.534 42.398l154.979 158.11-158.114-154.974c-19.766-19.374-52.058 1.596-42.399 27.534l77.268 207.48-81.407-205.891c-10.177-25.739-48.207-19.716-49.932 7.908l-13.801 220.963 9.373-221.195c1.171-27.653-36.02-37.618-48.832-13.084L595.564 1120.86l98.531-198.262c12.318-24.786-17.605-49.017-39.288-31.815L481.362 1028.38l170.655-141.043c21.334-17.633 3.854-51.94-22.951-45.044L414.65 897.45l213.268-59.44c26.661-7.431 24.646-45.882-2.646-50.485l-218.314-36.823 219.008 32.443c27.378 4.056 41.177-31.89 18.117-47.196L459.62 613.514 646.498 732.23c23.362 14.841 50.588-12.385 35.747-35.747L563.529 509.605l122.435 184.463c15.306 23.06 51.252 9.261 47.196-18.117l-32.442-219.008z"/><path opacity=".931" d="M719.901 462.53l24.467 212.309c3.169 27.496 41.461 31.52 50.277 5.285l68.073-202.581-64.002 203.903c-8.289 26.408 25.056 45.659 43.781 25.277l144.585-157.379-141.404 160.243c-18.313 20.753 4.319 51.903 29.715 40.9l196.097-84.966-194.356 88.876c-25.171 11.51-17.165 49.172 10.511 49.449l213.705 2.14-213.705 2.141c-27.676.277-35.682 37.939-10.511 49.449l194.356 88.876-196.097-84.966c-25.396-11.003-48.028 20.147-29.715 40.899l141.403 160.245-144.584-157.381c-18.725-20.381-52.07-1.13-43.781 25.278l64.002 203.903-68.073-202.581c-8.816-26.236-47.108-22.211-50.277 5.285l-24.466 212.306 20.209-212.754c2.617-27.553-34.002-39.452-48.08-15.622L583.327 1105.06l104.997-186.136c13.598-24.107-15.015-49.871-37.569-33.827L476.607 1008.98 648.24 881.634c22.227-16.492 6.566-51.667-20.563-46.184L418.2 877.788l208.587-46.525c27.014-6.025 27.014-44.528 0-50.554l-208.588-46.524 209.478 42.338c27.129 5.483 42.79-29.692 20.562-46.184l-171.63-127.342 174.146 123.879c22.554 16.044 51.167-9.72 37.569-33.827L583.327 506.907l108.704 184.002c14.078 23.829 50.697 11.931 48.08-15.622l-20.21-212.757z"/><path opacity=".966" d="M738.347 469.147l12.843 205.629c1.725 27.624 39.754 33.647 49.931 7.908l75.757-191.595-71.904 193.074c-9.66 25.937 22.632 46.908 42.398 27.534l147.136-144.218L850.29 714.615c-19.374 19.766 1.596 52.057 27.534 42.398l193.076-71.904-191.598 75.756c-25.738 10.177-19.715 48.207 7.909 49.932l205.629 12.843-205.845-8.722c-27.653-1.172-37.618 36.02-13.085 48.831l182.63 95.369-184.503-91.692c-24.785-12.318-49.016 17.605-31.815 39.288L968.27 1068.12 837.016 909.311c-17.633-21.334-51.94-3.854-45.045 22.951L843.3 1131.79l-55.314-198.46c-7.431-26.662-45.882-24.646-50.485 2.646l-34.266 203.154 30.19-203.8c4.056-27.379-31.89-41.177-47.196-18.117L572.293 1088.87l110.475-173.904c14.841-23.362-12.385-50.589-35.747-35.747L473.115 989.695l171.659-113.937c23.06-15.306 9.261-51.252-18.117-47.196l-203.805 30.19 203.159-34.266c27.292-4.603 29.307-43.054 2.646-50.485l-198.466-55.315 199.534 51.329c26.805 6.896 44.285-27.411 22.951-45.044L493.868 593.716l161.405 128.048c21.683 17.202 51.606-7.029 39.288-31.814l-91.692-184.501 95.368 182.627c12.812 24.534 50.004 14.569 48.832-13.084l-8.722-205.845z"/><path d="M756 476.729l1.986 198.336c.278 27.676 37.94 35.681 49.45 10.511l82.484-180.379-78.855 181.994c-11.004 25.396 20.146 48.028 40.899 29.715l148.716-131.235-146.058 134.188c-20.382 18.724-1.13 52.07 25.277 43.781l189.241-59.4-188.013 63.178c-26.236 8.816-22.211 47.108 5.284 50.277l197.039 22.707-197.454-18.756c-27.554-2.618-39.452 34.002-15.622 48.08l170.766 100.887-172.752-97.447c-24.107-13.598-49.871 15.016-33.828 37.569l114.971 161.625-118.185-159.29c-16.491-22.228-51.666-6.567-46.183 20.562l39.293 194.418-43.179-193.592c-6.025-27.014-44.529-27.014-50.554 0l-43.179 193.592 39.293-194.418c5.483-27.129-29.691-42.79-46.183-20.562l-118.185 159.29L677.44 910.735c16.043-22.553-9.72-51.167-33.827-37.569l-172.757 97.448 170.77-100.888c23.83-14.078 11.932-50.698-15.622-48.08l-197.455 18.756 197.04-22.707c27.496-3.169 31.52-41.461 5.284-50.277L442.86 704.24l189.241 59.4c26.407 8.289 45.659-25.057 25.277-43.781L511.316 585.671l148.72 131.235c20.753 18.313 51.903-4.318 40.899-29.715L622.08 505.196l82.484 180.38c11.51 25.17 49.173 17.165 49.45-10.511L756 476.729z"/></g><defs><filter id="aofilter0_f_1189_37293" x="-195" y="220" width="1931" height="1523" filterUnits="userSpaceOnUse" color-interpolation-filters="sRGB"><feFlood flood-opacity="0" result="BackgroundImageFix"/><feBlend in="SourceGraphic" in2="BackgroundImageFix" result="shape"/><feGaussianBlur stdDeviation="197.5" result="effect1_foregroundBlur_1189_37293"/></filter></defs></svg>