<?xml version="1.0" encoding="utf-8"?><svg width="629" height="335" fill="none" xmlns="http://www.w3.org/2000/svg" viewBox="0 0 629 335"><g opacity=".8" filter="url(#aqfilter0_f_1308_24158)"><path d="M301.5 122.421c51.5 0 212.5-33.003 212.5 41.614 0 74.618-101.809 54.021-220.5 49.513-118.69-4.508-178.5-1.002-178.5-49.512 0-48.511 16.783-41.615 186.5-41.615z" fill="#4264FB"/></g><g filter="url(#aqfilter1_b_1308_24158)"><path d="M99 207.57c0 15.464 12.536 28 28 28h374.015c1.846 0 3.635.638 5.064 1.806l32.655 26.701c1.306 1.067 3.266.138 3.266-1.549v-145.11c0-15.464-12.536-28-28-28H127c-15.464 0-28 12.536-28 28v90.152z" fill="#fff" fill-opacity=".06"/></g><defs><filter id="aqfilter0_f_1308_24158" x="0" y=".149" width="629" height="334.413" filterUnits="userSpaceOnUse" color-interpolation-filters="sRGB"><feFlood flood-opacity="0" result="BackgroundImageFix"/><feBlend in="SourceGraphic" in2="BackgroundImageFix" result="shape"/><feGaussianBlur stdDeviation="57.5" result="effect1_foregroundBlur_1308_24158"/></filter><filter id="aqfilter1_b_1308_24158" x="44" y="34.418" width="553" height="285.114" filterUnits="userSpaceOnUse" color-interpolation-filters="sRGB"><feFlood flood-opacity="0" result="BackgroundImageFix"/><feGaussianBlur in="BackgroundImageFix" stdDeviation="27.5"/><feComposite in2="SourceAlpha" operator="in" result="effect1_backgroundBlur_1308_24158"/><feBlend in="SourceGraphic" in2="effect1_backgroundBlur_1308_24158" result="shape"/></filter></defs></svg>