<?xml version="1.0" encoding="utf-8"?><svg width="629" height="336" fill="none" xmlns="http://www.w3.org/2000/svg" viewBox="0 0 629 336"><g opacity=".8" filter="url(#apfilter0_f_1303_24157)"><path d="M327.5 123.24c-51.5 0-212.5-33.003-212.5 41.615 0 74.617 101.809 54.02 220.5 49.512 118.69-4.507 178.5-1.001 178.5-49.512s-16.783-41.615-186.5-41.615z" fill="#4264FB"/></g><g filter="url(#apfilter1_b_1303_24157)"><path d="M530 208.389c0 15.464-12.536 28-28 28H127.985a7.997 7.997 0 00-5.064 1.807l-32.655 26.7c-1.306 1.068-3.266.139-3.266-1.548V118.237c0-15.464 12.536-28 28-28h387c15.464 0 28 12.536 28 28v90.152z" fill="#fff" fill-opacity=".06"/></g><defs><filter id="apfilter0_f_1303_24157" x="0" y=".969" width="629" height="334.413" filterUnits="userSpaceOnUse" color-interpolation-filters="sRGB"><feFlood flood-opacity="0" result="BackgroundImageFix"/><feBlend in="SourceGraphic" in2="BackgroundImageFix" result="shape"/><feGaussianBlur stdDeviation="57.5" result="effect1_foregroundBlur_1303_24157"/></filter><filter id="apfilter1_b_1303_24157" x="32" y="35.237" width="553" height="285.114" filterUnits="userSpaceOnUse" color-interpolation-filters="sRGB"><feFlood flood-opacity="0" result="BackgroundImageFix"/><feGaussianBlur in="BackgroundImageFix" stdDeviation="27.5"/><feComposite in2="SourceAlpha" operator="in" result="effect1_backgroundBlur_1303_24157"/><feBlend in="SourceGraphic" in2="effect1_backgroundBlur_1303_24157" result="shape"/></filter></defs></svg>