<?xml version="1.0" encoding="utf-8"?><svg width="240" height="54" fill="none" xmlns="http://www.w3.org/2000/svg" viewBox="0 0 240 54"><path d="M137.698 43.405c-4.35 0-8.26-1.45-10.94-4.305l1.406-1.45c2.636 2.592 5.843 3.69 9.446 3.69 7.864 0 13.794-5.799 13.794-13.53 0-7.733-5.93-13.532-13.794-13.532-3.603 0-6.81 1.055-9.446 3.647l-1.406-1.45c2.68-2.856 6.59-4.262 10.94-4.262 9.138 0 15.947 6.634 15.947 15.596 0 8.963-6.809 15.596-15.947 15.596zM160.488 43.184h2.241V12.432h-2.241v30.752zM185.482 43.404c7.644 0 12.345-4.481 12.345-13.267V12.432h-2.241v17.617c0 7.688-3.646 11.29-10.06 11.29-6.414 0-10.104-3.602-10.104-11.29V12.432h-2.241v17.705c0 8.786 4.657 13.267 12.301 13.267zM239.561 43.184l-.044-30.752h-1.845l-13.751 23.767-13.75-23.767h-1.89v30.752h2.197V16.957l12.872 22.142h1.099l12.872-22.23.044 26.315h2.196z" fill="#fff"/><path fill-rule="evenodd" clip-rule="evenodd" d="M102.615 20.557c-5.516 1.327-11.146-1.806-12.924-7.199 5.516-1.327 11.147 1.806 12.924 7.2z" fill="#fff"/><path d="M75.32 21.012c2.176-3.767 5.386-6.428 9.199-7.32l.553 1.941c-3.563.987-6.118 3.216-7.919 6.335-3.932 6.81-1.875 14.846 4.82 18.713 6.697 3.866 14.685 1.629 18.617-5.181 1.801-3.12 2.491-6.425 1.564-10.004l1.959-.492c1.133 3.748.395 7.837-1.779 11.604-4.57 7.914-13.719 10.494-21.48 6.013-7.762-4.481-10.102-13.695-5.533-21.609zM0 43.183h2.24V12.431H0v30.752zM35.757 12.43v26.711l-20.911-26.71h-1.89v30.752h2.241v-26.71l20.956 26.71h1.845V12.431h-2.24zM56.82 43.403c7.601 0 11.072-3.778 11.072-8.128 0-11.158-19.199-5.71-19.199-14.937 0-3.382 2.68-6.15 8.655-6.15 2.768 0 5.887.835 8.435 2.592l.835-1.801c-2.373-1.714-5.887-2.768-9.27-2.768-7.556 0-10.895 3.822-10.895 8.171 0 11.335 19.198 5.8 19.198 15.025 0 3.339-2.724 6.019-8.874 6.019-4.13 0-8.04-1.67-10.148-3.866l-1.01 1.67c2.24 2.46 6.633 4.173 11.202 4.173zM137.752 54a27 27 0 110-54v2.057a24.944 24.944 0 100 49.886V54z" fill="#fff"/></svg>