<?xml version="1.0" encoding="utf-8"?><svg width="42" height="42" fill="none" xmlns="http://www.w3.org/2000/svg" viewBox="0 0 42 42"><circle cx="21" cy="21" r="20.5" fill="#222B48" stroke="#222B48"/><path d="M15.584 5.04L11.76 35.358h19.047L26.374 5.04h-10.79z" fill="#fff" stroke="#222B48" stroke-width=".3" stroke-miterlimit="10"/><path d="M21.224 17.736c1.95 0 3.532-1.601 3.532-3.577 0-1.975-1.581-3.577-3.532-3.577-1.95 0-3.532 1.602-3.532 3.577 0 1.976 1.581 3.577 3.532 3.577z" fill="#fff" stroke="#222B48" stroke-width=".3" stroke-miterlimit="10"/><path d="M21.239 16.738c1.405 0 2.545-1.154 2.545-2.578 0-1.423-1.14-2.578-2.545-2.578-1.406 0-2.546 1.155-2.546 2.578 0 1.424 1.14 2.578 2.546 2.578z" fill="#222B48" stroke="#fff" stroke-width=".3" stroke-miterlimit="10"/><path d="M23.35 8.627h-4.64l-.962-1.752H24.3l-.95 1.752z" stroke="#222B48" stroke-width=".3" stroke-miterlimit="10"/><path d="M21.227 32.685c.585 0 1.06-.48 1.06-1.073 0-.592-.475-1.073-1.06-1.073-.585 0-1.06.48-1.06 1.073s.474 1.073 1.06 1.073z" fill="#222B48" stroke="#222B48" stroke-width=".3" stroke-miterlimit="10"/><path d="M21.233 29.673c2.845 0 5.152-2.336 5.152-5.217 0-2.882-2.307-5.218-5.152-5.218s-5.151 2.336-5.151 5.218c0 2.881 2.306 5.217 5.151 5.217z" fill="#fff" stroke="#222B48" stroke-width=".3" stroke-miterlimit="10"/><path d="M21.22 28.217c2.052 0 3.715-1.684 3.715-3.762 0-2.078-1.663-3.762-3.715-3.762-2.051 0-3.714 1.684-3.714 3.762 0 2.078 1.663 3.762 3.714 3.762z" fill="#222B48" stroke="#fff" stroke-width=".3" stroke-miterlimit="10"/></svg>