<?xml version="1.0" encoding="utf-8"?><svg width="108" height="25" fill="none" xmlns="http://www.w3.org/2000/svg" viewBox="0 0 108 25"><path d="M62.077 19.568c-1.96 0-3.723-.654-4.931-1.941l.633-.654c1.189 1.169 2.635 1.664 4.259 1.664 3.545 0 6.219-2.614 6.219-6.1 0-3.486-2.674-6.1-6.22-6.1-1.623 0-3.07.475-4.258 1.644l-.633-.654c1.208-1.287 2.97-1.921 4.931-1.921 4.12 0 7.19 2.99 7.19 7.03 0 4.041-3.07 7.032-7.19 7.032zM72.352 19.468h1.01V5.604h-1.01v13.864zM83.62 19.567c3.446 0 5.565-2.02 5.565-5.98V5.603h-1.01v7.943c0 3.466-1.644 5.09-4.535 5.09-2.892 0-4.556-1.624-4.556-5.09V5.604h-1.01v7.982c0 3.961 2.1 5.981 5.546 5.981zM108 19.468l-.02-13.864h-.832l-6.199 10.715-6.2-10.715h-.85v13.864h.99V7.644l5.803 9.983h.495l5.803-10.022.02 11.863h.99z" fill="#fff"/><path fill-rule="evenodd" clip-rule="evenodd" d="M40.435 6.022a4.927 4.927 0 015.826 3.246 4.927 4.927 0 01-5.826-3.246z" fill="#fff"/><path d="M33.956 9.473c.98-1.698 2.428-2.898 4.147-3.3l.25.875c-1.607.445-2.759 1.45-3.57 2.856-1.773 3.07-.846 6.693 2.173 8.436 3.019 1.743 6.62.735 8.392-2.335.812-1.407 1.123-2.897.706-4.51l.883-.222c.51 1.69.178 3.533-.802 5.231-2.06 3.568-6.185 4.731-9.684 2.711-3.5-2.02-4.554-6.174-2.495-9.742zM0 19.468h1.01V5.604H0v13.864zM16.12 5.604v12.042L6.693 5.604H5.84v13.864h1.01V7.426l9.447 12.042h.832V5.604h-1.01zM25.616 19.567c3.427 0 4.991-1.703 4.991-3.664 0-5.03-8.655-2.575-8.655-6.734 0-1.525 1.208-2.773 3.902-2.773 1.248 0 2.654.376 3.803 1.169l.376-.812c-1.07-.773-2.654-1.248-4.18-1.248-3.406 0-4.91 1.723-4.91 3.684 0 5.11 8.654 2.614 8.654 6.773 0 1.506-1.228 2.714-4 2.714-1.862 0-3.625-.753-4.576-1.743l-.455.752c1.01 1.11 2.99 1.882 5.05 1.882zM62.102 24.345a12.172 12.172 0 110-24.345v.927a11.245 11.245 0 000 22.49v.927z" fill="#fff"/></svg>