<?xml version="1.0" encoding="utf-8"?><svg width="1026" height="1074" fill="none" xmlns="http://www.w3.org/2000/svg" viewBox="0 0 1026 1074"><path d="M1026 0H0v1025.3h1026V0z" fill="#2C3347"/><path d="M0 125.599s134.662 30.759 168.007 46.138h12.825l112.86-11.534 43.605-16.661 46.17 55.11s-43.605 90.995-42.322 153.794c1.282 62.8-2.565 207.623-2.565 207.623s-110.295 15.38-138.51 14.098c-28.215-1.282-100.035-48.702-105.165-55.11-5.13-6.408-106.448-62.799-106.448-62.799L0 125.599z" fill="#133874" fill-opacity=".35"/><path d="M722.355 810.357l35.423 60.48 54.121 23.108-50.184 162.255-162.364-66.377 123.004-179.466zM-2.27 894.88l174.638 25.8 19.674-35.078s-81.747-156.64-83.632-157.256c-1.886-.615-28.895-14.097-28.895-14.097L-25.65 884.435l23.38 10.445z" fill="#4C658C"/><path d="M659.59 537.654l82.208-4.922 101.189-35.103 106.82-73.027M819.107 657.729l-78.002-121.485" stroke="#3D4B67" stroke-width="15" stroke-miterlimit="10"/><path d="M806.449 641.58l-33.73 23.877-16.865-5.613-30.216 15.443M890.619 471.227l57.341 74.206M823.711 509.432l38.232 65.389 31.613-8.087M883.271 524.12l-39.707 16.174M881.796 403.634l118.374 134.455M818.568 352.203l20.584-27.183M870.766 390.408l-64.702-39.679-43.374 11.765-14.698 78.615M753.135 395.547l-49.26 8.087" stroke="#3D4B67" stroke-width="12" stroke-linecap="round" stroke-linejoin="round"/><path d="M769.526 847.55l82.67-61.621 119.952-220.093" stroke="#3D4B67" stroke-width="16" stroke-linecap="round" stroke-linejoin="round"/><path d="M999.927 838.745l-120.619-17.609-84.709-122.575M978.919 882.09l-100.291-23.697-56.251-48.087" stroke="#3D4B67" stroke-width="12" stroke-linecap="round" stroke-linejoin="round"/><path d="M741.734 795.401l81.323-52.816M1003.99 803.539L896.25 785.93M1016.2 779.15l-107.754-17.61M1028.4 754.773l-107.757-17.609M1040.59 730.397l-107.751-17.61" stroke="#3D4B67" stroke-width="8" stroke-linecap="round" stroke-linejoin="round"/><path d="M842.705 659.959l63.035 29.798 154.5-18.276M959.951 600.376l100.679 50.688" stroke="#3D4B67" stroke-width="12" stroke-linecap="round" stroke-linejoin="round"/><path d="M458.955 552.969l-20.289 56.609-22.379 76.872 23.085 27.247 6.297 121.601-16.096 68.477-61.534 140.465" stroke="#3D4B67" stroke-width="19" stroke-linecap="round" stroke-linejoin="round"/><path d="M242.867 817.829l148.295-27.26 104.191 9.087s160.838-101.325 163.634-102.722M633.068 650.808L440.77 731.871l-138.459-6.985-329.372-139.761" stroke="#3D4B67" stroke-width="12" stroke-linecap="round" stroke-linejoin="round"/><path d="M-17.262 652.205l124.466 73.373 89.506 171.917M253.358 571.142l-22.38 125.792-52.441 107.618M273.634 758.426L-17.968 613.769M42.169 689.936l-65.729 92.251M80.63 710.903L-36.153 899.584M130.328 771.37l-147.59 194.602" stroke="#3D4B67" stroke-width="8" stroke-linecap="round" stroke-linejoin="round"/><path d="M-13.069 891.894l209.779 28.657 107.691 107.619" stroke="#3D4B67" stroke-width="16" stroke-linecap="round" stroke-linejoin="round"/><path d="M534.546 545.779l-2.488 95.289 82.093 89.495M496.404 554.891l-4.976 155.782" stroke="#3D4B67" stroke-width="8" stroke-linecap="round" stroke-linejoin="round"/><path d="M600.043 610.411l-174.958 75.398L323.1 670.904M347.147 598.813l94.841 5.793M337.195 636.095l94.841 5.806M198.723 917.001l227.195-3.319 108.628 61.313 46.426 9.945M903.303 906.107l23.944-76.038M875.947 901.84l-45.31 152.94M957.168 970.189l-6.836 1.704-88.915-14.521M939.213 1021.45l-88.056-26.488M812.682 886.46l-51.3 179.43M710.928 469.497l36.769 63.235M882.783 398.585c-1.705 0-91.481 115.346-91.481 115.346M243.252 1047.94l82.08-245.221M298.822 1073.58l112.86-344.337M653.562 128.226l2.039 135.558-30.6 152.872-113.207 120.267" stroke="#3D4B67" stroke-width="8" stroke-linecap="round" stroke-linejoin="round"/><path d="M459.776 546.1l22.444-247.661-45.901-216.07-34.666-114.153M840.191-70.515L738.207 212.826" stroke="#3D4B67" stroke-width="19" stroke-linecap="round" stroke-linejoin="round"/><path d="M356.779 284.161l118.297-13.239 159.107-162.061L674.98-11.394M708.632 181.234l-27.535 155.923-11.222 138.62" stroke="#3D4B67" stroke-width="8" stroke-linecap="round" stroke-linejoin="round"/><path d="M735.155 349.396l-261.092-8.151-124.428 19.365M344.531 402.391l126.467 4.076M346.57 492.079l118.311-4.075 160.12-71.348 49.979 57.083M774.925 254.607L482.22 265.821M942.509 183.093l-38.834 161.356M992.578 171.866l-21.456 183.823M788.199 243.355l55.186-202.202M683.957 150.424L726.883 38.09M783.082 89.15l99.124 124.586M898.558 191.269l6.13-82.716 48.03-120.51M942.509 172.891l64.381-203.227M-12.979 120.806l190.067 47.997 119.567-9.19L570.533 52.38M188.335 88.124l116.502 26.556M363.076 27.875l62.342 159.306M311.981 113.654l85.851 95.994M295.629 277.048l48.03 11.24M287.46 403.686l52.12-1.026M285.42 490.49l59.265 6.126M62.843-19.224l-8.978 155.076M124.402-7.69l-8.977 157.64M88.493 519.057l-20.52 110.22M157.747 572.885l-8.579 226.771 81.81 23.056" stroke="#3D4B67" stroke-width="8" stroke-linecap="round" stroke-linejoin="round"/><path d="M537.367-28.196l53.865 94.84L824.647 292.21l110.295 97.403L1104.23 552.38" stroke="#3D4B67" stroke-width="34" stroke-linecap="round" stroke-linejoin="round"/><path d="M159.03 1063.75s12.825-126.884 32.062-161.487C210.33 867.659 307.8 715.146 328.32 658.754c20.52-56.391 14.107-174.301 14.107-242.227 0-67.926-5.13-147.386 50.018-202.496 55.147-55.11 194.94-155.076 194.94-155.076M1070.89 643.375L924.682 1062.47M1095.25 965.062l-333.445-102.53-124.403-203.778-32.062-48.701 1.282-108.938 128.25-44.857 355.248-152.513" stroke="#3D4B67" stroke-width="34" stroke-linecap="round" stroke-linejoin="round"/><path d="M723.33 799.733L600.248 974.956l-64.163 91.354M767.23 1065.59l-176.985-74.332" stroke="#3D4B67" stroke-width="34" stroke-linecap="round" stroke-linejoin="round"/><path d="M-41.04 442.16s105.165 52.546 133.38 67.926c28.215 15.379 55.147 78.179 156.465 61.518C350.122 554.943 648.945 537 648.945 537s37.192-135.852 98.752-207.623c61.56-71.771 188.528-153.795 188.528-153.795l175.705-23.069M648.945 537s25.65 112.783 15.39 135.852c-10.26 23.069-38.475 44.857-65.407 85.869-26.933 41.012-3.848 84.587-91.058 112.783-87.21 28.195-29.497 184.556-29.497 184.556" stroke="#3D4B67" stroke-width="23" stroke-linejoin="round"/><path d="M648.945 537s25.65 112.783 15.39 135.852c-10.26 23.069-38.475 44.857-65.407 85.869-26.933 41.012-3.848 84.587-91.058 112.783-87.21 28.195-29.497 184.556-29.497 184.556M-41.04 442.16s105.165 52.546 133.38 67.926c28.215 15.379 55.147 78.179 156.465 61.518C350.122 554.943 648.945 537 648.945 537s37.192-135.852 98.752-207.623c61.56-71.771 188.528-153.795 188.528-153.795l175.705-23.069" stroke="#293F64" stroke-opacity=".96" stroke-width="10" stroke-linejoin="round"/><path d="M432.202 1045.8l101.318-75.612 115.425-147.386 70.537-79.461 197.505-140.978 116.703-80.743" stroke="#3D4B67" stroke-width="23" stroke-linejoin="round"/><path d="M432.202 1045.8l101.318-75.612 115.425-147.386 70.537-79.461 197.505-140.978 116.703-80.743" stroke="#606A98" stroke-width="14" stroke-linejoin="round"/><path d="M537.367-28.196l53.865 94.84L824.647 292.21l110.295 97.403L1104.23 552.38" stroke="#2C3347" stroke-width="21" stroke-linecap="round" stroke-linejoin="round"/><path d="M159.03 1063.75s12.825-126.884 32.062-161.487C210.33 867.659 307.8 715.146 328.32 658.754c20.52-56.391 14.107-174.301 14.107-242.227 0-67.926-5.13-147.386 50.018-202.496 55.147-55.11 194.94-155.076 194.94-155.076M1070.89 643.375L924.682 1062.47M1095.25 965.062l-333.445-102.53-124.403-203.778-32.062-48.701 1.282-108.938 128.25-44.857 355.248-152.513" stroke="#2C3347" stroke-width="21" stroke-linecap="round" stroke-linejoin="round"/><path d="M723.33 799.733L600.248 974.956l-64.163 91.354M765.281 1064.75l-173.074-72.633" stroke="#2C3347" stroke-width="21" stroke-linecap="round" stroke-linejoin="round"/><path d="M765.281 1064.75l-173.074-72.633" stroke="#48496F" stroke-width="19" stroke-linecap="round" stroke-linejoin="round"/><path d="M180.832-16.661s6.413 169.174-8.977 217.876c-15.39 48.701-79.515 164.048-50.018 244.79 29.498 80.742 143.64 117.909 157.748 56.391 14.107-61.518-2.565-165.329 5.13-206.341s20.52-214.031 37.192-237.1c16.673-23.07 50.018-55.11 114.143-67.926M720.765-23.07c3.847 0 166.725-8.97 224.437 56.392 57.708 65.363 47.453 96.122 58.998 124.318 11.54 28.195 35.91 51.265 64.12 65.362" stroke="#3D4B67" stroke-width="23" stroke-linejoin="round"/><path d="M180.832-16.661s6.413 169.174-8.977 217.876c-15.39 48.701-79.515 164.048-50.018 244.79 29.498 80.742 143.64 117.909 157.748 56.391 14.107-61.518-2.565-165.329 5.13-206.341s20.52-214.031 37.192-237.1c16.673-23.07 50.018-55.11 114.143-67.926M720.765-23.07c3.847 0 166.725-8.97 224.437 56.392 57.708 65.363 47.453 96.122 58.998 124.318 11.54 28.195 35.91 51.265 64.12 65.362" stroke="#606A98" stroke-width="14" stroke-linejoin="round"/><path d="M537.367-28.196l53.865 94.84L824.647 292.21l110.295 97.403L1104.23 552.38" stroke="#48496F" stroke-width="19" stroke-linecap="round" stroke-linejoin="round"/><path d="M159.03 1063.75s12.825-126.884 32.062-161.487C210.33 867.659 307.8 715.146 328.32 658.754c20.52-56.391 14.107-174.301 14.107-242.227 0-67.926-5.13-147.386 50.018-202.496 55.147-55.11 194.94-155.076 194.94-155.076M1070.89 643.375L924.682 1062.47M1095.25 965.062l-333.445-102.53-124.403-203.778-32.062-48.701 1.282-108.938 128.25-44.857 355.248-152.513" stroke="#48496F" stroke-width="19" stroke-linecap="round" stroke-linejoin="round"/><path d="M723.33 799.733L600.248 974.956l-64.163 91.354" stroke="#48496F" stroke-width="19" stroke-linecap="round" stroke-linejoin="round"/><path d="M1026 0H0v1074h1026V0z" fill="url(#bcpaint0_radial_1177_35807)"/><path opacity=".2" d="M956.745 0H0v949.682h956.745V0z" fill="#151618"/><path style="mix-blend-mode:multiply" opacity=".28" d="M435.845 547.471c0 3.281-11.145 5.934-24.906 5.934-13.762 0-24.907-2.653-24.907-5.934s11.158-5.934 24.919-5.934c13.762 0 24.894 2.666 24.894 5.934z" fill="url(#bcpaint1_radial_1177_35807)"/><path d="M500.303 987.747a11.524 11.524 0 01-.154-.91c.026.308.09.602.154.91zM501.291 990.618l-.077-.167.077.167zM500.611 988.926z" fill="#B5B5B5"/><defs><radialGradient id="bcpaint0_radial_1177_35807" cx="0" cy="0" r="1" gradientUnits="userSpaceOnUse" gradientTransform="rotate(-1.179 25754.149 -24889.692) scale(508.619 516.421)"><stop stop-color="#151618" stop-opacity="0"/><stop offset="1" stop-color="#151618"/></radialGradient><radialGradient id="bcpaint1_radial_1177_35807" cx="0" cy="0" r="1" gradientUnits="userSpaceOnUse" gradientTransform="matrix(24.9303 0 0 5.90724 411.227 546.388)"><stop/><stop offset=".15" stop-opacity=".5"/><stop offset="1" stop-opacity="0"/></radialGradient></defs></svg>