<?xml version="1.0" encoding="utf-8"?><svg width="391" height="89" fill="none" xmlns="http://www.w3.org/2000/svg" viewBox="0 0 391 89"><path d="M224.743 71.092c-7.098 0-13.48-2.366-17.854-7.027l2.295-2.366c4.302 4.23 9.536 6.023 15.416 6.023 12.835 0 22.515-9.465 22.515-22.085 0-12.62-9.68-22.085-22.515-22.085-5.88 0-11.114 1.721-15.416 5.952l-2.295-2.366c4.374-4.661 10.756-6.956 17.854-6.956 14.915 0 26.029 10.828 26.029 25.455 0 14.628-11.114 25.455-26.029 25.455zM261.94 70.732h3.657V20.539h-3.657v50.193zM302.734 71.09c12.477 0 20.149-7.314 20.149-21.655V20.54h-3.657v28.753c0 12.548-5.951 18.428-16.42 18.428-10.469 0-16.492-5.88-16.492-18.428V20.54h-3.657v28.896c0 14.341 7.601 21.655 20.077 21.655zM391 70.732l-.072-50.193h-3.012L365.473 59.33 343.03 20.539h-3.083v50.193h3.585V27.924l21.009 36.14h1.793l21.009-36.283.072 42.95H391z" fill="#fff"/><path fill-rule="evenodd" clip-rule="evenodd" d="M146.389 22.05c9.004-2.164 18.193 2.949 21.094 11.751-9.003 2.166-18.193-2.947-21.094-11.75z" fill="#fff"/><path d="M122.935 34.543c3.549-6.148 8.789-10.491 15.013-11.949l.901 3.17c-5.814 1.61-9.984 5.248-12.924 10.34-6.417 11.115-3.061 24.23 7.869 30.54 10.929 6.31 23.966 2.66 30.383-8.456 2.94-5.092 4.067-10.485 2.554-16.326l3.197-.804c1.849 6.118.645 12.792-2.904 18.94-7.457 12.916-22.391 17.127-35.059 9.814-12.668-7.314-16.487-22.353-9.03-35.27zM0 70.73h3.657V20.535H0V70.73zM58.361 20.537v43.595l-34.13-43.596h-3.084V70.73h3.657V27.133L59.007 70.73h3.011V20.537h-3.657zM92.74 71.088c12.405 0 18.07-6.167 18.07-13.265 0-18.213-31.335-9.322-31.335-24.38 0-5.521 4.374-10.038 14.126-10.038 4.517 0 9.608 1.362 13.767 4.23l1.362-2.94c-3.872-2.796-9.608-4.517-15.13-4.517-12.332 0-17.782 6.238-17.782 13.337 0 18.5 31.335 9.465 31.335 24.523 0 5.45-4.446 9.823-14.485 9.823-6.74 0-13.121-2.725-16.563-6.31l-1.65 2.725c3.657 4.015 10.828 6.812 18.285 6.812zM224.832 88.384a44.067 44.067 0 110-88.136v3.357a40.712 40.712 0 00-28.787 69.498 40.712 40.712 0 0028.787 11.924v3.357z" fill="#fff"/></svg>