<?xml version="1.0" encoding="utf-8"?><svg width="136" height="32" fill="none" xmlns="http://www.w3.org/2000/svg" viewBox="0 0 136 32"><path d="M41.112 0L20.61 31.133h-9.648l3.001-4.573.055-.068L31.464 0h9.648zM25.59 2.89L9.656 27.093H0l1.24-1.89.047-.068L15.942 2.89h9.649zM45.14 25.122V6.462h6.998c1.434 0 2.637.248 3.609.746.978.499 1.716 1.197 2.214 2.096.504.893.756 1.935.756 3.126 0 1.196-.255 2.235-.765 3.116-.504.875-1.249 1.552-2.233 2.032-.984.474-2.193.71-3.626.71h-4.984v-2.806h4.528c.838 0 1.525-.115 2.06-.346.534-.237.929-.58 1.184-1.03.261-.455.392-1.014.392-1.676 0-.662-.13-1.227-.392-1.695-.261-.474-.66-.832-1.194-1.075-.534-.25-1.224-.374-2.068-.374h-3.098v15.836h-3.38zm9.64-8.455l4.62 8.455h-3.772l-4.538-8.455h3.69zM61.683 25.122V11.127h3.299v13.995h-3.299zM63.341 9.14c-.522 0-.971-.173-1.348-.52-.377-.352-.565-.774-.565-1.266 0-.498.188-.92.565-1.266a1.906 1.906 0 011.348-.529c.529 0 .979.176 1.349.529.377.346.565.768.565 1.266 0 .492-.188.914-.565 1.267-.37.346-.82.52-1.349.52zM71.672 16.922v8.2h-3.298V11.127h3.152v2.378h.164a4 4 0 011.54-1.868c.71-.462 1.589-.693 2.633-.693.966 0 1.808.207 2.525.62.722.413 1.281 1.011 1.676 1.795.401.784.598 1.734.592 2.852v8.912h-3.298V16.72c0-.935-.243-1.667-.73-2.196-.479-.528-1.144-.792-1.995-.792-.577 0-1.09.127-1.54.382-.443.25-.792.61-1.047 1.085-.25.473-.374 1.047-.374 1.722zM90.998 11.127v2.55h-8.045v-2.55h8.045zM84.94 7.773h3.299v13.14c0 .443.066.783.2 1.02.14.231.322.39.547.474.224.085.474.128.747.128.206 0 .395-.015.565-.046.176-.03.31-.058.4-.082l.556 2.579c-.176.06-.428.127-.756.2a6.197 6.197 0 01-1.184.128c-.826.024-1.57-.1-2.233-.374a3.473 3.473 0 01-1.576-1.294c-.383-.583-.571-1.312-.565-2.187V7.773zM99.803 25.396c-1.403 0-2.615-.292-3.636-.875a5.924 5.924 0 01-2.342-2.497c-.546-1.08-.82-2.354-.82-3.817 0-1.44.274-2.704.82-3.791.553-1.093 1.325-1.944 2.315-2.551.99-.614 2.153-.92 3.49-.92.862 0 1.676.14 2.442.418a5.521 5.521 0 012.041 1.276c.595.577 1.063 1.312 1.403 2.205.34.887.51 1.944.51 3.171v1.012H94.554v-2.224h8.31c-.006-.631-.142-1.193-.41-1.685a2.984 2.984 0 00-1.12-1.176c-.474-.285-1.027-.428-1.659-.428-.674 0-1.266.164-1.777.492a3.39 3.39 0 00-1.193 1.276 3.67 3.67 0 00-.428 1.722v1.94c0 .815.148 1.513.446 2.096.298.578.714 1.02 1.248 1.33.535.304 1.16.456 1.877.456.48 0 .915-.067 1.303-.2.389-.14.726-.343 1.012-.61a2.55 2.55 0 00.647-.994l3.08.346a4.805 4.805 0 01-1.112 2.133c-.541.601-1.233 1.069-2.078 1.403-.844.328-1.81.492-2.897.492zM114.922 25.396c-1.397 0-2.597-.307-3.599-.92-.997-.614-1.765-1.461-2.306-2.543-.534-1.087-.802-2.338-.802-3.754 0-1.421.274-2.676.82-3.763.547-1.093 1.319-1.944 2.315-2.551 1.002-.614 2.187-.92 3.554-.92 1.135 0 2.141.209 3.016.628.88.413 1.582 1 2.104 1.759.523.753.821 1.634.893 2.642h-3.152a3.018 3.018 0 00-.912-1.686c-.473-.455-1.108-.683-1.904-.683-.674 0-1.266.182-1.777.547-.51.358-.908.875-1.193 1.549-.28.674-.42 1.482-.42 2.424 0 .953.14 1.773.42 2.46.279.68.671 1.206 1.175 1.576.51.365 1.109.547 1.795.547.486 0 .92-.091 1.303-.273.389-.189.714-.46.975-.811.261-.353.44-.781.538-1.285h3.152c-.079.99-.37 1.868-.874 2.633-.505.76-1.191 1.355-2.06 1.786-.868.425-1.889.638-3.061.638zM126.924 16.922v8.2h-3.298V6.462h3.226v7.043h.164a4.05 4.05 0 011.521-1.868c.693-.462 1.574-.693 2.643-.693.972 0 1.819.204 2.542.61.723.408 1.282 1.003 1.677 1.787.4.783.601 1.74.601 2.87v8.912h-3.299V16.72c0-.941-.243-1.673-.729-2.196-.479-.528-1.154-.792-2.022-.792-.584 0-1.106.127-1.568.382a2.68 2.68 0 00-1.075 1.085c-.255.473-.383 1.047-.383 1.722z" fill="#fff"/></svg>