<?xml version="1.0" encoding="utf-8"?><svg width="39" height="39" fill="none" xmlns="http://www.w3.org/2000/svg" viewBox="0 0 39 39"><path d="M33.725 38.004H5.765c-1.3 0-2.545-.5-3.464-1.39A4.671 4.671 0 01.867 33.26V8.065c.008-.651.14-1.295.392-1.898A4.461 4.461 0 012.385 4.6 4.608 4.608 0 014.001 3.51a5.642 5.642 0 011.959-.333h27.912c.653-.013 1.303.1 1.91.333.602.246 1.15.6 1.616 1.043.478.463.86 1.011 1.126 1.614a5.08 5.08 0 01.392 1.898v25.004a5.08 5.08 0 01-.392 1.898 5.02 5.02 0 01-1.077 1.566 4.908 4.908 0 01-1.665 1.091c-.65.27-1.35.399-2.057.38zM5.765 6.119a2.071 2.071 0 00-.784 0 1.918 1.918 0 00-.687.427 1.845 1.845 0 00-.44.665 1.519 1.519 0 000 .806V33.07c.003.553.232 1.082.637 1.471.184.2.41.359.665.465.253.107.528.158.804.152h27.961c.277.007.551-.045.805-.152a1.91 1.91 0 00.664-.465c.192-.19.341-.416.441-.664.05-.267.05-.54 0-.807V8.065a1.519 1.519 0 000-.807 1.844 1.844 0 00-.44-.665 1.918 1.918 0 00-.686-.426 1.464 1.464 0 00-.784 0L5.764 6.119z" fill="#fff"/><path d="M37.251 11.196H2.141l1.713 23.961h33.397v-23.96zM11.542.568H8.604v7.924h2.938V.568zM30.69.568H27.75v7.924h2.938V.568z" fill="#fff"/></svg>