<?xml version="1.0" encoding="utf-8"?><svg width="498" height="1095" fill="none" xmlns="http://www.w3.org/2000/svg" viewBox="0 0 498 1095"><g opacity=".9" stroke="#004ECC" stroke-width="2"><path opacity=".034" d="M113.81 745.49c19.889 8.987 40.426-11.195 31.788-31.237L78.63 558.876a25.9 25.9 0 01.183-20.915l69.669-154.184c8.986-19.888-11.195-40.425-31.238-31.787l-155.376 66.967a25.9 25.9 0 01-20.915-.182l-154.184-69.669c-19.889-8.987-40.426 11.195-31.788 31.237l66.968 155.377a25.898 25.898 0 01-.183 20.915l-69.669 154.184c-8.986 19.888 11.195 40.425 31.237 31.787l155.377-66.967a25.9 25.9 0 0120.915.182L113.81 745.49z"/><path opacity=".069" d="M121.094 734.031c20.331 7.934 39.784-13.295 30.109-32.857L77.528 552.208a25.897 25.897 0 01-.913-20.895l60.412-154.82c7.933-20.331-13.296-39.784-32.858-30.108l-148.965 73.674a25.895 25.895 0 01-20.896.913l-154.82-60.412c-20.331-7.933-39.784 13.296-30.108 32.858l73.675 148.966a25.898 25.898 0 01.912 20.895l-60.411 154.82c-7.934 20.331 13.295 39.784 32.857 30.108l148.966-73.675a25.9 25.9 0 0120.895-.912l154.82 60.411z"/><path opacity=".103" d="M127.63 722.366c20.719 6.858 39.034-15.359 28.348-34.389L76.079 545.692a25.898 25.898 0 01-2.004-20.819l51.281-154.916c6.859-20.719-15.359-39.034-34.388-28.348l-142.285 79.899a25.901 25.901 0 01-20.82 2.005l-154.915-51.282c-20.719-6.858-39.034 15.359-28.348 34.389l79.898 142.285a25.897 25.897 0 012.005 20.819l-51.281 154.916c-6.859 20.719 15.359 39.034 34.388 28.348l142.285-79.899a25.901 25.901 0 0120.82-2.005l154.915 51.282z"/><path opacity=".138" d="M133.425 710.53c21.05 5.765 38.176-17.381 26.509-35.825L74.305 539.336a25.899 25.899 0 01-3.091-20.686l42.309-154.489c5.765-21.049-17.38-38.176-35.825-26.509L-57.67 423.281a25.9 25.9 0 01-20.686 3.092l-154.489-42.31c-21.05-5.765-38.176 17.381-26.509 35.825l85.629 135.369a25.893 25.893 0 013.091 20.685l-42.309 154.49c-5.765 21.049 17.381 38.176 35.825 26.509l135.368-85.629a25.9 25.9 0 0120.686-3.092l154.489 42.31z"/><path opacity=".172" d="M138.478 698.574c21.322 4.655 37.214-19.355 24.598-37.163l-90.86-128.25a25.897 25.897 0 01-4.17-20.495l33.526-153.556c4.655-21.322-19.355-37.214-37.163-24.598l-128.25 90.859a25.893 25.893 0 01-20.495 4.17l-153.556-33.525c-21.322-4.655-37.214 19.355-24.598 37.163l90.86 128.25a25.895 25.895 0 014.169 20.495l-33.525 153.556c-4.655 21.322 19.355 37.214 37.163 24.598l128.25-90.859a25.893 25.893 0 0120.495-4.17l153.556 33.525z"/><path opacity=".207" d="M142.781 686.549c21.537 3.533 36.151-21.276 22.619-38.4l-95.583-120.96a25.899 25.899 0 01-5.237-20.249l24.957-152.135c3.532-21.536-21.277-36.15-38.4-22.619l-120.96 95.584a25.9 25.9 0 01-20.25 5.236l-152.134-24.956c-21.537-3.533-36.15 21.276-22.619 38.4l95.583 120.96a25.897 25.897 0 015.237 20.249l-24.956 152.135c-3.533 21.536 21.276 36.15 38.399 22.619l120.96-95.584a25.9 25.9 0 0120.25-5.236l152.134 24.956z"/><path opacity=".241" d="M146.361 674.485c21.692 2.401 34.988-23.139 20.579-39.531l-99.8-113.535a25.898 25.898 0 01-6.289-19.947l16.63-150.245c2.4-21.692-23.14-34.987-39.531-20.579l-113.535 99.799a25.897 25.897 0 01-19.947 6.29l-150.245-16.63c-21.692-2.401-34.987 23.139-20.579 39.531l99.799 113.535a25.897 25.897 0 016.29 19.947l-16.63 150.245c-2.401 21.692 23.139 34.988 39.531 20.579l113.535-99.799a25.897 25.897 0 0119.948-6.29l150.244 16.63z"/><path opacity=".276" d="M149.21 662.437c21.788 1.262 33.728-24.939 18.481-40.554L64.187 515.877a25.898 25.898 0 01-7.325-19.591l8.57-147.909c1.262-21.788-24.939-33.728-40.554-18.481L-81.128 433.4a25.896 25.896 0 01-19.591 7.325l-147.909-8.57c-21.788-1.262-33.728 24.939-18.482 40.554l103.505 106.006a25.9 25.9 0 017.325 19.591l-8.57 147.909c-1.262 21.788 24.939 33.728 40.554 18.482L-18.29 661.192a25.9 25.9 0 0119.59-7.325l147.91 8.57z"/><path opacity=".31" d="M151.349 650.442c21.824.12 32.377-26.67 16.333-41.466L60.981 510.57a25.899 25.899 0 01-8.34-19.181l.8-145.149c.12-21.825-26.67-32.377-41.465-16.334l-98.407 106.702a25.902 25.902 0 01-19.18 8.34l-145.15-.801c-21.824-.12-32.377 26.67-16.334 41.466l106.702 98.406a25.9 25.9 0 018.34 19.181l-.8 145.149c-.121 21.824 26.669 32.377 41.465 16.334l98.406-106.702a25.898 25.898 0 0119.181-8.34l145.15.801z"/><path opacity=".345" d="M152.781 638.546c21.8-1.022 30.937-28.327 14.141-42.263L57.529 505.515a25.899 25.899 0 01-9.332-18.718L41.54 344.806c-1.022-21.8-28.327-30.936-42.263-14.141l-90.768 109.393a25.897 25.897 0 01-18.718 9.332l-141.991 6.657c-21.8 1.022-30.937 28.327-14.141 42.263l109.393 90.768a25.898 25.898 0 019.332 18.718l6.657 141.991c1.022 21.8 28.327 30.937 42.263 14.141l90.768-109.393a25.898 25.898 0 0118.718-9.332l141.991-6.657z"/><path opacity=".379" d="M153.531 626.786c21.717-2.162 29.412-29.908 11.91-42.946L53.858 500.717a25.898 25.898 0 01-10.3-18.204l-13.78-138.457c-2.162-21.717-29.908-29.412-42.946-11.91l-83.123 111.583a25.9 25.9 0 01-18.204 10.3l-138.457 13.781c-21.717 2.161-29.412 29.907-11.91 42.945l111.583 83.123a25.898 25.898 0 0110.299 18.204l13.781 138.457c2.162 21.718 29.908 29.412 42.946 11.91L-3.13 650.866a25.896 25.896 0 0118.204-10.299l138.457-13.781z"/><path opacity=".414" d="M153.618 615.198c21.574-3.295 27.806-31.406 9.646-43.51l-113.28-75.503a25.9 25.9 0 01-11.238-17.64L18.192 343.97c-3.296-21.574-31.406-27.806-43.51-9.646l-75.503 113.28a25.903 25.903 0 01-17.64 11.238l-134.575 20.554c-21.575 3.295-27.807 31.406-9.646 43.51l113.28 75.503a25.898 25.898 0 0111.237 17.64l20.555 134.575c3.295 21.574 31.406 27.806 43.51 9.646L1.403 646.99a25.901 25.901 0 0117.64-11.238l134.575-20.554z"/><path opacity=".448" d="M153.058 603.822c21.372-4.42 26.124-32.818 7.355-43.956L45.922 491.929a25.897 25.897 0 01-12.146-17.027L6.816 344.53c-4.42-21.372-32.819-26.125-43.956-7.356l-67.937 114.492a25.897 25.897 0 01-17.028 12.145l-130.372 26.961c-21.372 4.42-26.124 32.819-7.355 43.956l114.491 67.937a25.897 25.897 0 0112.146 17.027l26.961 130.372c4.42 21.373 32.818 26.125 43.955 7.356L5.658 642.928a25.896 25.896 0 0117.028-12.145l130.372-26.961z"/><path opacity=".483" d="M151.875 592.691c21.112-5.532 24.371-34.14 5.045-44.28L41.691 487.955a25.897 25.897 0 01-13.02-16.368L-4.314 345.711c-5.533-21.111-34.14-24.371-44.28-5.045l-60.456 115.229a25.898 25.898 0 01-16.369 13.021l-125.875 32.985c-21.112 5.532-24.371 34.14-5.045 44.28l115.229 60.456a25.898 25.898 0 0113.02 16.368l32.986 125.876c5.532 21.111 34.14 24.371 44.28 5.045L9.63 638.696A25.9 25.9 0 0126 625.676l125.875-32.985z"/><path opacity=".517" d="M150.094 581.843c20.793-6.63 22.551-35.37 2.72-44.484L37.31 484.272a25.898 25.898 0 01-13.86-15.665l-38.614-121.113c-6.63-20.793-35.37-22.551-44.484-2.721l-53.087 115.505a25.9 25.9 0 01-15.664 13.859l-121.114 38.615c-20.793 6.629-22.551 35.369-2.72 44.483l115.504 53.087a25.896 25.896 0 0113.859 15.665L-84.255 747.1c6.63 20.794 35.37 22.551 44.483 2.721l53.088-115.504a25.896 25.896 0 0115.664-13.859l121.114-38.615z"/><path opacity=".552" d="M147.74 571.304c20.418-7.709 20.669-36.501.389-44.565L32.797 480.88a25.9 25.9 0 01-14.66-14.918l-43.839-116.115c-7.708-20.417-36.5-20.669-44.565-.389l-45.859 115.332a25.894 25.894 0 01-14.918 14.66l-116.114 43.839c-20.418 7.709-20.669 36.501-.389 44.565l115.332 45.859a25.903 25.903 0 0114.66 14.918l43.839 116.115c7.708 20.417 36.5 20.669 44.565.389l45.858-115.332a25.897 25.897 0 0114.918-14.66l116.115-43.839z"/><path opacity=".586" d="M144.841 561.107c19.987-8.767 18.731-37.533-1.943-44.524L28.171 477.785a25.894 25.894 0 01-15.421-14.13l-48.649-110.909c-8.767-19.986-37.532-18.73-44.524 1.944l-38.797 114.727a25.9 25.9 0 01-14.131 15.421l-110.909 48.648c-19.986 8.767-18.73 37.533 1.944 44.525l114.727 38.797a25.898 25.898 0 0115.421 14.13l48.649 110.909c8.766 19.987 37.532 18.731 44.524-1.944l38.797-114.727a25.897 25.897 0 0114.13-15.42l110.909-48.649z"/><path opacity=".621" d="M141.429 551.278c19.5-9.801 16.74-38.462-4.272-44.362L23.45 474.989a25.9 25.9 0 01-16.139-13.304l-53.037-105.526c-9.8-19.5-38.461-16.74-44.361 4.272l-31.928 113.707a25.896 25.896 0 01-13.303 16.138l-105.526 53.038c-19.5 9.8-16.741 38.461 4.271 44.361l113.707 31.927a25.9 25.9 0 0116.139 13.304l53.037 105.526c9.801 19.5 38.462 16.74 44.362-4.271l31.927-113.707a25.897 25.897 0 0113.304-16.139l105.526-53.037z"/><path opacity=".655" d="M137.528 541.845c18.96-10.808 14.704-39.285-6.588-44.077L18.65 472.495a25.9 25.9 0 01-16.813-12.441l-56.999-99.994c-10.808-18.961-39.285-14.705-44.077 6.587l-25.273 112.29a25.896 25.896 0 01-12.441 16.813l-99.994 56.999c-18.961 10.808-14.705 39.285 6.587 44.077l112.29 25.273a25.9 25.9 0 0116.813 12.441l57 99.995c10.807 18.96 39.284 14.704 44.076-6.588l25.273-112.29a25.898 25.898 0 0112.441-16.813l99.995-56.999z"/><path opacity=".69" d="M133.182 532.823c18.369-11.785 12.628-40.001-8.885-43.672L13.8 470.295A25.898 25.898 0 01-3.64 458.751l-60.531-94.345c-11.786-18.369-40.001-12.628-43.672 8.885L-126.7 483.788a25.898 25.898 0 01-11.544 17.441l-94.345 60.531c-18.369 11.786-12.628 40.001 8.885 43.672l110.497 18.856a25.898 25.898 0 0117.44 11.544l60.532 94.345c11.785 18.369 40 12.628 43.672-8.885l18.856-110.497a25.898 25.898 0 0111.544-17.441l94.345-60.531z"/><path opacity=".724" d="M128.409 524.246c17.727-12.731 10.518-40.607-11.158-43.147L8.904 468.401a25.895 25.895 0 01-18.022-10.615l-63.633-88.607c-12.73-17.727-40.606-10.517-43.147 11.159l-12.697 108.347a25.897 25.897 0 01-10.615 18.021l-88.607 63.633c-17.727 12.731-10.518 40.607 11.159 43.147l108.347 12.697a25.9 25.9 0 0118.021 10.616l63.633 88.607c12.73 17.726 40.607 10.517 43.147-11.159L29.187 605.9a25.897 25.897 0 0110.616-18.021l88.606-63.633z"/><path opacity=".759" d="M123.253 516.123c17.036-13.641 8.378-41.102-13.402-42.504L3.987 466.803a25.9 25.9 0 01-18.552-9.658l-66.305-82.809c-13.64-17.036-41.101-8.378-42.504 13.401l-6.816 105.864a25.899 25.899 0 01-9.658 18.553l-82.809 66.304c-17.036 13.641-8.378 41.102 13.402 42.504l105.864 6.817c7.267.468 14 3.973 18.552 9.657l66.305 82.81c13.64 17.036 41.101 8.377 42.504-13.402l6.816-105.864a25.897 25.897 0 019.658-18.552l82.809-66.305z"/><path opacity=".793" d="M117.74 508.478c16.299-14.514 6.215-41.484-15.608-41.744l-103.07-1.231a25.899 25.899 0 01-19.033-8.673l-68.549-76.981c-14.514-16.299-41.484-6.216-41.744 15.607l-1.231 103.071a25.898 25.898 0 01-8.673 19.032l-76.981 68.549c-16.299 14.514-6.216 41.484 15.607 41.745l103.07 1.23a25.896 25.896 0 0119.033 8.674l68.55 76.981c14.513 16.299 41.483 6.215 41.744-15.608l1.23-103.07a25.9 25.9 0 018.674-19.033l76.981-68.549z"/><path opacity=".828" d="M111.914 501.318c15.517-15.347 4.036-41.752-17.77-40.87l-99.992 4.044a25.9 25.9 0 01-19.46-7.665l-70.37-71.152c-15.348-15.517-41.753-4.035-40.871 17.771l4.044 99.991a25.896 25.896 0 01-7.666 19.46l-71.151 70.371c-15.517 15.347-4.036 41.752 17.771 40.87l99.991-4.044a25.9 25.9 0 0119.46 7.666l70.371 71.151c15.347 15.517 41.752 4.036 40.87-17.771l-4.044-99.991a25.899 25.899 0 017.666-19.46l71.151-70.371z"/><path opacity=".862" d="M105.807 494.655c14.693-16.137 1.845-41.906-19.885-39.884l-96.65 8.993a25.897 25.897 0 01-19.835-6.636l-71.776-65.348c-16.138-14.692-41.906-1.845-39.884 19.886l8.993 96.65a25.896 25.896 0 01-6.636 19.834l-65.348 71.776c-14.693 16.138-1.845 41.906 19.886 39.884l96.65-8.993a25.902 25.902 0 0119.834 6.637l71.776 65.348c16.138 14.692 41.906 1.845 39.884-19.886l-8.993-96.65a25.899 25.899 0 016.637-19.835l65.347-71.776z"/><path opacity=".897" d="M99.456 488.504c13.828-16.885-.35-41.945-21.945-38.789l-93.073 13.605a25.898 25.898 0 01-20.155-5.59l-72.773-59.597c-16.884-13.828-41.945.35-38.788 21.945l13.604 93.073a25.902 25.902 0 01-5.589 20.155l-59.598 72.773c-13.828 16.884.351 41.945 21.946 38.789l93.073-13.605a25.902 25.902 0 0120.155 5.589L9.085 696.45c16.885 13.828 41.945-.351 38.789-21.946l-13.605-93.073a25.9 25.9 0 015.59-20.155l59.597-72.772z"/><path opacity=".931" d="M92.893 482.869c12.925-17.585-2.545-41.87-23.946-37.587l-89.287 17.867a25.896 25.896 0 01-20.42-4.527l-73.37-53.927c-17.585-12.926-41.869 2.545-37.587 23.945l17.868 89.287a25.905 25.905 0 01-4.527 20.42l-53.928 73.37c-12.925 17.586 2.546 41.87 23.946 37.587l89.287-17.867a25.896 25.896 0 0120.42 4.527l73.37 53.927c17.585 12.926 41.87-2.545 37.587-23.945l-17.867-89.287a25.9 25.9 0 014.527-20.42l53.927-73.37z"/><path opacity=".966" d="M86.162 477.751c11.987-18.237-4.733-41.678-25.88-36.282l-85.317 21.773a25.903 25.903 0 01-20.629-3.452l-73.581-48.363c-18.237-11.988-41.679 4.733-36.282 25.88l21.772 85.317a25.896 25.896 0 01-3.452 20.629l-48.363 73.58c-11.987 18.238 4.734 41.679 25.88 36.283l85.318-21.773a25.903 25.903 0 0120.628 3.452l73.581 48.363c18.238 11.987 41.679-4.733 36.282-25.88l-21.772-85.317a25.9 25.9 0 013.452-20.629l48.363-73.581z"/><path d="M79.292 473.158c11.016-18.84-6.908-41.374-27.744-34.878l-81.192 25.313a25.898 25.898 0 01-20.78-2.368l-73.417-42.928c-18.84-11.017-41.374 6.908-34.878 27.743l25.313 81.192a25.898 25.898 0 01-2.368 20.781l-42.929 73.417c-11.016 18.84 6.908 41.374 27.744 34.878l81.192-25.314a25.898 25.898 0 0120.78 2.368l73.417 42.929c18.84 11.016 41.375-6.908 34.879-27.744l-25.314-81.191a25.898 25.898 0 012.368-20.781l42.929-73.417z"/></g><g filter="url(#bmfilter0_f_1378_24157)"><circle cx="-111.205" cy="569.795" r="210" fill="#4864DE"/></g><path d="M107.781 586.672c-4.376 0-8.31-1.459-11.006-4.332l1.415-1.459c2.652 2.608 5.878 3.713 9.503 3.713 7.912 0 13.879-5.834 13.879-13.614 0-7.779-5.967-13.613-13.879-13.613-3.625 0-6.851 1.06-9.503 3.668l-1.415-1.458c2.697-2.874 6.63-4.288 11.006-4.288 9.194 0 16.045 6.674 16.045 15.691s-6.851 15.692-16.045 15.692z" fill="#fff"/><path fill-rule="evenodd" clip-rule="evenodd" d="M72.484 563.684c-5.55 1.334-11.215-1.818-13.003-7.244 5.55-1.335 11.215 1.817 13.003 7.244z" fill="#fff"/><path d="M45.023 564.14c2.188-3.79 5.418-6.467 9.254-7.366l.556 1.955c-3.584.992-6.155 3.234-7.967 6.373-3.956 6.852-1.887 14.937 4.85 18.827 6.737 3.889 14.774 1.639 18.73-5.213 1.812-3.139 2.507-6.464 1.574-10.064l1.97-.496c1.14 3.772.399 7.886-1.79 11.675-4.596 7.962-13.802 10.558-21.61 6.05-7.81-4.509-10.164-13.779-5.567-21.741zM107.835 597.33a27.166 27.166 0 01-19.209-46.374A27.166 27.166 0 01107.835 543v2.07a25.096 25.096 0 100 50.191v2.069z" fill="#fff"/><defs><filter id="bmfilter0_f_1378_24157" x="-444.205" y="236.795" width="666" height="666" filterUnits="userSpaceOnUse" color-interpolation-filters="sRGB"><feFlood flood-opacity="0" result="BackgroundImageFix"/><feBlend in="SourceGraphic" in2="BackgroundImageFix" result="shape"/><feGaussianBlur stdDeviation="61.5" result="effect1_foregroundBlur_1378_24157"/></filter></defs></svg>