<?xml version="1.0" encoding="utf-8"?><svg width="375" height="559" fill="none" xmlns="http://www.w3.org/2000/svg" viewBox="0 0 375 559"><g opacity=".9" stroke="#004ECC" stroke-width="2"><path opacity=".034" d="M147.983 171.781c-17.005-13.68-41.941.717-38.596 22.284l8.799 56.731a25.897 25.897 0 01-5.414 20.203L76.787 315.73c-13.68 17.005.716 41.941 22.283 38.596l56.731-8.799a25.9 25.9 0 0120.203 5.413l44.731 35.986c17.005 13.68 41.941-.717 38.596-22.283l-8.798-56.732a25.894 25.894 0 015.413-20.202l35.985-44.732c13.68-17.005-.716-41.94-22.283-38.596l-56.731 8.799a25.9 25.9 0 01-20.203-5.413l-44.731-35.986z"/><path opacity=".069" d="M143.551 175.603c-17.698-12.772-41.846 2.91-37.377 24.272l11.422 54.597a25.894 25.894 0 01-4.349 20.458l-32.64 45.231c-12.772 17.698 2.91 41.846 24.272 37.377l54.597-11.422a25.9 25.9 0 0120.458 4.349l45.231 32.641c17.698 12.771 41.846-2.911 37.377-24.273l-11.422-54.597a25.9 25.9 0 014.349-20.458l32.64-45.231c12.772-17.698-2.91-41.846-24.272-37.377l-54.597 11.422a25.895 25.895 0 01-20.458-4.349l-45.231-32.64z"/><path opacity=".103" d="M139.418 179.586c-18.341-11.827-41.636 5.097-36.055 26.196l13.847 52.348a25.898 25.898 0 01-3.272 20.657l-29.345 45.507c-11.828 18.342 5.097 41.636 26.195 36.055l52.348-13.846a25.896 25.896 0 0120.658 3.272L229.3 379.12c18.342 11.827 41.636-5.097 36.056-26.196l-13.847-52.347a25.9 25.9 0 013.272-20.658l29.345-45.507c11.828-18.342-5.097-41.636-26.196-36.055l-52.347 13.846a25.9 25.9 0 01-20.658-3.271l-45.507-29.346z"/><path opacity=".138" d="M135.586 183.716c-18.936-10.852-41.313 7.268-34.635 28.046l16.068 49.999a25.901 25.901 0 01-2.186 20.801L88.72 328.127c-10.851 18.935 7.27 41.312 28.047 34.634l49.998-16.068a25.897 25.897 0 0120.801 2.187l45.565 26.112c18.936 10.851 41.313-7.269 34.635-28.047l-16.068-49.998a25.9 25.9 0 012.186-20.801l26.112-45.565c10.852-18.936-7.268-41.312-28.046-34.635l-49.999 16.068a25.895 25.895 0 01-20.8-2.186l-45.565-26.112z"/><path opacity=".172" d="M132.057 187.968c-19.477-9.845-40.875 9.421-33.119 29.821l18.083 47.565a25.895 25.895 0 01-1.094 20.886l-22.956 45.414c-9.846 19.477 9.421 40.875 29.82 33.119l47.565-18.083a25.898 25.898 0 0120.887 1.095l45.414 22.956c19.477 9.845 40.875-9.421 33.119-29.821l-18.083-47.565a25.895 25.895 0 011.094-20.886l22.956-45.414c9.846-19.478-9.421-40.875-29.821-33.119l-47.564 18.083a25.898 25.898 0 01-20.887-1.095l-45.414-22.956z"/><path opacity=".207" d="M128.842 192.321c-19.966-8.813-40.326 11.547-31.514 31.513l19.89 45.061a25.9 25.9 0 010 20.915l-19.89 45.061c-8.812 19.966 11.548 40.326 31.514 31.514l45.061-19.89a25.9 25.9 0 0120.915 0l45.061 19.89c19.966 8.812 40.326-11.548 31.513-31.514l-19.889-45.061a25.9 25.9 0 010-20.915l19.889-45.061c8.813-19.966-11.547-40.326-31.513-31.513l-45.061 19.889a25.9 25.9 0 01-20.915 0l-45.061-19.889z"/><path opacity=".241" d="M125.928 196.759c-20.4-7.756-39.666 13.642-29.82 33.119l21.484 42.503a25.898 25.898 0 011.094 20.887l-16.924 44.516c-7.755 20.399 13.642 39.666 33.12 29.82l42.503-21.484a25.895 25.895 0 0120.886-1.095l44.516 16.924c20.4 7.756 39.666-13.642 29.821-33.119l-21.485-42.503a25.898 25.898 0 01-1.094-20.887l16.924-44.515c7.755-20.4-13.642-39.667-33.12-29.821l-42.502 21.484a25.898 25.898 0 01-20.887 1.095l-44.516-16.924z"/><path opacity=".276" d="M123.326 201.258c-20.778-6.678-38.898 15.699-28.047 34.634l22.869 39.905a25.897 25.897 0 012.186 20.801l-14.072 43.788c-6.677 20.778 15.699 38.898 34.635 28.047l39.905-22.869a25.897 25.897 0 0120.801-2.186l43.788 14.072c20.777 6.677 38.898-15.699 28.046-34.635l-22.868-39.905a25.897 25.897 0 01-2.187-20.801l14.072-43.788c6.678-20.777-15.699-38.898-34.634-28.046l-39.905 22.869a25.901 25.901 0 01-20.801 2.186l-43.788-14.072z"/><path opacity=".31" d="M121.027 205.8c-21.098-5.581-38.023 17.713-26.195 36.055l24.042 37.283a25.9 25.9 0 013.272 20.658l-11.344 42.888c-5.581 21.098 17.713 38.023 36.055 26.195l37.283-24.042a25.9 25.9 0 0120.658-3.272l42.887 11.344c21.099 5.581 38.023-17.713 26.196-36.055l-24.042-37.283a25.9 25.9 0 01-3.272-20.658l11.344-42.887c5.581-21.099-17.713-38.023-36.055-26.196l-37.283 24.042a25.896 25.896 0 01-20.658 3.272L121.027 205.8z"/><path opacity=".345" d="M119.036 210.364c-21.362-4.469-37.044 19.679-24.272 37.376l25.006 34.651a25.9 25.9 0 014.348 20.459l-8.75 41.826c-4.469 21.362 19.679 37.044 37.377 24.273l34.651-25.006a25.9 25.9 0 0120.458-4.349l41.827 8.75c21.361 4.469 37.043-19.679 24.272-37.376l-25.006-34.651a25.9 25.9 0 01-4.348-20.459l8.75-41.826c4.469-21.362-19.679-37.044-37.377-24.273l-34.651 25.006a25.9 25.9 0 01-20.458 4.349l-41.827-8.75z"/><path opacity=".379" d="M117.343 214.931c-21.566-3.345-35.963 21.591-22.283 38.596l25.763 32.024a25.9 25.9 0 015.413 20.203l-6.299 40.615c-3.345 21.567 21.591 35.963 38.596 22.283l32.024-25.762a25.897 25.897 0 0120.203-5.414l40.615 6.299c21.567 3.345 35.963-21.591 22.283-38.595l-25.763-32.025a25.898 25.898 0 01-5.413-20.202l6.299-40.616c3.345-21.566-21.591-35.963-38.595-22.283l-32.025 25.763a25.898 25.898 0 01-20.202 5.413l-40.616-6.299z"/><path opacity=".414" d="M115.943 219.485c-21.712-2.212-34.784 23.444-20.233 39.709l26.316 29.417a25.897 25.897 0 016.463 19.891l-3.999 39.267c-2.212 21.712 23.443 34.784 39.709 20.233l29.416-26.316a25.9 25.9 0 0119.892-6.463l39.267 3.999c21.712 2.212 34.784-23.443 20.233-39.709l-26.316-29.416a25.9 25.9 0 01-6.464-19.892l4-39.267c2.212-21.712-23.443-34.784-39.709-20.233l-29.417 26.316a25.894 25.894 0 01-19.891 6.464l-39.267-4z"/><path opacity=".448" d="M114.831 224.006c-21.798-1.072-33.51 25.232-18.127 40.714l26.67 26.842a25.9 25.9 0 017.496 19.526l-1.859 37.794c-1.073 21.798 25.232 33.509 40.713 18.127l26.842-26.671a25.901 25.901 0 0119.527-7.495l37.793 1.859c21.798 1.072 33.509-25.232 18.127-40.714l-26.67-26.842a25.895 25.895 0 01-7.496-19.526l1.859-37.793c1.072-21.798-25.232-33.51-40.713-18.127l-26.842 26.67a25.901 25.901 0 01-19.527 7.495l-37.793-1.859z"/><path opacity=".483" d="M113.999 228.477c-21.824.07-32.143 26.951-15.971 41.607l26.83 24.314a25.897 25.897 0 018.507 19.107l.116 36.208c.07 21.825 26.951 32.143 41.607 15.972l24.314-26.83a25.897 25.897 0 0119.107-8.507l36.208-.117c21.825-.07 32.143-26.951 15.972-41.606l-26.83-24.315a25.894 25.894 0 01-8.507-19.107l-.117-36.208c-.07-21.824-26.951-32.143-41.606-15.971l-24.315 26.83a25.894 25.894 0 01-19.107 8.507l-36.208.116z"/><path opacity=".517" d="M113.439 232.881c-21.79 1.212-30.688 28.597-13.771 42.386l26.801 21.846a25.898 25.898 0 019.496 18.636l1.92 34.524c1.212 21.791 28.597 30.688 42.386 13.772l21.846-26.802a25.897 25.897 0 0118.636-9.495l34.524-1.921c21.791-1.212 30.688-28.596 13.772-42.385l-26.802-21.847a25.897 25.897 0 01-9.495-18.636l-1.921-34.524c-1.212-21.79-28.596-30.688-42.385-13.771l-21.847 26.801a25.898 25.898 0 01-18.635 9.496l-34.525 1.92z"/><path opacity=".552" d="M113.142 237.203c-21.697 2.351-29.15 30.163-11.534 43.048l26.592 19.451a25.895 25.895 0 0110.457 18.113l3.55 32.755c2.35 21.697 30.163 29.149 43.048 11.534l19.45-26.592a25.9 25.9 0 0118.114-10.457l32.755-3.549c21.697-2.351 29.149-30.164 11.534-43.048l-26.592-19.451a25.897 25.897 0 01-10.457-18.114l-3.55-32.754c-2.35-21.698-30.163-29.15-43.048-11.535l-19.45 26.592a25.904 25.904 0 01-18.114 10.458l-32.755 3.549z"/><path opacity=".586" d="M113.098 241.426c-21.545 3.483-27.531 31.648-9.266 43.593l26.209 17.14a25.895 25.895 0 0111.391 17.541l4.998 30.914c3.484 21.545 31.648 27.531 43.593 9.266l17.14-26.209a25.895 25.895 0 0117.541-11.391l30.914-4.998c21.545-3.483 27.531-31.648 9.266-43.593l-26.209-17.14a25.895 25.895 0 01-11.391-17.541l-4.998-30.914c-3.483-21.545-31.647-27.531-43.593-9.266l-17.14 26.209a25.895 25.895 0 01-17.541 11.391l-30.914 4.998z"/><path opacity=".621" d="M113.294 245.538c-21.333 4.606-25.837 33.045-6.972 44.018l25.66 14.924a25.902 25.902 0 0112.294 16.921l6.265 29.017c4.606 21.332 33.045 25.837 44.018 6.971l14.925-25.66a25.895 25.895 0 0116.921-12.293l29.016-6.266c21.333-4.606 25.837-33.044 6.972-44.017l-25.66-14.925a25.897 25.897 0 01-12.294-16.921l-6.265-29.016c-4.606-21.333-33.045-25.837-44.018-6.972l-14.925 25.66a25.9 25.9 0 01-16.921 12.294l-29.016 6.265z"/><path opacity=".655" d="M113.721 249.524c-21.063 5.716-24.072 34.352-4.659 44.322l24.956 12.816a25.9 25.9 0 0113.162 16.255l7.348 27.074c5.716 21.063 34.352 24.073 44.322 4.659l12.817-24.955a25.898 25.898 0 0116.254-13.163l27.075-7.348c21.062-5.716 24.072-34.352 4.658-44.322l-24.955-12.817a25.895 25.895 0 01-13.162-16.254l-7.348-27.075c-5.717-21.062-34.352-24.072-44.323-4.658l-12.816 24.955a25.901 25.901 0 01-16.254 13.163l-27.075 7.348z"/><path opacity=".69" d="M114.36 253.374c-20.735 6.81-22.242 35.564-2.333 44.505l24.104 10.825a25.9 25.9 0 0113.996 15.543l8.245 25.103c6.811 20.735 35.565 22.242 44.506 2.333l10.825-24.104a25.896 25.896 0 0115.543-13.995l25.103-8.246c20.735-6.811 22.242-35.565 2.333-44.506l-24.104-10.824a25.902 25.902 0 01-13.996-15.544l-8.245-25.103c-6.811-20.735-35.565-22.242-44.506-2.333l-10.825 24.105a25.902 25.902 0 01-15.543 13.995l-25.103 8.246z"/><path opacity=".724" d="M115.206 257.072c-20.35 7.887-20.35 36.68 0 44.567l23.117 8.959a25.893 25.893 0 0114.789 14.789l8.959 23.117c7.887 20.35 36.68 20.35 44.567 0l8.959-23.117a25.893 25.893 0 0114.789-14.789l23.117-8.959c20.35-7.887 20.35-36.68 0-44.567l-23.117-8.959a25.893 25.893 0 01-14.789-14.789l-8.959-23.117c-7.887-20.35-36.68-20.35-44.567 0l-8.959 23.117a25.893 25.893 0 01-14.789 14.789l-23.117 8.959z"/><path opacity=".759" d="M116.241 260.612c-19.91 8.94-18.402 37.694 2.332 44.505l22.005 7.228a25.896 25.896 0 0115.543 13.995l9.489 21.129c8.94 19.909 37.694 18.402 44.505-2.333l7.228-22.004a25.897 25.897 0 0113.995-15.544l21.129-9.488c19.909-8.941 18.402-37.695-2.333-44.505l-22.004-7.228a25.902 25.902 0 01-15.544-13.996l-9.488-21.128c-8.941-19.909-37.695-18.402-44.506 2.332l-7.228 22.005a25.896 25.896 0 01-13.995 15.543l-21.128 9.489z"/><path opacity=".793" d="M117.453 263.981c-19.414 9.97-16.404 38.606 4.659 44.322l20.778 5.64a25.896 25.896 0 0116.255 13.162l9.836 19.152c9.97 19.414 38.606 16.404 44.322-4.658l5.64-20.779a25.895 25.895 0 0113.162-16.254l19.152-9.837c19.414-9.97 16.405-38.606-4.658-44.322l-20.779-5.639a25.896 25.896 0 01-16.254-13.163l-9.836-19.152c-9.971-19.414-38.607-16.404-44.323 4.658l-5.639 20.779a25.898 25.898 0 01-13.163 16.255l-19.152 9.836z"/><path opacity=".828" d="M118.824 267.173c-18.865 10.973-14.361 39.412 6.972 44.018l19.451 4.2a25.897 25.897 0 0116.921 12.294l10.005 17.201c10.973 18.866 39.412 14.361 44.018-6.971l4.2-19.452a25.901 25.901 0 0112.293-16.921l17.202-10.005c18.865-10.973 14.361-39.411-6.972-44.018l-19.451-4.199a25.9 25.9 0 01-16.921-12.294l-10.005-17.202c-10.973-18.865-39.412-14.361-44.018 6.972l-4.2 19.451a25.897 25.897 0 01-12.294 16.921l-17.201 10.005z"/><path opacity=".862" d="M120.339 270.182c-18.265 11.945-12.278 40.109 9.266 43.592l18.035 2.916a25.898 25.898 0 0117.541 11.392l9.999 15.289c11.945 18.265 40.109 12.279 43.593-9.266l2.916-18.034a25.9 25.9 0 0111.391-17.542l15.289-9.999c18.266-11.945 12.279-40.109-9.266-43.592l-18.034-2.916a25.895 25.895 0 01-17.541-11.391l-9.999-15.29c-11.945-18.265-40.11-12.279-43.593 9.266l-2.916 18.035a25.9 25.9 0 01-11.391 17.541l-15.29 9.999z"/><path opacity=".897" d="M121.985 272.998c-17.615 12.885-10.163 40.697 11.534 43.048l16.541 1.793a25.897 25.897 0 0118.114 10.457l9.822 13.429c12.885 17.615 40.697 10.163 43.048-11.534l1.793-16.541a25.897 25.897 0 0110.457-18.114l13.429-9.822c17.615-12.885 10.163-40.697-11.535-43.048l-16.541-1.793a25.897 25.897 0 01-18.113-10.457l-9.823-13.429c-12.884-17.615-40.697-10.163-43.048 11.534l-1.792 16.542a25.895 25.895 0 01-10.458 18.113l-13.428 9.822z"/><path opacity=".931" d="M123.746 275.618c-16.917 13.789-8.019 41.174 13.772 42.386l14.984.833a25.896 25.896 0 0118.635 9.496l9.482 11.632c13.789 16.916 41.173 8.019 42.385-13.772l.834-14.984a25.9 25.9 0 019.495-18.636l11.633-9.481c16.916-13.789 8.019-41.173-13.772-42.385l-14.984-.834a25.897 25.897 0 01-18.636-9.495l-9.481-11.633c-13.789-16.916-41.174-8.019-42.386 13.772l-.833 14.984a25.898 25.898 0 01-9.496 18.636l-11.632 9.481z"/><path opacity=".966" d="M125.602 278.04c-16.171 14.655-5.853 41.536 15.971 41.606l13.377.043a25.897 25.897 0 0119.107 8.507l8.982 9.912c14.655 16.171 41.536 5.853 41.606-15.972l.043-13.376a25.904 25.904 0 018.507-19.107l9.912-8.982c16.172-14.655 5.853-41.536-15.971-41.606l-13.376-.043a25.898 25.898 0 01-19.107-8.508l-8.983-9.911c-14.655-16.172-41.536-5.853-41.606 15.971l-.043 13.376a25.895 25.895 0 01-8.507 19.107l-9.912 8.983z"/><path d="M127.543 280.258c-15.383 15.482-3.672 41.786 18.126 40.713l11.732-.577a25.9 25.9 0 0119.526 7.496l8.332 8.278c15.481 15.383 41.785 3.671 40.713-18.127l-.577-11.731a25.899 25.899 0 017.495-19.526l8.279-8.332c15.382-15.481 3.671-41.785-18.127-40.713l-11.731.577a25.898 25.898 0 01-19.526-7.496l-8.332-8.278c-15.482-15.383-41.786-3.671-40.714 18.127l.577 11.731a25.899 25.899 0 01-7.495 19.526l-8.278 8.332z"/></g></svg>